<?xml version="1.0" encoding="utf-8"?>
<!-- Generator: Adobe Illustrator 26.0.1, SVG Export Plug-In . SVG Version: 6.00 Build 0)  -->
<svg version="1.1" id="Capa_1" xmlns="http://www.w3.org/2000/svg" xmlns:xlink="http://www.w3.org/1999/xlink" x="0px" y="0px"
	 viewBox="0 0 100 100" style="enable-background:new 0 0 100 100;" xml:space="preserve">
<style type="text/css">
	.st0{fill:#F48156;}
	.st1{clip-path:url(#SVGID_00000106109214417745788830000017081887598263710896_);}
	.st2{clip-path:url(#SVGID_00000120542466840431671330000004204363837115326105_);}
	.st3{clip-path:url(#SVGID_00000082361433134879897850000006387195358663434657_);}
	.st4{clip-path:url(#SVGID_00000008839635843799467750000011222969401689863343_);}
	.st5{clip-path:url(#SVGID_00000165197469470933639100000017869103219447435423_);}
	.st6{fill:none;stroke:#FFFFFF;stroke-width:2.4167;stroke-linecap:round;stroke-linejoin:round;stroke-miterlimit:10;}
	.st7{clip-path:url(#SVGID_00000168087817075516866610000005398944706250624442_);}
	.st8{clip-path:url(#SVGID_00000096747415798864761430000007238966005584392127_);}
	.st9{fill:none;stroke:#FFFFFF;stroke-width:2.8808;stroke-linecap:round;stroke-linejoin:round;stroke-miterlimit:10;}
	.st10{fill:none;stroke:#F48156;stroke-miterlimit:10;}
	.st11{clip-path:url(#SVGID_00000118364689794097452870000010752456110008009610_);}
	.st12{fill:none;stroke:#FFFFFF;stroke-width:2.0613;stroke-linecap:round;stroke-linejoin:round;stroke-miterlimit:10;}
	.st13{clip-path:url(#SVGID_00000094602642047629404680000003347689392898244743_);}
	.st14{clip-path:url(#SVGID_00000083058508793325733130000017517921133094429060_);}
	.st15{fill:none;stroke:#FFFFFF;stroke-width:2.4572;stroke-linecap:round;stroke-linejoin:round;stroke-miterlimit:10;}
</style>
<g>
	<path class="st0" d="M125-31.4c0.9,0,1.6-0.7,1.6-1.6v-9.4c0-2.6,2.1-4.7,4.7-4.7c2.6,0,4.7,2.1,4.7,4.7v17.2
		c0,0.9,0.7,1.6,1.6,1.6c0.9,0,1.6-0.7,1.6-1.6v-25c0-2.6,2.1-4.7,4.7-4.7c2.6,0,4.7,2.1,4.7,4.7v10.9c0,0.9,0.7,1.6,1.6,1.6
		c0.9,0,1.6-0.7,1.6-1.6v-14c0-3-2-5.6-4.9-6.3l-0.8-0.2l-0.3-0.8c-0.8-2.2-2.9-3.7-5.2-3.7h-5.6c-2.3,0-4.4,1.5-5.2,3.7l-0.3,0.8
		l-0.8,0.2c-2.9,0.7-4.9,3.4-4.9,6.3v20.3C123.4-32.1,124.1-31.4,125-31.4"/>
	<path class="st0" d="M131.2-43.9c-0.9,0-1.6,0.7-1.6,1.6v9.4c0,1.6-0.8,3-2,3.8l-1,11.8h21.6l-1.5-18.5c-0.9-0.9-1.4-2.1-1.4-3.4
		v-10.9c0-0.9-0.7-1.6-1.6-1.6c-0.9,0-1.6,0.7-1.6,1.6v25c0,2.6-2.1,4.7-4.7,4.7c-2.6,0-4.7-2.1-4.7-4.7v-17.2
		C132.8-43.2,132.1-43.9,131.2-43.9"/>
	<path class="st0" d="M137.5-67.3c1.7,0,3.1-1.4,3.1-3.1s-1.4-3.1-3.1-3.1c-1.7,0-3.1,1.4-3.1,3.1S135.7-67.3,137.5-67.3"/>
	<path class="st0" d="M151.4-17.3h13.4l-4.4-27.5c-0.4-3.2-2.7-5.7-5.7-6.6v12.2c0,2.6-2.1,4.7-4.7,4.7L151.4-17.3"/>
	<path class="st0" d="M124.5-28.3c-2.3-0.3-4.2-2.2-4.2-4.6v-18.5c-3,0.8-5.3,3.4-5.7,6.6l-3.4,27.5h12.4L124.5-28.3"/>
	<g>
		<g>
			<defs>
				<rect id="SVGID_1_" x="118.8" y="13.5" width="37.3" height="3.5"/>
			</defs>
			<clipPath id="SVGID_00000088834021151181359320000012452683605968843146_">
				<use xlink:href="#SVGID_1_"  style="overflow:visible;"/>
			</clipPath>
		</g>
		<g>
			<defs>
				<rect id="SVGID_00000178927880861863136120000014868608803519287448_" x="118.8" y="13.5" width="37.3" height="3.5"/>
			</defs>
			<use xlink:href="#SVGID_00000178927880861863136120000014868608803519287448_"  style="overflow:visible;fill:#F48156;"/>
			<clipPath id="SVGID_00000123411294653287631490000016921853016649642940_">
				<use xlink:href="#SVGID_00000178927880861863136120000014868608803519287448_"  style="overflow:visible;"/>
			</clipPath>
			<g style="clip-path:url(#SVGID_00000123411294653287631490000016921853016649642940_);">
				<path class="st0" d="M151.5,13.9h-28.1c-2,0-3.8,1.3-4.4,3.1h36.9C155.3,15.2,153.5,13.9,151.5,13.9"/>
			</g>
		</g>
		<g>
			<defs>
				<rect id="SVGID_00000000199684742627574550000003625784529890195605_" x="118.8" y="13.5" width="37.3" height="3.5"/>
			</defs>
			<clipPath id="SVGID_00000042709773340276662190000007714351678623450501_">
				<use xlink:href="#SVGID_00000000199684742627574550000003625784529890195605_"  style="overflow:visible;"/>
			</clipPath>
		</g>
	</g>
	<g>
		<g>
			<defs>
				<rect id="SVGID_00000058566936388752850260000004476843857808641466_" x="107.9" y="-14.2" width="60.1" height="9.4"/>
			</defs>
			<clipPath id="SVGID_00000172410749438992683410000002203291099887118254_">
				<use xlink:href="#SVGID_00000058566936388752850260000004476843857808641466_"  style="overflow:visible;"/>
			</clipPath>
		</g>
		<g>
			<defs>
				<rect id="SVGID_00000175308653473617570960000011171018733380645771_" x="107.9" y="-14.2" width="60.1" height="9.4"/>
			</defs>
			<use xlink:href="#SVGID_00000175308653473617570960000011171018733380645771_"  style="overflow:visible;fill:#F48156;"/>
			<clipPath id="SVGID_00000093889453883338202820000004943167799733472144_">
				<use xlink:href="#SVGID_00000175308653473617570960000011171018733380645771_"  style="overflow:visible;"/>
			</clipPath>
			<g style="clip-path:url(#SVGID_00000093889453883338202820000004943167799733472144_);">
				<path class="st0" d="M167-11.1c0.5-1,0.8-2,1-3.1h-60.1c0.2,1.1,0.5,2.2,1,3.1h11.4v3.1h-9.2c2,1.9,4.7,3.1,7.6,3.1h37.4
					c3,0,6.7-1.2,8.6-3.1h-41.4v-3.1H167"/>
			</g>
		</g>
		<g>
			<defs>
				<rect id="SVGID_00000131357798846979738340000002796687657837461180_" x="107.9" y="-14.2" width="60.1" height="9.4"/>
			</defs>
			<clipPath id="SVGID_00000046307334908835950020000001030474999596073653_">
				<use xlink:href="#SVGID_00000131357798846979738340000002796687657837461180_"  style="overflow:visible;"/>
			</clipPath>
		</g>
	</g>
	<path class="st0" d="M134.3-1.7v12.5h6.2V-1.7H134.3"/>
</g>
<g>
	<defs>
		<rect id="SVGID_00000049929311269287253470000011276528642487158166_" x="11.7" y="42.5" width="71.4" height="49.9"/>
	</defs>
	<clipPath id="SVGID_00000065076419367770566930000009236541986593526424_">
		<use xlink:href="#SVGID_00000049929311269287253470000011276528642487158166_"  style="overflow:visible;"/>
	</clipPath>
	<g style="clip-path:url(#SVGID_00000065076419367770566930000009236541986593526424_);">
		<path class="st0" d="M82.6,43.3c-0.3-0.5-0.9-0.7-1.4-0.7H63.4c-1,0-1.8,0.8-1.8,1.8c0,6.9-5.6,12.5-12.5,12.5h-3.6
			c-6.9,0-12.5-5.6-12.5-12.5c0-1-0.8-1.8-1.8-1.8H13.6c-0.6,0-1.1,0.3-1.4,0.7c-0.3,0.5-0.4,1-0.3,1.6l12.7,41.2
			c1.2,3.8,4.6,6.3,8.5,6.3h28.6c3.9,0,7.3-2.5,8.5-6.3l12.7-41.2C83.1,44.4,83,43.8,82.6,43.3z"/>
	</g>
</g>
<path class="st0" d="M72.3,46.2c-0.1,0-0.2,0-0.3,0c-1-0.1-1.6-1-1.5-2l1.6-10.9l-3.6-0.9L67,44.6c-0.1,1-1,1.6-2,1.5
	c-1-0.1-1.7-1-1.5-2l1.8-14.2c0.1-0.5,0.3-1,0.8-1.2c0.4-0.3,0.9-0.4,1.4-0.3l7.1,1.8c0.9,0.2,1.5,1.1,1.3,2l-1.8,12.5
	C73.9,45.5,73.2,46.2,72.3,46.2z"/>
<path class="st0" d="M50.9,58.6C50.9,58.6,50.9,58.6,50.9,58.6c-1.1-0.1-1.8-0.9-1.8-1.9l1.8-33.8c0.1-0.9,0.8-1.7,1.8-1.7h7.1
	c0.5,0,1,0.2,1.3,0.6c0.3,0.4,0.5,0.8,0.5,1.3l-1.8,32c-0.1,1-0.9,1.7-1.9,1.7c-1-0.1-1.7-0.9-1.7-1.9L58,24.8h-3.5l-1.7,32.1
	C52.7,57.9,51.9,58.6,50.9,58.6z"/>
<path class="st0" d="M15.3,46.2c-0.9,0-1.6-0.6-1.8-1.5L10,23.3c-0.2-0.9,0.5-1.8,1.4-2l8.9-1.8c0.5-0.1,1,0,1.4,0.3
	c0.4,0.3,0.7,0.7,0.7,1.2l1.8,10.7c0.2,1-0.5,1.9-1.5,2c-1,0.2-1.9-0.5-2-1.5l-1.5-8.9l-5.4,1.1l3.3,19.7c0.2,1-0.5,1.9-1.5,2
	C15.5,46.1,15.4,46.2,15.3,46.2z"/>
<path class="st0" d="M24.2,46.2c-0.9,0-1.6-0.6-1.8-1.5l-1.8-12.5c-0.1-0.9,0.4-1.8,1.3-2l5.7-1.4l-1.5-12.4l-3.8,1v3.9
	c0,1-0.8,1.8-1.8,1.8c-1,0-1.8-0.8-1.8-1.8v-5.3c0-0.8,0.6-1.5,1.3-1.7l7.1-1.8c0.5-0.1,1,0,1.4,0.3c0.4,0.3,0.7,0.7,0.8,1.3
	l3.6,30.3c0.1,1-0.6,1.9-1.6,2c-1,0.1-1.9-0.6-2-1.5l-1.5-12.2l-3.6,0.9L26,44.1c0.1,1-0.5,1.9-1.5,2C24.4,46.2,24.3,46.2,24.2,46.2
	z"/>
<path class="st0" d="M38.5,24.8c-0.8,0-1.5-0.5-1.7-1.3l-3-10.4l-5.2,2.6c-0.9,0.4-1.9,0.1-2.4-0.8c1.3-3.5,0.8-3.3,0.8-2.4L34.1,9
	c0.5-0.2,1-0.3,1.5,0c0.5,0.2,0.9,0.6,1,1.1l3.6,12.5c0.3,0.9-0.3,1.9-1.2,2.2C38.8,24.8,38.6,24.8,38.5,24.8z"/>
<g>
	<defs>
		<rect id="SVGID_00000183223150553919191640000014227829778367449990_" x="34.7" y="7" width="16.5" height="53.5"/>
	</defs>
	<clipPath id="SVGID_00000092443258293772599900000014957531129433963704_">
		<use xlink:href="#SVGID_00000183223150553919191640000014227829778367449990_"  style="overflow:visible;"/>
	</clipPath>
	<g style="clip-path:url(#SVGID_00000092443258293772599900000014957531129433963704_);">
		<g>
			<path class="st0" d="M45.6,60.4C45.6,60.4,45.6,60.4,45.6,60.4c-1,0-1.7-0.8-1.8-1.7l-1.7-33.9h-1.8c0,0,0,0-0.1,0h-1.7l1.7,31.9
				c0.1,1-0.7,1.8-1.7,1.9c-1,0-1.8-0.7-1.9-1.7l-1.8-33.8c0-0.5,0.2-1,0.5-1.3c0.3-0.4,0.8-0.6,1.3-0.6h2l1.6-12.7
				C40.4,7.7,41.1,7,42,7h7.1c0.5,0,1,0.2,1.3,0.6c0.3,0.4,0.5,0.8,0.5,1.3l-3.6,49.8C47.3,59.7,46.5,60.4,45.6,60.4z M42.3,21.2
				h1.5c1,0,1.7,0.7,1.8,1.7l0.3,6.3l1.3-18.7h-3.6L42.3,21.2z"/>
		</g>
	</g>
</g>
<path class="st0" d="M56.3,24.8c-1,0-1.8-0.8-1.8-1.8v-8.9h-5.3c-1,0-1.8-0.8-1.8-1.8c0-1,0.8-1.8,1.8-1.8h7.1c1,0,1.8,0.8,1.8,1.8
	V23C58.1,24,57.3,24.8,56.3,24.8z"/>
<path class="st0" d="M63.4,46.2c-0.1,0-0.2,0-0.3,0c-1-0.1-1.6-1-1.5-2L65,20.9l-9-1.5c-1-0.2-1.6-1.1-1.5-2c0.2-1,1.1-1.6,2-1.5
	l10.7,1.8c1,0.2,1.6,1,1.5,2l-3.6,24.9C65,45.5,64.3,46.2,63.4,46.2z"/>
<path class="st0" d="M77.6,46.2c-0.2,0-0.4,0-0.6-0.1c-0.9-0.3-1.4-1.3-1.1-2.2l6.6-19.9l-4.1-2.1l-4.5,9.1
	c-0.4,0.9-1.5,1.2-2.4,0.8c-0.9-0.4-1.2-1.5-0.8-2.4l5.3-10.7c0.4-0.9,1.5-1.2,2.4-0.8l7.1,3.6c0.8,0.4,1.2,1.3,0.9,2.2l-7.1,21.4
	C79.1,45.7,78.4,46.2,77.6,46.2z"/>
<path class="st0" d="M74.1,28.4c-1,0-1.8-0.8-1.8-1.8V14.1h-3.6v5.3c0,1-0.8,1.8-1.8,1.8c-1,0-1.8-0.8-1.8-1.8v-7.1
	c0-1,0.8-1.8,1.8-1.8h7.1c1,0,1.8,0.8,1.8,1.8v14.2C75.9,27.6,75.1,28.4,74.1,28.4z"/>
<path class="st0" d="M194.2,98.5V47.8h-28.3v51h0c0,0,0,0.1,0,0.1c0,1.6,6.4,2.9,14.2,2.9c7.9,0,14.2-1.3,14.2-2.9
	C194.3,98.8,194.3,98.7,194.2,98.5"/>
<g>
	<defs>
		<rect id="SVGID_00000033367202879809564050000013805954822338731445_" x="165.1" y="46.7" width="29.9" height="55.8"/>
	</defs>
	<clipPath id="SVGID_00000178899746947627589410000005161108136243537289_">
		<use xlink:href="#SVGID_00000033367202879809564050000013805954822338731445_"  style="overflow:visible;"/>
	</clipPath>
	<g style="clip-path:url(#SVGID_00000178899746947627589410000005161108136243537289_);">
		<path class="st6" d="M194.2,98.5V47.8h-28.3v51h0c0,0,0,0.1,0,0.1c0,1.6,6.4,2.9,14.2,2.9c7.9,0,14.2-1.3,14.2-2.9
			C194.3,98.8,194.3,98.7,194.2,98.5z"/>
	</g>
</g>
<path class="st0" d="M176.4,56.6c0.2,0,0.4,0,0.6,0c0.6,0,1.2,0.1,1.7,0.4c0.4,0.3,0.6,0.7,0.8,1.2c0.5,1.3,0.6,2.8,1.5,4
	c0.8,1.2,2.7,1.8,3.6,0.7c0.4-0.5,0.6-1.2,0.7-1.8c0.3-1.2,0.6-2.4,1.1-3.5c0.4-0.9,1.4-2,2.2-1.4c0.3,0.2,0.4,0.6,0.6,0.9
	c0.8,1.2,2.9,1.3,4.1,0.5c1.1-0.8,1-2,1-3.2c0-0.5,0-6.6,0-6.6h-28.3c0,2.1-0.4,4.7,0,6.8C166.5,57.7,173.4,56.7,176.4,56.6"/>
<path class="st6" d="M176.4,56.6c0.2,0,0.4,0,0.6,0c0.6,0,1.2,0.1,1.7,0.4c0.4,0.3,0.6,0.7,0.8,1.2c0.5,1.3,0.6,2.8,1.5,4
	c0.8,1.2,2.7,1.8,3.6,0.7c0.4-0.5,0.6-1.2,0.7-1.8c0.3-1.2,0.6-2.4,1.1-3.5c0.4-0.9,1.4-2,2.2-1.4c0.3,0.2,0.4,0.6,0.6,0.9
	c0.8,1.2,2.9,1.3,4.1,0.5c1.1-0.8,1-2,1-3.2c0-0.5,0-6.6,0-6.6h-28.3c0,2.1-0.4,4.7,0,6.8C166.5,57.7,173.4,56.7,176.4,56.6z"/>
<path class="st0" d="M194.3,47.8c0,1.6-6.4,2.9-14.2,2.9c-7.9,0-14.2-1.3-14.2-2.9c0-1.6,6.4-2.9,14.2-2.9
	C188,44.9,194.3,46.2,194.3,47.8"/>
<g>
	<defs>
		<rect id="SVGID_00000160190083921479440690000012041006271207453845_" x="165.1" y="44" width="29.9" height="7.6"/>
	</defs>
	<clipPath id="SVGID_00000072247420264579978390000014278165596607151031_">
		<use xlink:href="#SVGID_00000160190083921479440690000012041006271207453845_"  style="overflow:visible;"/>
	</clipPath>
	<g style="clip-path:url(#SVGID_00000072247420264579978390000014278165596607151031_);">
		<path class="st6" d="M194.3,47.8c0,1.6-6.4,2.9-14.2,2.9c-7.9,0-14.2-1.3-14.2-2.9c0-1.6,6.4-2.9,14.2-2.9
			C188,44.9,194.3,46.2,194.3,47.8z"/>
	</g>
</g>
<path class="st0" d="M186.6,37.4c0,3.6-2.9,6.6-6.6,6.6c-3.6,0-6.6-2.9-6.6-6.6s6.6-15.2,6.6-15.2S186.6,33.8,186.6,37.4"/>
<g>
	<defs>
		<rect id="SVGID_00000103239459822133336950000012015019876311745926_" x="172.2" y="21.4" width="15.2" height="23.7"/>
	</defs>
	<clipPath id="SVGID_00000036965594137501211180000002036654103393141892_">
		<use xlink:href="#SVGID_00000103239459822133336950000012015019876311745926_"  style="overflow:visible;"/>
	</clipPath>
	<g style="clip-path:url(#SVGID_00000036965594137501211180000002036654103393141892_);">
		<path class="st9" d="M186.6,37.4c0,3.6-2.9,6.6-6.6,6.6s-6.6-2.9-6.6-6.6s6.6-15.2,6.6-15.2S186.6,33.8,186.6,37.4z"/>
	</g>
</g>
<path class="st10" d="M183.3,39c0,1.8-1.5,3.3-3.3,3.3s-3.3-1.5-3.3-3.3c0-1.8,3.3-7.6,3.3-7.6S183.3,37.2,183.3,39"/>
<path class="st10" d="M180.1,47.6V36.8"/>
<path class="st0" d="M165.7,98.2V54.9h-24.1v43.5h0c0,0,0,0.1,0,0.1c0,1.4,5.4,2.5,12.1,2.5c6.7,0,12.1-1.1,12.1-2.5
	C165.8,98.4,165.8,98.3,165.7,98.2"/>
<g>
	<defs>
		<rect id="SVGID_00000125600327717993154360000017752446371010760633_" x="140.8" y="54.4" width="25.9" height="47.3"/>
	</defs>
	<clipPath id="SVGID_00000129163741030315838800000014231336133560963514_">
		<use xlink:href="#SVGID_00000125600327717993154360000017752446371010760633_"  style="overflow:visible;"/>
	</clipPath>
	<g style="clip-path:url(#SVGID_00000129163741030315838800000014231336133560963514_);">
		<path class="st12" d="M165.7,98.2V54.9h-24.1v43.5h0c0,0,0,0.1,0,0.1c0,1.4,5.4,2.5,12.1,2.5c6.7,0,12.1-1.1,12.1-2.5
			C165.8,98.4,165.8,98.3,165.7,98.2z"/>
	</g>
</g>
<path class="st0" d="M150.5,62.4c0.2,0,0.4,0,0.5,0c0.5,0,1,0.1,1.4,0.4c0.3,0.3,0.5,0.6,0.6,1c0.4,1.1,0.6,2.4,1.2,3.4
	c0.7,1,2.3,1.5,3.1,0.6c0.4-0.4,0.5-1,0.6-1.5c0.2-1,0.5-2,0.9-3c0.3-0.8,1.2-1.7,1.9-1.2c0.3,0.2,0.4,0.5,0.6,0.8
	c0.7,1,2.5,1.1,3.5,0.4c0.9-0.6,0.8-1.7,0.8-2.7c0-0.4,0-5.7,0-5.7h-24.1c0,1.8-0.4,4,0,5.8C142.1,63.3,147.9,62.5,150.5,62.4"/>
<g>
	<defs>
		<rect id="SVGID_00000133516237282198616150000015401493062976066233_" x="140.8" y="54.4" width="25.9" height="14.7"/>
	</defs>
	<clipPath id="SVGID_00000031909117074634523500000008966337348425149316_">
		<use xlink:href="#SVGID_00000133516237282198616150000015401493062976066233_"  style="overflow:visible;"/>
	</clipPath>
	<g style="clip-path:url(#SVGID_00000031909117074634523500000008966337348425149316_);">
		<path class="st12" d="M150.5,62.4c0.2,0,0.4,0,0.5,0c0.5,0,1,0.1,1.4,0.4c0.3,0.3,0.5,0.6,0.6,1c0.4,1.1,0.6,2.4,1.2,3.4
			c0.7,1,2.3,1.5,3.1,0.6c0.4-0.4,0.5-1,0.6-1.5c0.2-1,0.5-2,0.9-3c0.3-0.8,1.2-1.7,1.9-1.2c0.3,0.2,0.4,0.5,0.6,0.8
			c0.7,1,2.5,1.1,3.5,0.4c0.9-0.6,0.8-1.7,0.8-2.7c0-0.4,0-5.7,0-5.7h-24.1c0,1.8-0.4,4,0,5.8C142.1,63.3,147.9,62.5,150.5,62.4z"/>
	</g>
</g>
<path class="st0" d="M165.8,54.9c0,1.4-5.4,2.5-12.1,2.5c-6.7,0-12.1-1.1-12.1-2.5c0-1.4,5.4-2.5,12.1-2.5
	C160.4,52.4,165.8,53.5,165.8,54.9"/>
<g>
	<defs>
		<rect id="SVGID_00000017494921272828586370000000773261510144828557_" x="140.8" y="51.6" width="25.9" height="6.5"/>
	</defs>
	<clipPath id="SVGID_00000070831346474293732920000009639093870147734169_">
		<use xlink:href="#SVGID_00000017494921272828586370000000773261510144828557_"  style="overflow:visible;"/>
	</clipPath>
	<g style="clip-path:url(#SVGID_00000070831346474293732920000009639093870147734169_);">
		<path class="st12" d="M165.8,54.9c0,1.4-5.4,2.5-12.1,2.5c-6.7,0-12.1-1.1-12.1-2.5c0-1.4,5.4-2.5,12.1-2.5
			C160.4,52.4,165.8,53.5,165.8,54.9z"/>
	</g>
</g>
<path class="st0" d="M159.2,46.1c0,3.1-2.5,5.6-5.6,5.6c-3.1,0-5.6-2.5-5.6-5.6s5.6-12.9,5.6-12.9S159.2,43,159.2,46.1"/>
<path class="st15" d="M159.2,46.1c0,3.1-2.5,5.6-5.6,5.6c-3.1,0-5.6-2.5-5.6-5.6c0-3.1,5.6-13,5.6-13S159.2,43,159.2,46.1z"/>
<path class="st0" d="M156.4,47.5c0,1.5-1.3,2.8-2.8,2.8c-1.5,0-2.8-1.3-2.8-2.8c0-1.5,2.8-6.5,2.8-6.5S156.4,45.9,156.4,47.5"/>
<path class="st10" d="M153.7,54.7v-9.2"/>
</svg>
