<?xml version="1.0" encoding="utf-8"?>
<!-- Generator: Adobe Illustrator 26.0.1, SVG Export Plug-In . SVG Version: 6.00 Build 0)  -->
<svg version="1.1" id="Capa_1" xmlns="http://www.w3.org/2000/svg" xmlns:xlink="http://www.w3.org/1999/xlink" x="0px" y="0px"
	 viewBox="0 0 100 100" style="enable-background:new 0 0 100 100;" xml:space="preserve">
<style type="text/css">
	.st0{clip-path:url(#SVGID_00000004529851408574854240000003081975074056130741_);}
	.st1{fill:#F48156;}
</style>
<g>
	<defs>
		<rect id="SVGID_1_" x="72.9" y="17.2" width="14.2" height="66.6"/>
	</defs>
	<clipPath id="SVGID_00000060753002497102130030000016613730875852145330_">
		<use xlink:href="#SVGID_1_"  style="overflow:visible;"/>
	</clipPath>
	<g style="clip-path:url(#SVGID_00000060753002497102130030000016613730875852145330_);">
		<g>
			<path class="st1" d="M84.1,17.7C77.1,23.6,73,32.3,73,41.5v16.1c0,0.5,0.2,0.9,0.5,1.2l3,3v16.8c0,2.9,2.4,5.2,5.2,5.2
				c2.9,0,5.2-2.4,5.2-5.2V19.1C87.1,18.1,85.7,16.6,84.1,17.7z"/>
		</g>
	</g>
</g>
<path class="st1" d="M48.6,43.5c-1,0-1.7-0.8-1.7-1.7c0-2.3-3.5-2.3-3.5,0c0.3,2.7-1.6,5.3-4.4,5.2c-2.4,0-4.4-2-4.4-4.4v-4.4
	c0-2.3-3.5-2.3-3.5,0V61c0,2.3,3.5,2.3,3.5,0c-0.3-2.7,1.6-5.3,4.4-5.2c2.4,0,4.4,2,4.4,4.4v4.4c0,2.3,3.5,2.3,3.5,0v-1.7
	c0-1,0.8-1.7,1.7-1.7c1.9,0,3.5-1.6,3.5-3.5V47C52.1,45.1,50.5,43.5,48.6,43.5z"/>
<path class="st1" d="M62.6,20.8H20.6C10.1,21,8.7,35.9,18.9,38.1v40.4c0,1,0.8,1.7,1.7,1.7h41.9c1,0,1.7-0.8,1.7-1.7V38.1
	C74.4,35.9,73.1,21,62.6,20.8z M55.6,57.5c0,3.3-2.1,6-5.2,6.8c0.2,3-2.4,5.5-5.2,5.5c-2.9,0-5.2-2.4-5.2-5.2v-4.4
	c0-1.1-1.7-1.1-1.7,0c0.7,7.5-10.1,8.4-10.5,0.9V38.3c0.2-6.9,10.3-6.9,10.5,0v4.4c0,0.5,0.4,0.9,0.9,0.9c1,0,0.9-1,0.9-1.7
	c0-5.9,8.5-7.2,10.2-1.6c3.1,0.7,5.5,3.5,5.5,6.8V57.5z"/>
</svg>
