<?xml version="1.0" encoding="utf-8"?>
<!-- Generator: Adobe Illustrator 26.0.1, SVG Export Plug-In . SVG Version: 6.00 Build 0)  -->
<svg version="1.1" id="Capa_1" xmlns="http://www.w3.org/2000/svg" xmlns:xlink="http://www.w3.org/1999/xlink" x="0px" y="0px"
	 viewBox="0 0 100 100" style="enable-background:new 0 0 100 100;" xml:space="preserve">
<style type="text/css">
	.st0{fill:#F48156;}
	.st1{clip-path:url(#SVGID_00000096048240078901019870000012470724755763848101_);}
	.st2{clip-path:url(#SVGID_00000149369441737241532780000004246363942566777524_);}
	.st3{clip-path:url(#SVGID_00000007409777698593774090000011645393696056957615_);}
	.st4{clip-path:url(#SVGID_00000155106898568399782700000001734731972570561666_);}
	.st5{clip-path:url(#SVGID_00000150820288698396697450000013149181621272092333_);}
	.st6{fill:none;stroke:#FFFFFF;stroke-width:2.4167;stroke-linecap:round;stroke-linejoin:round;stroke-miterlimit:10;}
	.st7{clip-path:url(#SVGID_00000006699483275257954240000004777825942622299535_);}
	.st8{clip-path:url(#SVGID_00000065076694932549032820000003593267850280998290_);}
	.st9{fill:none;stroke:#FFFFFF;stroke-width:2.8808;stroke-linecap:round;stroke-linejoin:round;stroke-miterlimit:10;}
	.st10{fill:none;stroke:#F48156;stroke-miterlimit:10;}
	.st11{clip-path:url(#SVGID_00000158711725342745147980000013520675779879789197_);}
	.st12{fill:none;stroke:#FFFFFF;stroke-width:2.0613;stroke-linecap:round;stroke-linejoin:round;stroke-miterlimit:10;}
	.st13{clip-path:url(#SVGID_00000029732340011671278720000013690915299044022177_);}
	.st14{clip-path:url(#SVGID_00000169534659017515807650000015423561254546620349_);}
	.st15{fill:none;stroke:#FFFFFF;stroke-width:2.4572;stroke-linecap:round;stroke-linejoin:round;stroke-miterlimit:10;}
	.st16{clip-path:url(#SVGID_00000047773690916929226120000013805315638734853521_);}
	.st17{clip-path:url(#SVGID_00000026165041894499702770000006069831558366510774_);}
	.st18{clip-path:url(#SVGID_00000077323250062715768980000002934393999080274314_);}
	.st19{clip-path:url(#SVGID_00000132066646217381586300000014454288998726266286_);}
	.st20{clip-path:url(#SVGID_00000115497343246500958070000007747863224802167708_);}
	.st21{clip-path:url(#SVGID_00000075848409285084318220000010603100336740192387_);}
	.st22{clip-path:url(#SVGID_00000142153693074099135270000012551753440727309450_);}
	.st23{clip-path:url(#SVGID_00000039099492230781385590000011972715994355583675_);}
	.st24{clip-path:url(#SVGID_00000153702752098168560100000016900061835896361644_);}
	.st25{clip-path:url(#SVGID_00000153690270022088032160000011289862138745412018_);}
	.st26{clip-path:url(#SVGID_00000065048631549141140060000003747239489374678149_);}
	.st27{clip-path:url(#SVGID_00000163066304419571462290000016512977548269316517_);}
	.st28{clip-path:url(#SVGID_00000018949304909020121450000007904931143359872661_);}
</style>
<g>
	<path class="st0" d="M108-74.4c0.9,0,1.6-0.7,1.6-1.6v-9.4c0-2.6,2.1-4.7,4.7-4.7c2.6,0,4.7,2.1,4.7,4.7v17.2
		c0,0.9,0.7,1.6,1.6,1.6c0.9,0,1.6-0.7,1.6-1.6v-25c0-2.6,2.1-4.7,4.7-4.7c2.6,0,4.7,2.1,4.7,4.7v10.9c0,0.9,0.7,1.6,1.6,1.6
		c0.9,0,1.6-0.7,1.6-1.6v-14c0-3-2-5.6-4.9-6.3l-0.8-0.2l-0.3-0.8c-0.8-2.2-2.9-3.7-5.2-3.7h-5.6c-2.3,0-4.4,1.5-5.2,3.7l-0.3,0.8
		l-0.8,0.2c-2.9,0.7-4.9,3.4-4.9,6.3v20.3C106.4-75.1,107.1-74.4,108-74.4"/>
	<path class="st0" d="M114.2-86.9c-0.9,0-1.6,0.7-1.6,1.6v9.4c0,1.6-0.8,3-2,3.8l-1,11.8h21.6l-1.5-18.5c-0.9-0.9-1.4-2.1-1.4-3.4
		v-10.9c0-0.9-0.7-1.6-1.6-1.6c-0.9,0-1.6,0.7-1.6,1.6v25c0,2.6-2.1,4.7-4.7,4.7c-2.6,0-4.7-2.1-4.7-4.7v-17.2
		C115.8-86.2,115.1-86.9,114.2-86.9"/>
	<path class="st0" d="M120.5-110.3c1.7,0,3.1-1.4,3.1-3.1s-1.4-3.1-3.1-3.1c-1.7,0-3.1,1.4-3.1,3.1S118.7-110.3,120.5-110.3"/>
	<path class="st0" d="M134.4-60.3h13.4l-4.4-27.5c-0.4-3.2-2.7-5.7-5.7-6.6v12.2c0,2.6-2.1,4.7-4.7,4.7L134.4-60.3"/>
	<path class="st0" d="M107.5-71.3c-2.3-0.3-4.2-2.2-4.2-4.6v-18.5c-3,0.8-5.3,3.4-5.7,6.6l-3.4,27.5h12.4L107.5-71.3"/>
	<g>
		<g>
			<defs>
				<rect id="SVGID_1_" x="101.8" y="-29.5" width="37.3" height="3.5"/>
			</defs>
			<clipPath id="SVGID_00000069369011583920481980000009502793276460339383_">
				<use xlink:href="#SVGID_1_"  style="overflow:visible;"/>
			</clipPath>
		</g>
		<g>
			<defs>
				<rect id="SVGID_00000178927880861863136120000014868608803519287448_" x="101.8" y="-29.5" width="37.3" height="3.5"/>
			</defs>
			<use xlink:href="#SVGID_00000178927880861863136120000014868608803519287448_"  style="overflow:visible;fill:#F48156;"/>
			<clipPath id="SVGID_00000016066922592702156240000014703547029282453661_">
				<use xlink:href="#SVGID_00000178927880861863136120000014868608803519287448_"  style="overflow:visible;"/>
			</clipPath>
			<g style="clip-path:url(#SVGID_00000016066922592702156240000014703547029282453661_);">
				<path class="st0" d="M134.5-29.1h-28.1c-2,0-3.8,1.3-4.4,3.1h36.9C138.3-27.8,136.5-29.1,134.5-29.1"/>
			</g>
		</g>
		<g>
			<defs>
				<rect id="SVGID_00000000199684742627574550000003625784529890195605_" x="101.8" y="-29.5" width="37.3" height="3.5"/>
			</defs>
			<clipPath id="SVGID_00000081606886026713556140000000116368998950339742_">
				<use xlink:href="#SVGID_00000000199684742627574550000003625784529890195605_"  style="overflow:visible;"/>
			</clipPath>
		</g>
	</g>
	<g>
		<g>
			<defs>
				<rect id="SVGID_00000058566936388752850260000004476843857808641466_" x="90.9" y="-57.2" width="60.1" height="9.4"/>
			</defs>
			<clipPath id="SVGID_00000162328419550156912000000017030932423358108339_">
				<use xlink:href="#SVGID_00000058566936388752850260000004476843857808641466_"  style="overflow:visible;"/>
			</clipPath>
		</g>
		<g>
			<defs>
				<rect id="SVGID_00000175308653473617570960000011171018733380645771_" x="90.9" y="-57.2" width="60.1" height="9.4"/>
			</defs>
			<use xlink:href="#SVGID_00000175308653473617570960000011171018733380645771_"  style="overflow:visible;fill:#F48156;"/>
			<clipPath id="SVGID_00000089554356930447678200000003042762064793652404_">
				<use xlink:href="#SVGID_00000175308653473617570960000011171018733380645771_"  style="overflow:visible;"/>
			</clipPath>
			<g style="clip-path:url(#SVGID_00000089554356930447678200000003042762064793652404_);">
				<path class="st0" d="M150-54.1c0.5-1,0.8-2,1-3.1H90.9c0.2,1.1,0.5,2.2,1,3.1h11.4v3.1h-9.2c2,1.9,4.7,3.1,7.6,3.1h37.4
					c3,0,6.7-1.2,8.6-3.1h-41.4v-3.1H150"/>
			</g>
		</g>
		<g>
			<defs>
				<rect id="SVGID_00000131357798846979738340000002796687657837461180_" x="90.9" y="-57.2" width="60.1" height="9.4"/>
			</defs>
			<clipPath id="SVGID_00000052087474428989914470000011524144075966197415_">
				<use xlink:href="#SVGID_00000131357798846979738340000002796687657837461180_"  style="overflow:visible;"/>
			</clipPath>
		</g>
	</g>
	<path class="st0" d="M117.3-44.7v12.5h6.2v-12.5H117.3"/>
</g>
<g>
	<defs>
		<rect id="SVGID_00000024685338820904892210000014289201910054301080_" x="188.7" y="-12.5" width="71.4" height="49.9"/>
	</defs>
	<clipPath id="SVGID_00000078040664894489307660000016199669670238636687_">
		<use xlink:href="#SVGID_00000024685338820904892210000014289201910054301080_"  style="overflow:visible;"/>
	</clipPath>
	<g style="clip-path:url(#SVGID_00000078040664894489307660000016199669670238636687_);">
		<path class="st0" d="M259.6-11.7c-0.3-0.5-0.9-0.7-1.4-0.7h-17.8c-1,0-1.8,0.8-1.8,1.8c0,6.9-5.6,12.5-12.5,12.5h-3.6
			c-6.9,0-12.5-5.6-12.5-12.5c0-1-0.8-1.8-1.8-1.8h-17.8c-0.6,0-1.1,0.3-1.4,0.7c-0.3,0.5-0.4,1-0.3,1.6l12.7,41.2
			c1.2,3.8,4.6,6.3,8.5,6.3h28.6c3.9,0,7.3-2.5,8.5-6.3l12.7-41.2C260.1-10.6,260-11.2,259.6-11.7z"/>
	</g>
</g>
<path class="st0" d="M249.3-8.8c-0.1,0-0.2,0-0.3,0c-1-0.1-1.6-1-1.5-2l1.6-10.9l-3.6-0.9L244-10.4c-0.1,1-1,1.6-2,1.5
	c-1-0.1-1.7-1-1.5-2l1.8-14.2c0.1-0.5,0.3-1,0.8-1.2c0.4-0.3,0.9-0.4,1.4-0.3l7.1,1.8c0.9,0.2,1.5,1.1,1.3,2l-1.8,12.5
	C250.9-9.5,250.2-8.8,249.3-8.8z"/>
<path class="st0" d="M227.9,3.6C227.9,3.6,227.9,3.6,227.9,3.6c-1.1-0.1-1.8-0.9-1.8-1.9l1.8-33.8c0.1-0.9,0.8-1.7,1.8-1.7h7.1
	c0.5,0,1,0.2,1.3,0.6c0.3,0.4,0.5,0.8,0.5,1.3l-1.8,32c-0.1,1-0.9,1.7-1.9,1.7c-1-0.1-1.7-0.9-1.7-1.9l1.7-30.2h-3.5l-1.7,32.1
	C229.7,2.9,228.9,3.6,227.9,3.6z"/>
<path class="st0" d="M192.3-8.8c-0.9,0-1.6-0.6-1.8-1.5L187-31.7c-0.2-0.9,0.5-1.8,1.4-2l8.9-1.8c0.5-0.1,1,0,1.4,0.3
	c0.4,0.3,0.7,0.7,0.7,1.2l1.8,10.7c0.2,1-0.5,1.9-1.5,2c-1,0.2-1.9-0.5-2-1.5l-1.5-8.9l-5.4,1.1l3.3,19.7c0.2,1-0.5,1.9-1.5,2
	C192.5-8.9,192.4-8.8,192.3-8.8z"/>
<path class="st0" d="M201.2-8.8c-0.9,0-1.6-0.6-1.8-1.5l-1.8-12.5c-0.1-0.9,0.4-1.8,1.3-2l5.7-1.4l-1.5-12.4l-3.8,1v3.9
	c0,1-0.8,1.8-1.8,1.8c-1,0-1.8-0.8-1.8-1.8v-5.3c0-0.8,0.6-1.5,1.3-1.7l7.1-1.8c0.5-0.1,1,0,1.4,0.3c0.4,0.3,0.7,0.7,0.8,1.3
	l3.6,30.3c0.1,1-0.6,1.9-1.6,2c-1,0.1-1.9-0.6-2-1.5l-1.5-12.2l-3.6,0.9l1.6,10.9c0.1,1-0.5,1.9-1.5,2
	C201.4-8.8,201.3-8.8,201.2-8.8z"/>
<path class="st0" d="M215.5-30.2c-0.8,0-1.5-0.5-1.7-1.3l-3-10.4l-5.2,2.6c-0.9,0.4-1.9,0.1-2.4-0.8c1.3-3.5,0.8-3.3,0.8-2.4
	l7.1-3.6c0.5-0.2,1-0.3,1.5,0c0.5,0.2,0.9,0.6,1,1.1l3.6,12.5c0.3,0.9-0.3,1.9-1.2,2.2C215.8-30.2,215.6-30.2,215.5-30.2z"/>
<g>
	<defs>
		<rect id="SVGID_00000055698188498246921460000005504023075760362626_" x="211.7" y="-48" width="16.5" height="53.5"/>
	</defs>
	<clipPath id="SVGID_00000142875295166138206140000016371809005383159966_">
		<use xlink:href="#SVGID_00000055698188498246921460000005504023075760362626_"  style="overflow:visible;"/>
	</clipPath>
	<g style="clip-path:url(#SVGID_00000142875295166138206140000016371809005383159966_);">
		<g>
			<path class="st0" d="M222.6,5.4C222.6,5.4,222.6,5.4,222.6,5.4c-1,0-1.7-0.8-1.8-1.7l-1.7-33.9h-1.8c0,0,0,0-0.1,0h-1.7l1.7,31.9
				c0.1,1-0.7,1.8-1.7,1.9c-1,0-1.8-0.7-1.9-1.7l-1.8-33.8c0-0.5,0.2-1,0.5-1.3c0.3-0.4,0.8-0.6,1.3-0.6h2l1.6-12.7
				c0.1-0.9,0.9-1.6,1.8-1.6h7.1c0.5,0,1,0.2,1.3,0.6c0.3,0.4,0.5,0.8,0.5,1.3l-3.6,49.8C224.3,4.7,223.5,5.4,222.6,5.4z
				 M219.3-33.8h1.5c1,0,1.7,0.7,1.8,1.7l0.3,6.3l1.3-18.7h-3.6L219.3-33.8z"/>
		</g>
	</g>
</g>
<path class="st0" d="M233.3-30.2c-1,0-1.8-0.8-1.8-1.8v-8.9h-5.3c-1,0-1.8-0.8-1.8-1.8c0-1,0.8-1.8,1.8-1.8h7.1c1,0,1.8,0.8,1.8,1.8
	V-32C235.1-31,234.3-30.2,233.3-30.2z"/>
<path class="st0" d="M240.4-8.8c-0.1,0-0.2,0-0.3,0c-1-0.1-1.6-1-1.5-2l3.3-23.2l-9-1.5c-1-0.2-1.6-1.1-1.5-2s1.1-1.6,2-1.5
	l10.7,1.8c1,0.2,1.6,1,1.5,2l-3.6,24.9C242-9.5,241.3-8.8,240.4-8.8z"/>
<path class="st0" d="M254.6-8.8c-0.2,0-0.4,0-0.6-0.1c-0.9-0.3-1.4-1.3-1.1-2.2l6.6-19.9l-4.1-2.1l-4.5,9.1
	c-0.4,0.9-1.5,1.2-2.4,0.8c-0.9-0.4-1.2-1.5-0.8-2.4l5.3-10.7c0.4-0.9,1.5-1.2,2.4-0.8l7.1,3.6c0.8,0.4,1.2,1.3,0.9,2.2l-7.1,21.4
	C256.1-9.3,255.4-8.8,254.6-8.8z"/>
<path class="st0" d="M251.1-26.6c-1,0-1.8-0.8-1.8-1.8v-12.5h-3.6v5.3c0,1-0.8,1.8-1.8,1.8s-1.8-0.8-1.8-1.8v-7.1
	c0-1,0.8-1.8,1.8-1.8h7.1c1,0,1.8,0.8,1.8,1.8v14.2C252.9-27.4,252.1-26.6,251.1-26.6z"/>
<path class="st0" d="M194.2,98.5V47.8h-28.3v51h0c0,0,0,0.1,0,0.1c0,1.6,6.4,2.9,14.2,2.9c7.9,0,14.2-1.3,14.2-2.9
	C194.3,98.8,194.3,98.7,194.2,98.5"/>
<g>
	<defs>
		<rect id="SVGID_00000149368730385484867740000005391119173655416964_" x="165.1" y="46.7" width="29.9" height="55.8"/>
	</defs>
	<clipPath id="SVGID_00000078008606485517059260000015875797197631523244_">
		<use xlink:href="#SVGID_00000149368730385484867740000005391119173655416964_"  style="overflow:visible;"/>
	</clipPath>
	<g style="clip-path:url(#SVGID_00000078008606485517059260000015875797197631523244_);">
		<path class="st6" d="M194.2,98.5V47.8h-28.3v51h0c0,0,0,0.1,0,0.1c0,1.6,6.4,2.9,14.2,2.9c7.9,0,14.2-1.3,14.2-2.9
			C194.3,98.8,194.3,98.7,194.2,98.5z"/>
	</g>
</g>
<path class="st0" d="M176.4,56.6c0.2,0,0.4,0,0.6,0c0.6,0,1.2,0.1,1.7,0.4c0.4,0.3,0.6,0.7,0.8,1.2c0.5,1.3,0.6,2.8,1.5,4
	c0.8,1.2,2.7,1.8,3.6,0.7c0.4-0.5,0.6-1.2,0.7-1.8c0.3-1.2,0.6-2.4,1.1-3.5c0.4-0.9,1.4-2,2.2-1.4c0.3,0.2,0.4,0.6,0.6,0.9
	c0.8,1.2,2.9,1.3,4.1,0.5c1.1-0.8,1-2,1-3.2c0-0.5,0-6.6,0-6.6h-28.3c0,2.1-0.4,4.7,0,6.8C166.5,57.7,173.4,56.7,176.4,56.6"/>
<path class="st6" d="M176.4,56.6c0.2,0,0.4,0,0.6,0c0.6,0,1.2,0.1,1.7,0.4c0.4,0.3,0.6,0.7,0.8,1.2c0.5,1.3,0.6,2.8,1.5,4
	c0.8,1.2,2.7,1.8,3.6,0.7c0.4-0.5,0.6-1.2,0.7-1.8c0.3-1.2,0.6-2.4,1.1-3.5c0.4-0.9,1.4-2,2.2-1.4c0.3,0.2,0.4,0.6,0.6,0.9
	c0.8,1.2,2.9,1.3,4.1,0.5c1.1-0.8,1-2,1-3.2c0-0.5,0-6.6,0-6.6h-28.3c0,2.1-0.4,4.7,0,6.8C166.5,57.7,173.4,56.7,176.4,56.6z"/>
<path class="st0" d="M194.3,47.8c0,1.6-6.4,2.9-14.2,2.9c-7.9,0-14.2-1.3-14.2-2.9c0-1.6,6.4-2.9,14.2-2.9
	C188,44.9,194.3,46.2,194.3,47.8"/>
<g>
	<defs>
		<rect id="SVGID_00000045617447045437707190000000371168224622561454_" x="165.1" y="44" width="29.9" height="7.6"/>
	</defs>
	<clipPath id="SVGID_00000165912892323711741420000016406880636037116571_">
		<use xlink:href="#SVGID_00000045617447045437707190000000371168224622561454_"  style="overflow:visible;"/>
	</clipPath>
	<g style="clip-path:url(#SVGID_00000165912892323711741420000016406880636037116571_);">
		<path class="st6" d="M194.3,47.8c0,1.6-6.4,2.9-14.2,2.9c-7.9,0-14.2-1.3-14.2-2.9c0-1.6,6.4-2.9,14.2-2.9
			C188,44.9,194.3,46.2,194.3,47.8z"/>
	</g>
</g>
<path class="st0" d="M186.6,37.4c0,3.6-2.9,6.6-6.6,6.6c-3.6,0-6.6-2.9-6.6-6.6s6.6-15.2,6.6-15.2S186.6,33.8,186.6,37.4"/>
<g>
	<defs>
		<rect id="SVGID_00000075152722023223568660000013753154293982740123_" x="172.2" y="21.4" width="15.2" height="23.7"/>
	</defs>
	<clipPath id="SVGID_00000147918794078154392340000003164237869135199878_">
		<use xlink:href="#SVGID_00000075152722023223568660000013753154293982740123_"  style="overflow:visible;"/>
	</clipPath>
	<g style="clip-path:url(#SVGID_00000147918794078154392340000003164237869135199878_);">
		<path class="st9" d="M186.6,37.4c0,3.6-2.9,6.6-6.6,6.6s-6.6-2.9-6.6-6.6s6.6-15.2,6.6-15.2S186.6,33.8,186.6,37.4z"/>
	</g>
</g>
<path class="st10" d="M183.3,39c0,1.8-1.5,3.3-3.3,3.3s-3.3-1.5-3.3-3.3c0-1.8,3.3-7.6,3.3-7.6S183.3,37.2,183.3,39"/>
<path class="st10" d="M180.1,47.6V36.8"/>
<path class="st0" d="M165.7,98.2V54.9h-24.1v43.5h0c0,0,0,0.1,0,0.1c0,1.4,5.4,2.5,12.1,2.5c6.7,0,12.1-1.1,12.1-2.5
	C165.8,98.4,165.8,98.3,165.7,98.2"/>
<g>
	<defs>
		<rect id="SVGID_00000104664912697874754690000003046813246172484260_" x="140.8" y="54.4" width="25.9" height="47.3"/>
	</defs>
	<clipPath id="SVGID_00000139260089560437529250000006901621104802677672_">
		<use xlink:href="#SVGID_00000104664912697874754690000003046813246172484260_"  style="overflow:visible;"/>
	</clipPath>
	<g style="clip-path:url(#SVGID_00000139260089560437529250000006901621104802677672_);">
		<path class="st12" d="M165.7,98.2V54.9h-24.1v43.5h0c0,0,0,0.1,0,0.1c0,1.4,5.4,2.5,12.1,2.5c6.7,0,12.1-1.1,12.1-2.5
			C165.8,98.4,165.8,98.3,165.7,98.2z"/>
	</g>
</g>
<path class="st0" d="M150.5,62.4c0.2,0,0.4,0,0.5,0c0.5,0,1,0.1,1.4,0.4c0.3,0.3,0.5,0.6,0.6,1c0.4,1.1,0.6,2.4,1.2,3.4
	c0.7,1,2.3,1.5,3.1,0.6c0.4-0.4,0.5-1,0.6-1.5c0.2-1,0.5-2,0.9-3c0.3-0.8,1.2-1.7,1.9-1.2c0.3,0.2,0.4,0.5,0.6,0.8
	c0.7,1,2.5,1.1,3.5,0.4c0.9-0.6,0.8-1.7,0.8-2.7c0-0.4,0-5.7,0-5.7h-24.1c0,1.8-0.4,4,0,5.8C142.1,63.3,147.9,62.5,150.5,62.4"/>
<g>
	<defs>
		<rect id="SVGID_00000053510120634319863160000016449533144238283905_" x="140.8" y="54.4" width="25.9" height="14.7"/>
	</defs>
	<clipPath id="SVGID_00000006708774726906476020000012537263117985242274_">
		<use xlink:href="#SVGID_00000053510120634319863160000016449533144238283905_"  style="overflow:visible;"/>
	</clipPath>
	<g style="clip-path:url(#SVGID_00000006708774726906476020000012537263117985242274_);">
		<path class="st12" d="M150.5,62.4c0.2,0,0.4,0,0.5,0c0.5,0,1,0.1,1.4,0.4c0.3,0.3,0.5,0.6,0.6,1c0.4,1.1,0.6,2.4,1.2,3.4
			c0.7,1,2.3,1.5,3.1,0.6c0.4-0.4,0.5-1,0.6-1.5c0.2-1,0.5-2,0.9-3c0.3-0.8,1.2-1.7,1.9-1.2c0.3,0.2,0.4,0.5,0.6,0.8
			c0.7,1,2.5,1.1,3.5,0.4c0.9-0.6,0.8-1.7,0.8-2.7c0-0.4,0-5.7,0-5.7h-24.1c0,1.8-0.4,4,0,5.8C142.1,63.3,147.9,62.5,150.5,62.4z"/>
	</g>
</g>
<path class="st0" d="M165.8,54.9c0,1.4-5.4,2.5-12.1,2.5c-6.7,0-12.1-1.1-12.1-2.5c0-1.4,5.4-2.5,12.1-2.5
	C160.4,52.4,165.8,53.5,165.8,54.9"/>
<g>
	<defs>
		<rect id="SVGID_00000109713705175903023870000013716930820667697329_" x="140.8" y="51.6" width="25.9" height="6.5"/>
	</defs>
	<clipPath id="SVGID_00000090287681910255934960000007566046122270815128_">
		<use xlink:href="#SVGID_00000109713705175903023870000013716930820667697329_"  style="overflow:visible;"/>
	</clipPath>
	<g style="clip-path:url(#SVGID_00000090287681910255934960000007566046122270815128_);">
		<path class="st12" d="M165.8,54.9c0,1.4-5.4,2.5-12.1,2.5c-6.7,0-12.1-1.1-12.1-2.5c0-1.4,5.4-2.5,12.1-2.5
			C160.4,52.4,165.8,53.5,165.8,54.9z"/>
	</g>
</g>
<path class="st0" d="M159.2,46.1c0,3.1-2.5,5.6-5.6,5.6c-3.1,0-5.6-2.5-5.6-5.6s5.6-12.9,5.6-12.9S159.2,43,159.2,46.1"/>
<path class="st15" d="M159.2,46.1c0,3.1-2.5,5.6-5.6,5.6c-3.1,0-5.6-2.5-5.6-5.6c0-3.1,5.6-13,5.6-13S159.2,43,159.2,46.1z"/>
<path class="st0" d="M156.4,47.5c0,1.5-1.3,2.8-2.8,2.8c-1.5,0-2.8-1.3-2.8-2.8c0-1.5,2.8-6.5,2.8-6.5S156.4,45.9,156.4,47.5"/>
<path class="st10" d="M153.7,54.7v-9.2"/>
<g>
	<defs>
		<rect id="SVGID_00000003102195345501330680000010978656775241191590_" x="69.3" y="68.9" width="6.6" height="22"/>
	</defs>
	<clipPath id="SVGID_00000140708841133057561260000000899850978631010190_">
		<use xlink:href="#SVGID_00000003102195345501330680000010978656775241191590_"  style="overflow:visible;"/>
	</clipPath>
	<g style="clip-path:url(#SVGID_00000140708841133057561260000000899850978631010190_);">
		<g>
			<path class="st0" d="M75.5,73.8l-1.2-2.4c-0.2-0.4-0.2-1,0-1.4l0.4-0.9h-5.3v21.8h5.3l-0.4-0.9c-0.2-0.4-0.2-1,0-1.4l1.2-2.4
				l-1.2-2.4c-0.2-0.4-0.2-1,0-1.4l1.2-2.4l-1.2-2.4c-0.2-0.4-0.2-1,0-1.4L75.5,73.8"/>
		</g>
	</g>
</g>
<path class="st0" d="M69.5,31.8H47.7c-6,0-10.9,4.9-10.9,10.9v16.1l4-2c0.2-0.1,0.5-0.2,0.7-0.2h21.8c6,0,10.9-4.9,10.9-10.9V29.7
	l-4,2C70,31.8,69.7,31.8,69.5,31.8"/>
<path class="st0" d="M58.6,83.1c0,0.9-0.7,1.6-1.6,1.6H19.7c-0.9,0-1.6-0.7-1.6-1.6v-6.2c0-0.9,0.7-1.6,1.6-1.6h37.3
	c0.9,0,1.6,0.7,1.6,1.6V83.1z M61.7,72.3H15.1c-0.2,0-0.5-0.1-0.7-0.2l-4-2V90l4-2c0.2-0.1,0.5-0.2,0.7-0.2h46.6
	c0.2,0,0.5,0.1,0.7,0.2l4,2V70.1l-4,2C62.2,72.2,62,72.3,61.7,72.3"/>
<path class="st0" d="M77.3,45.8c0,7.7-6.3,14-14,14H41.9L36,62.8c-0.2,0.1-0.5,0.2-0.7,0.2c-0.3,0-0.6-0.1-0.8-0.2
	c-0.5-0.3-0.7-0.8-0.7-1.3V42.7c0-7.7,6.3-14,14-14h21.4l5.9-2.9c0.5-0.2,1.1-0.2,1.5,0.1c0.5,0.3,0.7,0.8,0.7,1.3V45.8z M78.6,66.8
	c0.3,0.5,0.3,1,0.1,1.5l-1.2,2.4l1.2,2.4c0.2,0.4,0.2,1,0,1.4l-0.4,0.9h9.1l-5.2-11.8c-0.1-0.2-0.1-0.4-0.1-0.6V22.5
	c0-0.3,0.1-0.5,0.2-0.8l4.9-8.6H24l4.9,8.6c0.1,0.2,0.2,0.5,0.2,0.8v40.4c0,0.2,0,0.4-0.1,0.6l-2.5,5.6h34.9l5.9-2.9c0,0,0,0,0.1,0
	c0,0,0.1,0,0.1,0c0.2-0.1,0.3-0.1,0.5-0.1c0,0,0,0,0.1,0h9.3C77.8,66,78.3,66.3,78.6,66.8"/>
<g>
	<g>
		<defs>
			<rect id="SVGID_00000052086857665941163550000004168155205453395878_" x="201.5" y="39" width="65.6" height="6.5"/>
		</defs>
		<clipPath id="SVGID_00000034767789729172739310000017743838889950693259_">
			<use xlink:href="#SVGID_00000052086857665941163550000004168155205453395878_"  style="overflow:visible;"/>
		</clipPath>
	</g>
	<g>
		<defs>
			<rect id="SVGID_00000030462640453891002220000013843183142595410327_" x="201.5" y="39" width="65.6" height="6.5"/>
		</defs>
		<use xlink:href="#SVGID_00000030462640453891002220000013843183142595410327_"  style="overflow:visible;fill:#F48156;"/>
		<clipPath id="SVGID_00000018196148317455818510000015207493070397436576_">
			<use xlink:href="#SVGID_00000030462640453891002220000013843183142595410327_"  style="overflow:visible;"/>
		</clipPath>
		<g style="clip-path:url(#SVGID_00000018196148317455818510000015207493070397436576_);">
			<path class="st0" d="M266.3,40.2c-0.4,0.2-1,0.2-1.4,0l-2.4-1.2l-2.4,1.2c-0.4,0.2-1,0.2-1.4,0l-2.4-1.2l-2.4,1.2
				c-0.4,0.2-1,0.2-1.4,0L250,39l-2.4,1.2c-0.4,0.2-1,0.2-1.4,0l-2.4-1.2l-2.4,1.2c-0.4,0.2-1,0.2-1.4,0l-2.4-1.2l-2.4,1.2
				c-0.4,0.2-1,0.2-1.4,0l-2.4-1.2l-2.4,1.2c-0.4,0.2-1,0.2-1.4,0l-2.4-1.2l-2.4,1.2c-0.4,0.2-1,0.2-1.4,0l-2.4-1.2l-2.4,1.2
				c-0.4,0.2-1,0.2-1.4,0l-2.4-1.2l-2.4,1.2c-0.4,0.2-1,0.2-1.4,0l-2.4-1.2l-2.4,1.2c-0.4,0.2-1,0.2-1.4,0l-0.9-0.4v5.3h65.3v-5.3
				L266.3,40.2"/>
		</g>
	</g>
	<g>
		<defs>
			<rect id="SVGID_00000136393847334654794480000008551242102416664455_" x="201.5" y="39" width="65.6" height="6.5"/>
		</defs>
		<clipPath id="SVGID_00000067222560817580696450000004631415956081375903_">
			<use xlink:href="#SVGID_00000136393847334654794480000008551242102416664455_"  style="overflow:visible;"/>
		</clipPath>
	</g>
</g>
<path class="st0" d="M21.3,81.6h34.2v-3.1H21.3V81.6"/>
<g>
	<g>
		<defs>
			<rect id="SVGID_00000142150016196736204400000013556723030501772717_" x="256.4" y="113.1" width="10.7" height="6.6"/>
		</defs>
		<clipPath id="SVGID_00000106111370008228159550000006538673676005466776_">
			<use xlink:href="#SVGID_00000142150016196736204400000013556723030501772717_"  style="overflow:visible;"/>
		</clipPath>
	</g>
	<g>
		<defs>
			<rect id="SVGID_00000175286453925067877740000017713255646465771906_" x="256.4" y="113.1" width="10.7" height="6.6"/>
		</defs>
		<use xlink:href="#SVGID_00000175286453925067877740000017713255646465771906_"  style="overflow:visible;fill:#F48156;"/>
		<clipPath id="SVGID_00000123415858664491734600000003923434229801782966_">
			<use xlink:href="#SVGID_00000175286453925067877740000017713255646465771906_"  style="overflow:visible;"/>
		</clipPath>
		<g style="clip-path:url(#SVGID_00000123415858664491734600000003923434229801782966_);">
			<path class="st0" d="M257.7,114.3c0.2,0.4,0.2,1,0,1.4l-1.2,2.4l0.5,1l1.7-0.9c0.4-0.2,1-0.2,1.4,0l1.6,0.8l0.9,0.4l2.4-1.2
				c0.4-0.2,1-0.2,1.4,0l0.9,0.4v-5.3h-9.9L257.7,114.3"/>
		</g>
	</g>
	<g>
		<defs>
			<rect id="SVGID_00000088096021842074702220000009751806626308273834_" x="256.4" y="113.1" width="10.7" height="6.6"/>
		</defs>
		<clipPath id="SVGID_00000089537922868862363780000017440545689124425378_">
			<use xlink:href="#SVGID_00000088096021842074702220000009751806626308273834_"  style="overflow:visible;"/>
		</clipPath>
	</g>
</g>
<g>
	<g>
		<defs>
			<rect id="SVGID_00000098909596607887941110000010798172398581780926_" x="76.6" y="166.1" width="37.7" height="20.8"/>
		</defs>
		<clipPath id="SVGID_00000181801690164467275590000006251765218224348308_">
			<use xlink:href="#SVGID_00000098909596607887941110000010798172398581780926_"  style="overflow:visible;"/>
		</clipPath>
		<g style="clip-path:url(#SVGID_00000181801690164467275590000006251765218224348308_);">
			<g>
				<path class="st0" d="M76.8,166.2v18.4c4.4,1.3,10.7,2.3,18.5,2.3s14.2-0.9,18.5-2.3v-18.4c-5,1.5-11.7,2.3-18.5,2.3
					C88.5,168.4,81.8,167.6,76.8,166.2z M103.6,174.3l3.2,2.4c0.4,0.3,0.5,0.7,0.5,1.1c0,0.4-0.1,0.8-0.5,1.1l-3.2,2.4
					c-1.6,1.2-3.6,1.9-5.6,1.9c-2,0-4-0.7-5.6-1.9l-1.9-1.5c-1.2,2-3.4,3.3-5.8,3.3c-0.4,0-0.8-0.3-1.1-0.5
					c-0.3-0.4-0.3-0.8-0.1-1.2l1.2-3.6l-1.3-3.6c-0.1-0.4-0.1-0.8,0.1-1.2c0.3-0.4,0.7-0.5,1.1-0.5c2.4,0,4.6,1.3,5.8,3.3l1.9-1.5
					C95.6,171.9,100.4,171.9,103.6,174.3z"/>
			</g>
		</g>
	</g>
	<g>
		<defs>
			<rect id="SVGID_00000114072436981612261900000012856315042425604241_" x="70.2" y="155.3" width="50.4" height="28.8"/>
		</defs>
		<clipPath id="SVGID_00000105387109981022051350000002216516132251290778_">
			<use xlink:href="#SVGID_00000114072436981612261900000012856315042425604241_"  style="overflow:visible;"/>
		</clipPath>
		<g style="clip-path:url(#SVGID_00000105387109981022051350000002216516132251290778_);">
			<g>
				<path class="st0" d="M70.2,155.5v24.9c0,1.1,1.5,2.3,4,3.3v-19.2c0-0.4,0.3-0.8,0.5-1.1c0.4-0.3,0.8-0.4,1.2-0.3
					c4.9,1.7,11.9,2.6,19.5,2.6c7.4,0,14.6-0.9,19.5-2.6c0.4-0.1,0.9-0.1,1.2,0.1c0.4,0.3,0.5,0.7,0.5,1.1v19.2c2.5-1.1,4-2.3,4-3.3
					v-24.8c-4.6,3.3-15,5-25.2,5S74.8,158.8,70.2,155.5z"/>
			</g>
		</g>
	</g>
	<path class="st0" d="M94,179c2.3,1.7,5.7,1.7,7.9,0l1.7-1.3l-1.7-1.3c-2.3-1.7-5.7-1.7-7.9,0l-1.7,1.3L94,179z"/>
	<g>
		<defs>
			<rect id="SVGID_00000054966396161864653880000005610082804881087644_" x="107.1" y="110.1" width="39.9" height="8.4"/>
		</defs>
		<clipPath id="SVGID_00000136392431681767304750000009785649057059245447_">
			<use xlink:href="#SVGID_00000054966396161864653880000005610082804881087644_"  style="overflow:visible;"/>
		</clipPath>
		<g style="clip-path:url(#SVGID_00000136392431681767304750000009785649057059245447_);">
			<path class="st0" d="M127.1,118.1c12.8,0,19.9-2.8,19.9-4c0-1.2-7-4-19.9-4s-19.9,2.8-19.9,4
				C107.3,115.3,114.3,118.1,127.1,118.1z"/>
		</g>
	</g>
	<g>
		<defs>
			<rect id="SVGID_00000182518717307016481810000011502682273764531869_" x="107.1" y="127.9" width="39.9" height="35.5"/>
		</defs>
		<clipPath id="SVGID_00000013897349519761675640000016843549614612445059_">
			<use xlink:href="#SVGID_00000182518717307016481810000011502682273764531869_"  style="overflow:visible;"/>
		</clipPath>
		<g style="clip-path:url(#SVGID_00000013897349519761675640000016843549614612445059_);">
			<g>
				<path class="st0" d="M107.3,128v14.7c2.5,0.4,4.9,0.8,7,1.5c1.3-6,6.6-10.2,12.8-10.2c7.3,0,13.2,6,13.2,13.2
					c0,7.3-6,13.2-13.2,13.2c-1.3,0-2.6-0.3-4-0.7v3.2c1.3,0,2.6,0.1,4,0.1c12.8,0,19.9-2.8,19.9-4V128c-4.6,2.5-14.2,3.3-19.9,3.3
					C121.4,131.4,111.9,130.6,107.3,128z"/>
			</g>
		</g>
	</g>
	<g>
		<defs>
			<rect id="SVGID_00000057129749800313203520000000798214910529706918_" x="107.1" y="117.1" width="39.9" height="11.7"/>
		</defs>
		<clipPath id="SVGID_00000118373634075201046660000014855300401988926606_">
			<use xlink:href="#SVGID_00000057129749800313203520000000798214910529706918_"  style="overflow:visible;"/>
		</clipPath>
		<g style="clip-path:url(#SVGID_00000118373634075201046660000014855300401988926606_);">
			<g>
				<path class="st0" d="M127.1,120.8c-5.7,0-15.2-0.8-19.9-3.3v7.3c0,1.2,7,4,19.9,4s19.9-2.8,19.9-4v-7.3
					C142.4,120,132.8,120.8,127.1,120.8z"/>
			</g>
		</g>
	</g>
	<path class="st0" d="M123.2,157c1.3,0.5,2.6,0.8,4,0.8c5.4,0,9.9-4.1,10.5-9.4l-0.1,0.1c-1.3,0.9-2.8,1.3-4.4,1.3
		c-1.6,0-3-0.4-4.4-1.3l-0.7-0.4c-0.9-0.7-1.9-0.9-2.9-0.9h-1.3c-0.8,0-1.6,0.1-2.4,0.5c1.1,1.1,1.7,2.1,1.7,3.4V157z"/>
	<g>
		<defs>
			<rect id="SVGID_00000106854361171846295300000012238210837220845246_" x="122.8" y="162.1" width="24.2" height="14.4"/>
		</defs>
		<clipPath id="SVGID_00000031165459150799133330000009383821335451948933_">
			<use xlink:href="#SVGID_00000106854361171846295300000012238210837220845246_"  style="overflow:visible;"/>
		</clipPath>
		<g style="clip-path:url(#SVGID_00000031165459150799133330000009383821335451948933_);">
			<g>
				<path class="st0" d="M123.2,165.7v10.6c1.3,0,2.6,0.1,4,0.1c12.8,0,19.9-2.8,19.9-4v-9.9c-4.6,2.5-14.2,3.3-19.9,3.3
					C125.8,165.8,124.5,165.8,123.2,165.7z"/>
			</g>
		</g>
	</g>
	<g>
		<defs>
			<rect id="SVGID_00000128447812785336321270000016348628962686344882_" x="70.2" y="144.5" width="50.4" height="13.5"/>
		</defs>
		<clipPath id="SVGID_00000178168523536584659920000013753055467462380956_">
			<use xlink:href="#SVGID_00000128447812785336321270000016348628962686344882_"  style="overflow:visible;"/>
		</clipPath>
		<g style="clip-path:url(#SVGID_00000178168523536584659920000013753055467462380956_);">
			<g>
				<path class="st0" d="M95.3,144.6c-15.6,0-25.2,3.8-25.2,6.6s9.5,6.6,25.2,6.6s25.2-3.8,25.2-6.6S111,144.6,95.3,144.6z
					 M83.4,155.2c-3.8,0-6.6-1.7-6.6-4s2.8-4,6.6-4c3.7,0,6.6,1.7,6.6,4S87.1,155.2,83.4,155.2z"/>
			</g>
		</g>
	</g>
	<path class="st0" d="M123.8,144.6h1.3c1.6,0,3,0.4,4.4,1.3l0.7,0.4c1.7,1.2,4.1,1.2,5.8,0l1.6-1.1c-0.9-4.9-5.3-8.6-10.5-8.6
		c-5,0-9.4,3.6-10.3,8.5c0.8,0.3,1.6,0.7,2.4,1.1l0.4-0.3C120.8,145,122.2,144.6,123.8,144.6z"/>
</g>
<g>
	<defs>
		<rect id="SVGID_00000149366007768268734850000004822461389906434984_" x="151.2" y="-46" width="79.5" height="79.9"/>
	</defs>
	<clipPath id="SVGID_00000099648332623568705770000003898209869780950697_">
		<use xlink:href="#SVGID_00000149366007768268734850000004822461389906434984_"  style="overflow:visible;"/>
	</clipPath>
	<g style="clip-path:url(#SVGID_00000099648332623568705770000003898209869780950697_);">
		<path class="st0" d="M164.3,14.1c-3.9,0-6.8-0.5-6.8-0.5v10.6c0,2,1.6,3.6,3.6,3.6h21.5c2,0,3.6-1.6,3.6-3.6V13.7
			c0,0-2.9,0.5-6.8,0.5c-2.3,0-4.9-0.7-7.5-0.7C169.1,13.4,166.5,14.1,164.3,14.1z M208.7-35.3l1.1-4.2l4.2-1.2l-4.2-1.2l-1.1-4.2
			l-1.2,4.2l-4.3,1.2l4.3,1.2L208.7-35.3z M205.1-18.1l1.6-6.1l6.1-1.7l-6.1-1.7l-1.6-6.1l-1.7,6.1l-6.2,1.7l6.2,1.7L205.1-18.1z
			 M216.6,19.7c-2.3,0-5.8-1.1-8.1-1.1c-2.5,0-4.8,1.1-6.8,1.1c-3.6,0-5.6-1.1-5.6-1.1s0,8.2,0,12.5c0,1.9,1,2.5,2.4,2.5h30.2
			c1.1,0,1.8-0.6,1.8-2.1c0-3.9,0-11.8,0-11.8s-1.2-1.1-6.1-1.1C222.6,18.7,218.7,19.7,216.6,19.7z M224.5,12.4
			c-1.9,0-5.7,1.1-7.9,1.1c-2.3,0-5.8-1.1-8.1-1.1c-2.5,0-4.8,1.1-6.8,1.1c-3.6,0-5.6-1.1-5.6-1.1v3.7c0,0,2,1.1,5.6,1.1
			c2,0,4.3-1.1,6.8-1.1c2.2,0,5.8,1.1,8.1,1.1c2.1,0,6-1.1,7.9-1.1c4.9,0,6.1,1.1,6.1,1.1v-3.7C230.6,13.5,229.4,12.4,224.5,12.4z
			 M188.1,24.5c0,2.9-2.4,5.3-5.3,5.3h-22.1c-2.9,0-5.3-2.4-5.3-5.3v-9.8c0-5.7,7-10.8,9-15.9c1.9-4.7,1.8-11.8,1.8-11.8
			c0-1.1,0.9-2.3,1.9-2.3h7.1c1.1,0,1.9,0.9,1.9,1.9c0,0,0.5,8.8,1.8,12.5c2,5.3,9,9.2,9,15.6V24.5z M181.3-13.4
			c0-3.1-2.3-5.6-5.3-6c0.3-1.6,1-2.8,1.9-4.1c1,1.4,2.8,4.2,7.7,3.8c0,0,0.7,0,0.7-0.7c0-0.7-0.7-0.7-0.7-0.7s-3.5-0.3-4.8-5.1
			c1.3-0.8,3.4-1.4,5-1.6v-7.5h-18.6c-8.4,0-9.7,10.8-9.7,10.8s2.6,0,5.2,0c2.4,0,4.8,0,4.8,0v5.2c-3,0.4-5.3,2.9-5.3,6
			c0,0,0.5,5-1.2,9.6c-1.5,4.3-9.7,11-9.7,18.5v9.8c0,5.2,4.2,9.4,9.4,9.4h22.1c5.2,0,9.4-4.2,9.4-9.4v-9.8c0-7.6-8.3-13.8-9.7-18.5
			C181.2-8.5,181.3-13.4,181.3-13.4z M206.3,5.8c-1.6,0-2.9-1.3-2.9-2.9c0-1.6,1.3-2.9,2.9-2.9s2.9,1.3,2.9,2.9
			C209.2,4.5,207.9,5.8,206.3,5.8z M206.3-1.8c-2.6,0-4.7,2.1-4.7,4.7c0,2.6,2.1,4.7,4.7,4.7s4.7-2.1,4.7-4.7
			C211.1,0.3,209-1.8,206.3-1.8z M191.8-34.7c-1.6,0-4.4,0-4.4,0v6.2c0,0,2.9,0,4.4,0c0.6,0,1.1-0.4,1.1-1.2v-3.8
			C192.9-34.2,192.2-34.7,191.8-34.7z M217-31.3l1.2,4.2l1.2-4.2l4.2-1.2l-4.2-1.2l-1.2-4.2l-1.2,4.2l-4.3,1.2L217-31.3z
			 M210.5-13.8c-0.2,0-1,0.3-1.3,0.5c-0.2,0.2-0.5,0.5-0.5,0.7c-0.1,0.2-0.1,0.5-0.1,0.6c0.1,0.1,0.3,0.3,0.5,0.2
			c0.2-0.1,0.3-0.2,0.4-0.4c0-0.1,0-0.3,0.4-0.5c0.3-0.2,0.6-0.2,0.8-0.3c0.2,0,0.3-0.3,0.3-0.5C210.9-13.6,210.8-13.8,210.5-13.8z
			 M226.8-2.3c0,2.8-2.2,5-5,5c-2.8,0-5-2.2-5-5c0-2.7,2.2-5,5-5C224.5-7.3,226.8-5.1,226.8-2.3z M214.9-2.3c0,3.8,3.1,6.9,6.9,6.9
			c3.8,0,6.9-3.1,6.9-6.9c0-3.8-3.1-6.9-6.9-6.9C218-9.2,214.9-6.1,214.9-2.3z M221.3-5.5c-0.4,0-1.5,0.4-1.8,0.7
			c-0.3,0.3-0.7,0.7-0.8,1c-0.1,0.3-0.2,0.7-0.1,0.9c0.1,0.2,0.4,0.4,0.7,0.3c0.3-0.1,0.5-0.3,0.5-0.5c0.1-0.2,0.1-0.4,0.5-0.7
			c0.5-0.3,0.8-0.3,1.2-0.4c0.3-0.1,0.5-0.4,0.4-0.7C221.9-5.3,221.7-5.5,221.3-5.5z M206.4,1.1c-0.2,0-1,0.3-1.3,0.5
			c-0.2,0.2-0.5,0.5-0.6,0.7c-0.1,0.2-0.1,0.5-0.1,0.6c0.1,0.1,0.3,0.3,0.5,0.2c0.2,0,0.3-0.2,0.4-0.4c0-0.1,0.1-0.3,0.4-0.5
			C206,2,206.3,2,206.5,2c0.2,0,0.3-0.3,0.3-0.5C206.8,1.3,206.6,1.1,206.4,1.1z M210.6-9c-1.6,0-2.9-1.3-2.9-2.9s1.3-2.9,2.9-2.9
			c1.6,0,2.9,1.3,2.9,2.9S212.2-9,210.6-9z M215.3-11.8c0-2.6-2.1-4.7-4.7-4.7s-4.7,2.1-4.7,4.7c0,2.6,2.1,4.7,4.7,4.7
			S215.3-9.2,215.3-11.8"/>
	</g>
</g>
<path class="st0" d="M233.8,61.8h19.8V50.5h-19.8V61.8"/>
<path class="st0" d="M238.5,16.6c-0.7,0-1.1,0.2-1.4,0.5c-1.3,1.4,0,5.8,3.8,9.7c2.6,2.7,5.7,4.4,7.9,4.4c0.6,0,1.1-0.2,1.4-0.5
	c1.3-1.4,0-5.8-3.8-9.7C243.8,18.3,240.7,16.6,238.5,16.6"/>
<path class="st0" d="M238.9,28.7c-0.9-0.9-1.6-1.8-2.2-2.7v21.6h14.1V33.6c-0.6,0.2-1.3,0.4-2,0.4C245.8,34,242.1,32,238.9,28.7"/>
<g>
	<defs>
		<rect id="SVGID_00000178910727722804764470000000073590596006304674_" x="267.3" y="64.6" width="11.7" height="31.2"/>
	</defs>
	<use xlink:href="#SVGID_00000178910727722804764470000000073590596006304674_"  style="overflow:visible;fill:#F48156;"/>
	<clipPath id="SVGID_00000150783848669623562280000006976877381870318014_">
		<use xlink:href="#SVGID_00000178910727722804764470000000073590596006304674_"  style="overflow:visible;"/>
	</clipPath>
	<g style="clip-path:url(#SVGID_00000150783848669623562280000006976877381870318014_);">
		<path class="st0" d="M267.7,95.7H279V64.7h-11.3V95.7"/>
	</g>
</g>
<g>
	<defs>
		<rect id="SVGID_00000125562326842360433970000015282816667031221640_" x="267.3" y="13.7" width="11.7" height="48.6"/>
	</defs>
	<clipPath id="SVGID_00000146459031511052430150000005366664700465445777_">
		<use xlink:href="#SVGID_00000125562326842360433970000015282816667031221640_"  style="overflow:visible;"/>
	</clipPath>
	<g style="clip-path:url(#SVGID_00000146459031511052430150000005366664700465445777_);">
		<path class="st0" d="M267.7,39.2V42h4.2v19.8h2.8V42h4.2v-2.8h-4.2v-2.8h4.2v-2.8h-4.2v-2.8h4.2v-2.8h-4.2v-2.8h4.2v-2.8h-4.2
			v-2.8h2.8v-2.8h-2.8v-2.8H272v2.8h-2.8v2.8h2.8v2.8h-4.2v2.8h4.2v2.8h-4.2v2.8h4.2v2.8h-4.2v2.8h4.2v2.8H267.7"/>
	</g>
</g>
</svg>
