<?xml version="1.0" encoding="utf-8"?>
<!-- Generator: Adobe Illustrator 26.0.1, SVG Export Plug-In . SVG Version: 6.00 Build 0)  -->
<svg version="1.1" id="Capa_1" xmlns="http://www.w3.org/2000/svg" xmlns:xlink="http://www.w3.org/1999/xlink" x="0px" y="0px"
	 viewBox="0 0 100 100" style="enable-background:new 0 0 100 100;" xml:space="preserve">
<style type="text/css">
	.st0{fill:#F48156;}
	.st1{clip-path:url(#SVGID_00000129898876645408104420000012439039579657698721_);}
	.st2{clip-path:url(#SVGID_00000026874225343363518580000004092481900617422741_);}
	.st3{clip-path:url(#SVGID_00000102524951687415502390000013342514002199064766_);}
	.st4{clip-path:url(#SVGID_00000090273918104989767980000011279572824189566853_);}
	.st5{clip-path:url(#SVGID_00000024002713241623759850000009644834492560012953_);}
	.st6{fill:none;stroke:#FFFFFF;stroke-width:2.4167;stroke-linecap:round;stroke-linejoin:round;stroke-miterlimit:10;}
	.st7{clip-path:url(#SVGID_00000155826947379352742790000013197361601991731357_);}
	.st8{clip-path:url(#SVGID_00000174570632552845142260000011215533627315377059_);}
	.st9{fill:none;stroke:#FFFFFF;stroke-width:2.8808;stroke-linecap:round;stroke-linejoin:round;stroke-miterlimit:10;}
	.st10{fill:none;stroke:#F48156;stroke-miterlimit:10;}
	.st11{clip-path:url(#SVGID_00000047764600171203392880000006757113350078155401_);}
	.st12{fill:none;stroke:#FFFFFF;stroke-width:2.0613;stroke-linecap:round;stroke-linejoin:round;stroke-miterlimit:10;}
	.st13{clip-path:url(#SVGID_00000175295584150070033580000011367567926087782533_);}
	.st14{clip-path:url(#SVGID_00000118365566598587609000000006363029309067108010_);}
	.st15{fill:none;stroke:#FFFFFF;stroke-width:2.4572;stroke-linecap:round;stroke-linejoin:round;stroke-miterlimit:10;}
	.st16{clip-path:url(#SVGID_00000116205391433668651710000009175160714672290232_);}
	.st17{clip-path:url(#SVGID_00000056407414164615576290000001792748123239969153_);}
	.st18{clip-path:url(#SVGID_00000073705794627626890800000001632480691813153408_);}
	.st19{clip-path:url(#SVGID_00000008839838789228799230000001750581344935025304_);}
	.st20{clip-path:url(#SVGID_00000167360049457366383380000004842810057771176343_);}
	.st21{clip-path:url(#SVGID_00000127750063168227975500000004321234115685838263_);}
	.st22{clip-path:url(#SVGID_00000085222967887624149380000007496361673317622434_);}
	.st23{clip-path:url(#SVGID_00000118357487260494243630000000251902271338814111_);}
	.st24{clip-path:url(#SVGID_00000083789031401165423790000011292675257309925771_);}
	.st25{clip-path:url(#SVGID_00000106860990864966442570000002348242508733268665_);}
	.st26{clip-path:url(#SVGID_00000048492225857809965580000010123812704999280818_);}
	.st27{clip-path:url(#SVGID_00000073715091750878852840000017783006569610689726_);}
	.st28{clip-path:url(#SVGID_00000043424936013581969870000013303813884407904179_);}
	.st29{clip-path:url(#SVGID_00000089569440460701998260000005681401053482257064_);}
</style>
<g>
	<path class="st0" d="M125-31.4c0.9,0,1.6-0.7,1.6-1.6v-9.4c0-2.6,2.1-4.7,4.7-4.7c2.6,0,4.7,2.1,4.7,4.7v17.2
		c0,0.9,0.7,1.6,1.6,1.6c0.9,0,1.6-0.7,1.6-1.6v-25c0-2.6,2.1-4.7,4.7-4.7c2.6,0,4.7,2.1,4.7,4.7v10.9c0,0.9,0.7,1.6,1.6,1.6
		c0.9,0,1.6-0.7,1.6-1.6v-14c0-3-2-5.6-4.9-6.3l-0.8-0.2l-0.3-0.8c-0.8-2.2-2.9-3.7-5.2-3.7h-5.6c-2.3,0-4.4,1.5-5.2,3.7l-0.3,0.8
		l-0.8,0.2c-2.9,0.7-4.9,3.4-4.9,6.3v20.3C123.4-32.1,124.1-31.4,125-31.4"/>
	<path class="st0" d="M131.2-43.9c-0.9,0-1.6,0.7-1.6,1.6v9.4c0,1.6-0.8,3-2,3.8l-1,11.8h21.6l-1.5-18.5c-0.9-0.9-1.4-2.1-1.4-3.4
		v-10.9c0-0.9-0.7-1.6-1.6-1.6c-0.9,0-1.6,0.7-1.6,1.6v25c0,2.6-2.1,4.7-4.7,4.7c-2.6,0-4.7-2.1-4.7-4.7v-17.2
		C132.8-43.2,132.1-43.9,131.2-43.9"/>
	<path class="st0" d="M137.5-67.3c1.7,0,3.1-1.4,3.1-3.1s-1.4-3.1-3.1-3.1c-1.7,0-3.1,1.4-3.1,3.1S135.7-67.3,137.5-67.3"/>
	<path class="st0" d="M151.4-17.3h13.4l-4.4-27.5c-0.4-3.2-2.7-5.7-5.7-6.6v12.2c0,2.6-2.1,4.7-4.7,4.7L151.4-17.3"/>
	<path class="st0" d="M124.5-28.3c-2.3-0.3-4.2-2.2-4.2-4.6v-18.5c-3,0.8-5.3,3.4-5.7,6.6l-3.4,27.5h12.4L124.5-28.3"/>
	<g>
		<g>
			<defs>
				<rect id="SVGID_1_" x="118.8" y="13.5" width="37.3" height="3.5"/>
			</defs>
			<clipPath id="SVGID_00000036209211620975971660000012533106953325392804_">
				<use xlink:href="#SVGID_1_"  style="overflow:visible;"/>
			</clipPath>
		</g>
		<g>
			<defs>
				<rect id="SVGID_00000178927880861863136120000014868608803519287448_" x="118.8" y="13.5" width="37.3" height="3.5"/>
			</defs>
			<use xlink:href="#SVGID_00000178927880861863136120000014868608803519287448_"  style="overflow:visible;fill:#F48156;"/>
			<clipPath id="SVGID_00000098913209028584705260000008968686422977742486_">
				<use xlink:href="#SVGID_00000178927880861863136120000014868608803519287448_"  style="overflow:visible;"/>
			</clipPath>
			<g style="clip-path:url(#SVGID_00000098913209028584705260000008968686422977742486_);">
				<path class="st0" d="M151.5,13.9h-28.1c-2,0-3.8,1.3-4.4,3.1h36.9C155.3,15.2,153.5,13.9,151.5,13.9"/>
			</g>
		</g>
		<g>
			<defs>
				<rect id="SVGID_00000000199684742627574550000003625784529890195605_" x="118.8" y="13.5" width="37.3" height="3.5"/>
			</defs>
			<clipPath id="SVGID_00000097469284217401966250000018342439115209256087_">
				<use xlink:href="#SVGID_00000000199684742627574550000003625784529890195605_"  style="overflow:visible;"/>
			</clipPath>
		</g>
	</g>
	<g>
		<g>
			<defs>
				<rect id="SVGID_00000058566936388752850260000004476843857808641466_" x="107.9" y="-14.2" width="60.1" height="9.4"/>
			</defs>
			<clipPath id="SVGID_00000183251057156348611550000004574850875122633399_">
				<use xlink:href="#SVGID_00000058566936388752850260000004476843857808641466_"  style="overflow:visible;"/>
			</clipPath>
		</g>
		<g>
			<defs>
				<rect id="SVGID_00000175308653473617570960000011171018733380645771_" x="107.9" y="-14.2" width="60.1" height="9.4"/>
			</defs>
			<use xlink:href="#SVGID_00000175308653473617570960000011171018733380645771_"  style="overflow:visible;fill:#F48156;"/>
			<clipPath id="SVGID_00000081628028515321479560000013947678836437561480_">
				<use xlink:href="#SVGID_00000175308653473617570960000011171018733380645771_"  style="overflow:visible;"/>
			</clipPath>
			<g style="clip-path:url(#SVGID_00000081628028515321479560000013947678836437561480_);">
				<path class="st0" d="M167-11.1c0.5-1,0.8-2,1-3.1h-60.1c0.2,1.1,0.5,2.2,1,3.1h11.4v3.1h-9.2c2,1.9,4.7,3.1,7.6,3.1h37.4
					c3,0,6.7-1.2,8.6-3.1h-41.4v-3.1H167"/>
			</g>
		</g>
		<g>
			<defs>
				<rect id="SVGID_00000131357798846979738340000002796687657837461180_" x="107.9" y="-14.2" width="60.1" height="9.4"/>
			</defs>
			<clipPath id="SVGID_00000091697687242834644410000015850464928846571654_">
				<use xlink:href="#SVGID_00000131357798846979738340000002796687657837461180_"  style="overflow:visible;"/>
			</clipPath>
		</g>
	</g>
	<path class="st0" d="M134.3-1.7v12.5h6.2V-1.7H134.3"/>
</g>
<g>
	<defs>
		<rect id="SVGID_00000082358317622307213780000002797277381235598225_" x="188.7" y="-12.5" width="71.4" height="49.9"/>
	</defs>
	<clipPath id="SVGID_00000066481985275479397020000013109030852320150931_">
		<use xlink:href="#SVGID_00000082358317622307213780000002797277381235598225_"  style="overflow:visible;"/>
	</clipPath>
	<g style="clip-path:url(#SVGID_00000066481985275479397020000013109030852320150931_);">
		<path class="st0" d="M259.6-11.7c-0.3-0.5-0.9-0.7-1.4-0.7h-17.8c-1,0-1.8,0.8-1.8,1.8c0,6.9-5.6,12.5-12.5,12.5h-3.6
			c-6.9,0-12.5-5.6-12.5-12.5c0-1-0.8-1.8-1.8-1.8h-17.8c-0.6,0-1.1,0.3-1.4,0.7c-0.3,0.5-0.4,1-0.3,1.6l12.7,41.2
			c1.2,3.8,4.6,6.3,8.5,6.3h28.6c3.9,0,7.3-2.5,8.5-6.3l12.7-41.2C260.1-10.6,260-11.2,259.6-11.7z"/>
	</g>
</g>
<path class="st0" d="M249.3-8.8c-0.1,0-0.2,0-0.3,0c-1-0.1-1.6-1-1.5-2l1.6-10.9l-3.6-0.9L244-10.4c-0.1,1-1,1.6-2,1.5
	c-1-0.1-1.7-1-1.5-2l1.8-14.2c0.1-0.5,0.3-1,0.8-1.2c0.4-0.3,0.9-0.4,1.4-0.3l7.1,1.8c0.9,0.2,1.5,1.1,1.3,2l-1.8,12.5
	C250.9-9.5,250.2-8.8,249.3-8.8z"/>
<path class="st0" d="M227.9,3.6C227.9,3.6,227.9,3.6,227.9,3.6c-1.1-0.1-1.8-0.9-1.8-1.9l1.8-33.8c0.1-0.9,0.8-1.7,1.8-1.7h7.1
	c0.5,0,1,0.2,1.3,0.6c0.3,0.4,0.5,0.8,0.5,1.3l-1.8,32c-0.1,1-0.9,1.7-1.9,1.7c-1-0.1-1.7-0.9-1.7-1.9l1.7-30.2h-3.5l-1.7,32.1
	C229.7,2.9,228.9,3.6,227.9,3.6z"/>
<path class="st0" d="M192.3-8.8c-0.9,0-1.6-0.6-1.8-1.5L187-31.7c-0.2-0.9,0.5-1.8,1.4-2l8.9-1.8c0.5-0.1,1,0,1.4,0.3
	c0.4,0.3,0.7,0.7,0.7,1.2l1.8,10.7c0.2,1-0.5,1.9-1.5,2c-1,0.2-1.9-0.5-2-1.5l-1.5-8.9l-5.4,1.1l3.3,19.7c0.2,1-0.5,1.9-1.5,2
	C192.5-8.9,192.4-8.8,192.3-8.8z"/>
<path class="st0" d="M201.2-8.8c-0.9,0-1.6-0.6-1.8-1.5l-1.8-12.5c-0.1-0.9,0.4-1.8,1.3-2l5.7-1.4l-1.5-12.4l-3.8,1v3.9
	c0,1-0.8,1.8-1.8,1.8c-1,0-1.8-0.8-1.8-1.8v-5.3c0-0.8,0.6-1.5,1.3-1.7l7.1-1.8c0.5-0.1,1,0,1.4,0.3c0.4,0.3,0.7,0.7,0.8,1.3
	l3.6,30.3c0.1,1-0.6,1.9-1.6,2c-1,0.1-1.9-0.6-2-1.5l-1.5-12.2l-3.6,0.9l1.6,10.9c0.1,1-0.5,1.9-1.5,2
	C201.4-8.8,201.3-8.8,201.2-8.8z"/>
<path class="st0" d="M215.5-30.2c-0.8,0-1.5-0.5-1.7-1.3l-3-10.4l-5.2,2.6c-0.9,0.4-1.9,0.1-2.4-0.8c1.3-3.5,0.8-3.3,0.8-2.4
	l7.1-3.6c0.5-0.2,1-0.3,1.5,0c0.5,0.2,0.9,0.6,1,1.1l3.6,12.5c0.3,0.9-0.3,1.9-1.2,2.2C215.8-30.2,215.6-30.2,215.5-30.2z"/>
<g>
	<defs>
		<rect id="SVGID_00000009547882726617832180000012165638923128329657_" x="211.7" y="-48" width="16.5" height="53.5"/>
	</defs>
	<clipPath id="SVGID_00000010297647279242280160000006187171314620719008_">
		<use xlink:href="#SVGID_00000009547882726617832180000012165638923128329657_"  style="overflow:visible;"/>
	</clipPath>
	<g style="clip-path:url(#SVGID_00000010297647279242280160000006187171314620719008_);">
		<g>
			<path class="st0" d="M222.6,5.4C222.6,5.4,222.6,5.4,222.6,5.4c-1,0-1.7-0.8-1.8-1.7l-1.7-33.9h-1.8c0,0,0,0-0.1,0h-1.7l1.7,31.9
				c0.1,1-0.7,1.8-1.7,1.9c-1,0-1.8-0.7-1.9-1.7l-1.8-33.8c0-0.5,0.2-1,0.5-1.3c0.3-0.4,0.8-0.6,1.3-0.6h2l1.6-12.7
				c0.1-0.9,0.9-1.6,1.8-1.6h7.1c0.5,0,1,0.2,1.3,0.6c0.3,0.4,0.5,0.8,0.5,1.3l-3.6,49.8C224.3,4.7,223.5,5.4,222.6,5.4z
				 M219.3-33.8h1.5c1,0,1.7,0.7,1.8,1.7l0.3,6.3l1.3-18.7h-3.6L219.3-33.8z"/>
		</g>
	</g>
</g>
<path class="st0" d="M233.3-30.2c-1,0-1.8-0.8-1.8-1.8v-8.9h-5.3c-1,0-1.8-0.8-1.8-1.8c0-1,0.8-1.8,1.8-1.8h7.1c1,0,1.8,0.8,1.8,1.8
	V-32C235.1-31,234.3-30.2,233.3-30.2z"/>
<path class="st0" d="M240.4-8.8c-0.1,0-0.2,0-0.3,0c-1-0.1-1.6-1-1.5-2l3.3-23.2l-9-1.5c-1-0.2-1.6-1.1-1.5-2s1.1-1.6,2-1.5
	l10.7,1.8c1,0.2,1.6,1,1.5,2l-3.6,24.9C242-9.5,241.3-8.8,240.4-8.8z"/>
<path class="st0" d="M254.6-8.8c-0.2,0-0.4,0-0.6-0.1c-0.9-0.3-1.4-1.3-1.1-2.2l6.6-19.9l-4.1-2.1l-4.5,9.1
	c-0.4,0.9-1.5,1.2-2.4,0.8c-0.9-0.4-1.2-1.5-0.8-2.4l5.3-10.7c0.4-0.9,1.5-1.2,2.4-0.8l7.1,3.6c0.8,0.4,1.2,1.3,0.9,2.2l-7.1,21.4
	C256.1-9.3,255.4-8.8,254.6-8.8z"/>
<path class="st0" d="M251.1-26.6c-1,0-1.8-0.8-1.8-1.8v-12.5h-3.6v5.3c0,1-0.8,1.8-1.8,1.8s-1.8-0.8-1.8-1.8v-7.1
	c0-1,0.8-1.8,1.8-1.8h7.1c1,0,1.8,0.8,1.8,1.8v14.2C252.9-27.4,252.1-26.6,251.1-26.6z"/>
<path class="st0" d="M194.2,98.5V47.8h-28.3v51h0c0,0,0,0.1,0,0.1c0,1.6,6.4,2.9,14.2,2.9c7.9,0,14.2-1.3,14.2-2.9
	C194.3,98.8,194.3,98.7,194.2,98.5"/>
<g>
	<defs>
		<rect id="SVGID_00000173159796801416138830000004809727239014854557_" x="165.1" y="46.7" width="29.9" height="55.8"/>
	</defs>
	<clipPath id="SVGID_00000047766353248859151590000009736375906820565667_">
		<use xlink:href="#SVGID_00000173159796801416138830000004809727239014854557_"  style="overflow:visible;"/>
	</clipPath>
	<g style="clip-path:url(#SVGID_00000047766353248859151590000009736375906820565667_);">
		<path class="st6" d="M194.2,98.5V47.8h-28.3v51h0c0,0,0,0.1,0,0.1c0,1.6,6.4,2.9,14.2,2.9c7.9,0,14.2-1.3,14.2-2.9
			C194.3,98.8,194.3,98.7,194.2,98.5z"/>
	</g>
</g>
<path class="st0" d="M176.4,56.6c0.2,0,0.4,0,0.6,0c0.6,0,1.2,0.1,1.7,0.4c0.4,0.3,0.6,0.7,0.8,1.2c0.5,1.3,0.6,2.8,1.5,4
	c0.8,1.2,2.7,1.8,3.6,0.7c0.4-0.5,0.6-1.2,0.7-1.8c0.3-1.2,0.6-2.4,1.1-3.5c0.4-0.9,1.4-2,2.2-1.4c0.3,0.2,0.4,0.6,0.6,0.9
	c0.8,1.2,2.9,1.3,4.1,0.5c1.1-0.8,1-2,1-3.2c0-0.5,0-6.6,0-6.6h-28.3c0,2.1-0.4,4.7,0,6.8C166.5,57.7,173.4,56.7,176.4,56.6"/>
<path class="st6" d="M176.4,56.6c0.2,0,0.4,0,0.6,0c0.6,0,1.2,0.1,1.7,0.4c0.4,0.3,0.6,0.7,0.8,1.2c0.5,1.3,0.6,2.8,1.5,4
	c0.8,1.2,2.7,1.8,3.6,0.7c0.4-0.5,0.6-1.2,0.7-1.8c0.3-1.2,0.6-2.4,1.1-3.5c0.4-0.9,1.4-2,2.2-1.4c0.3,0.2,0.4,0.6,0.6,0.9
	c0.8,1.2,2.9,1.3,4.1,0.5c1.1-0.8,1-2,1-3.2c0-0.5,0-6.6,0-6.6h-28.3c0,2.1-0.4,4.7,0,6.8C166.5,57.7,173.4,56.7,176.4,56.6z"/>
<path class="st0" d="M194.3,47.8c0,1.6-6.4,2.9-14.2,2.9c-7.9,0-14.2-1.3-14.2-2.9c0-1.6,6.4-2.9,14.2-2.9
	C188,44.9,194.3,46.2,194.3,47.8"/>
<g>
	<defs>
		<rect id="SVGID_00000058583575998874520360000017699276469555893943_" x="165.1" y="44" width="29.9" height="7.6"/>
	</defs>
	<clipPath id="SVGID_00000153664575245026980450000018257104769783214985_">
		<use xlink:href="#SVGID_00000058583575998874520360000017699276469555893943_"  style="overflow:visible;"/>
	</clipPath>
	<g style="clip-path:url(#SVGID_00000153664575245026980450000018257104769783214985_);">
		<path class="st6" d="M194.3,47.8c0,1.6-6.4,2.9-14.2,2.9c-7.9,0-14.2-1.3-14.2-2.9c0-1.6,6.4-2.9,14.2-2.9
			C188,44.9,194.3,46.2,194.3,47.8z"/>
	</g>
</g>
<path class="st0" d="M186.6,37.4c0,3.6-2.9,6.6-6.6,6.6c-3.6,0-6.6-2.9-6.6-6.6s6.6-15.2,6.6-15.2S186.6,33.8,186.6,37.4"/>
<g>
	<defs>
		<rect id="SVGID_00000133512674686612411250000015260986406275639961_" x="172.2" y="21.4" width="15.2" height="23.7"/>
	</defs>
	<clipPath id="SVGID_00000044894131722445086970000011403539019186393487_">
		<use xlink:href="#SVGID_00000133512674686612411250000015260986406275639961_"  style="overflow:visible;"/>
	</clipPath>
	<g style="clip-path:url(#SVGID_00000044894131722445086970000011403539019186393487_);">
		<path class="st9" d="M186.6,37.4c0,3.6-2.9,6.6-6.6,6.6s-6.6-2.9-6.6-6.6s6.6-15.2,6.6-15.2S186.6,33.8,186.6,37.4z"/>
	</g>
</g>
<path class="st10" d="M183.3,39c0,1.8-1.5,3.3-3.3,3.3s-3.3-1.5-3.3-3.3c0-1.8,3.3-7.6,3.3-7.6S183.3,37.2,183.3,39"/>
<path class="st10" d="M180.1,47.6V36.8"/>
<path class="st0" d="M165.7,98.2V54.9h-24.1v43.5h0c0,0,0,0.1,0,0.1c0,1.4,5.4,2.5,12.1,2.5c6.7,0,12.1-1.1,12.1-2.5
	C165.8,98.4,165.8,98.3,165.7,98.2"/>
<g>
	<defs>
		<rect id="SVGID_00000006675731923764813750000007078074491341768895_" x="140.8" y="54.4" width="25.9" height="47.3"/>
	</defs>
	<clipPath id="SVGID_00000153681283874161037910000000480734786915342985_">
		<use xlink:href="#SVGID_00000006675731923764813750000007078074491341768895_"  style="overflow:visible;"/>
	</clipPath>
	<g style="clip-path:url(#SVGID_00000153681283874161037910000000480734786915342985_);">
		<path class="st12" d="M165.7,98.2V54.9h-24.1v43.5h0c0,0,0,0.1,0,0.1c0,1.4,5.4,2.5,12.1,2.5c6.7,0,12.1-1.1,12.1-2.5
			C165.8,98.4,165.8,98.3,165.7,98.2z"/>
	</g>
</g>
<path class="st0" d="M150.5,62.4c0.2,0,0.4,0,0.5,0c0.5,0,1,0.1,1.4,0.4c0.3,0.3,0.5,0.6,0.6,1c0.4,1.1,0.6,2.4,1.2,3.4
	c0.7,1,2.3,1.5,3.1,0.6c0.4-0.4,0.5-1,0.6-1.5c0.2-1,0.5-2,0.9-3c0.3-0.8,1.2-1.7,1.9-1.2c0.3,0.2,0.4,0.5,0.6,0.8
	c0.7,1,2.5,1.1,3.5,0.4c0.9-0.6,0.8-1.7,0.8-2.7c0-0.4,0-5.7,0-5.7h-24.1c0,1.8-0.4,4,0,5.8C142.1,63.3,147.9,62.5,150.5,62.4"/>
<g>
	<defs>
		<rect id="SVGID_00000104702439813182300590000008888911333669306508_" x="140.8" y="54.4" width="25.9" height="14.7"/>
	</defs>
	<clipPath id="SVGID_00000043455318081744642870000007313907448588121003_">
		<use xlink:href="#SVGID_00000104702439813182300590000008888911333669306508_"  style="overflow:visible;"/>
	</clipPath>
	<g style="clip-path:url(#SVGID_00000043455318081744642870000007313907448588121003_);">
		<path class="st12" d="M150.5,62.4c0.2,0,0.4,0,0.5,0c0.5,0,1,0.1,1.4,0.4c0.3,0.3,0.5,0.6,0.6,1c0.4,1.1,0.6,2.4,1.2,3.4
			c0.7,1,2.3,1.5,3.1,0.6c0.4-0.4,0.5-1,0.6-1.5c0.2-1,0.5-2,0.9-3c0.3-0.8,1.2-1.7,1.9-1.2c0.3,0.2,0.4,0.5,0.6,0.8
			c0.7,1,2.5,1.1,3.5,0.4c0.9-0.6,0.8-1.7,0.8-2.7c0-0.4,0-5.7,0-5.7h-24.1c0,1.8-0.4,4,0,5.8C142.1,63.3,147.9,62.5,150.5,62.4z"/>
	</g>
</g>
<path class="st0" d="M165.8,54.9c0,1.4-5.4,2.5-12.1,2.5c-6.7,0-12.1-1.1-12.1-2.5c0-1.4,5.4-2.5,12.1-2.5
	C160.4,52.4,165.8,53.5,165.8,54.9"/>
<g>
	<defs>
		<rect id="SVGID_00000060725746107748717750000011401720038466149266_" x="140.8" y="51.6" width="25.9" height="6.5"/>
	</defs>
	<clipPath id="SVGID_00000106855037921636595210000012578147223128489622_">
		<use xlink:href="#SVGID_00000060725746107748717750000011401720038466149266_"  style="overflow:visible;"/>
	</clipPath>
	<g style="clip-path:url(#SVGID_00000106855037921636595210000012578147223128489622_);">
		<path class="st12" d="M165.8,54.9c0,1.4-5.4,2.5-12.1,2.5c-6.7,0-12.1-1.1-12.1-2.5c0-1.4,5.4-2.5,12.1-2.5
			C160.4,52.4,165.8,53.5,165.8,54.9z"/>
	</g>
</g>
<path class="st0" d="M159.2,46.1c0,3.1-2.5,5.6-5.6,5.6c-3.1,0-5.6-2.5-5.6-5.6s5.6-12.9,5.6-12.9S159.2,43,159.2,46.1"/>
<path class="st15" d="M159.2,46.1c0,3.1-2.5,5.6-5.6,5.6c-3.1,0-5.6-2.5-5.6-5.6c0-3.1,5.6-13,5.6-13S159.2,43,159.2,46.1z"/>
<path class="st0" d="M156.4,47.5c0,1.5-1.3,2.8-2.8,2.8c-1.5,0-2.8-1.3-2.8-2.8c0-1.5,2.8-6.5,2.8-6.5S156.4,45.9,156.4,47.5"/>
<path class="st10" d="M153.7,54.7v-9.2"/>
<g>
	<defs>
		<rect id="SVGID_00000031900644992509865730000018340754905451609998_" x="248.3" y="103.9" width="6.6" height="22"/>
	</defs>
	<clipPath id="SVGID_00000158727343481460571400000011331063275046844349_">
		<use xlink:href="#SVGID_00000031900644992509865730000018340754905451609998_"  style="overflow:visible;"/>
	</clipPath>
	<g style="clip-path:url(#SVGID_00000158727343481460571400000011331063275046844349_);">
		<g>
			<path class="st0" d="M254.5,108.8l-1.2-2.4c-0.2-0.4-0.2-1,0-1.4l0.4-0.9h-5.3v21.8h5.3l-0.4-0.9c-0.2-0.4-0.2-1,0-1.4l1.2-2.4
				l-1.2-2.4c-0.2-0.4-0.2-1,0-1.4l1.2-2.4l-1.2-2.4c-0.2-0.4-0.2-1,0-1.4L254.5,108.8"/>
		</g>
	</g>
</g>
<path class="st0" d="M248.5,66.8h-21.8c-6,0-10.9,4.9-10.9,10.9v16.1l4-2c0.2-0.1,0.5-0.2,0.7-0.2h21.8c6,0,10.9-4.9,10.9-10.9V64.7
	l-4,2C249,66.8,248.7,66.8,248.5,66.8"/>
<path class="st0" d="M237.6,118.1c0,0.9-0.7,1.6-1.6,1.6h-37.3c-0.9,0-1.6-0.7-1.6-1.6v-6.2c0-0.9,0.7-1.6,1.6-1.6h37.3
	c0.9,0,1.6,0.7,1.6,1.6V118.1z M240.7,107.3h-46.6c-0.2,0-0.5-0.1-0.7-0.2l-4-2V125l4-2c0.2-0.1,0.5-0.2,0.7-0.2h46.6
	c0.2,0,0.5,0.1,0.7,0.2l4,2v-19.8l-4,2C241.2,107.2,241,107.3,240.7,107.3"/>
<path class="st0" d="M256.3,80.8c0,7.7-6.3,14-14,14h-21.4l-5.9,2.9c-0.2,0.1-0.5,0.2-0.7,0.2c-0.3,0-0.6-0.1-0.8-0.2
	c-0.5-0.3-0.7-0.8-0.7-1.3V77.7c0-7.7,6.3-14,14-14h21.4l5.9-2.9c0.5-0.2,1.1-0.2,1.5,0.1c0.5,0.3,0.7,0.8,0.7,1.3V80.8z
	 M257.6,101.8c0.3,0.5,0.3,1,0.1,1.5l-1.2,2.4l1.2,2.4c0.2,0.4,0.2,1,0,1.4l-0.4,0.9h9.1l-5.2-11.8c-0.1-0.2-0.1-0.4-0.1-0.6V57.5
	c0-0.3,0.1-0.5,0.2-0.8l4.9-8.6H203l4.9,8.6c0.1,0.2,0.2,0.5,0.2,0.8v40.4c0,0.2,0,0.4-0.1,0.6l-2.5,5.6h34.9l5.9-2.9c0,0,0,0,0.1,0
	c0,0,0.1,0,0.1,0c0.2-0.1,0.3-0.1,0.5-0.1c0,0,0,0,0.1,0h9.3C256.8,101,257.3,101.3,257.6,101.8"/>
<g>
	<g>
		<defs>
			<rect id="SVGID_00000052086857665941163550000004168155205453395878_" x="201.5" y="39" width="65.6" height="6.5"/>
		</defs>
		<clipPath id="SVGID_00000014595319061484487630000001873175974002316963_">
			<use xlink:href="#SVGID_00000052086857665941163550000004168155205453395878_"  style="overflow:visible;"/>
		</clipPath>
	</g>
	<g>
		<defs>
			<rect id="SVGID_00000030462640453891002220000013843183142595410327_" x="201.5" y="39" width="65.6" height="6.5"/>
		</defs>
		<use xlink:href="#SVGID_00000030462640453891002220000013843183142595410327_"  style="overflow:visible;fill:#F48156;"/>
		<clipPath id="SVGID_00000089548777932086491590000016679918652173431228_">
			<use xlink:href="#SVGID_00000030462640453891002220000013843183142595410327_"  style="overflow:visible;"/>
		</clipPath>
		<g style="clip-path:url(#SVGID_00000089548777932086491590000016679918652173431228_);">
			<path class="st0" d="M266.3,40.2c-0.4,0.2-1,0.2-1.4,0l-2.4-1.2l-2.4,1.2c-0.4,0.2-1,0.2-1.4,0l-2.4-1.2l-2.4,1.2
				c-0.4,0.2-1,0.2-1.4,0L250,39l-2.4,1.2c-0.4,0.2-1,0.2-1.4,0l-2.4-1.2l-2.4,1.2c-0.4,0.2-1,0.2-1.4,0l-2.4-1.2l-2.4,1.2
				c-0.4,0.2-1,0.2-1.4,0l-2.4-1.2l-2.4,1.2c-0.4,0.2-1,0.2-1.4,0l-2.4-1.2l-2.4,1.2c-0.4,0.2-1,0.2-1.4,0l-2.4-1.2l-2.4,1.2
				c-0.4,0.2-1,0.2-1.4,0l-2.4-1.2l-2.4,1.2c-0.4,0.2-1,0.2-1.4,0l-2.4-1.2l-2.4,1.2c-0.4,0.2-1,0.2-1.4,0l-0.9-0.4v5.3h65.3v-5.3
				L266.3,40.2"/>
		</g>
	</g>
	<g>
		<defs>
			<rect id="SVGID_00000136393847334654794480000008551242102416664455_" x="201.5" y="39" width="65.6" height="6.5"/>
		</defs>
		<clipPath id="SVGID_00000132047434647192559630000017052831452015127742_">
			<use xlink:href="#SVGID_00000136393847334654794480000008551242102416664455_"  style="overflow:visible;"/>
		</clipPath>
	</g>
</g>
<path class="st0" d="M200.3,116.6h34.2v-3.1h-34.2V116.6"/>
<g>
	<g>
		<defs>
			<rect id="SVGID_00000142150016196736204400000013556723030501772717_" x="256.4" y="113.1" width="10.7" height="6.6"/>
		</defs>
		<clipPath id="SVGID_00000031910644313710219050000006626375637965147287_">
			<use xlink:href="#SVGID_00000142150016196736204400000013556723030501772717_"  style="overflow:visible;"/>
		</clipPath>
	</g>
	<g>
		<defs>
			<rect id="SVGID_00000175286453925067877740000017713255646465771906_" x="256.4" y="113.1" width="10.7" height="6.6"/>
		</defs>
		<use xlink:href="#SVGID_00000175286453925067877740000017713255646465771906_"  style="overflow:visible;fill:#F48156;"/>
		<clipPath id="SVGID_00000134972283343707337400000016403959398862690473_">
			<use xlink:href="#SVGID_00000175286453925067877740000017713255646465771906_"  style="overflow:visible;"/>
		</clipPath>
		<g style="clip-path:url(#SVGID_00000134972283343707337400000016403959398862690473_);">
			<path class="st0" d="M257.7,114.3c0.2,0.4,0.2,1,0,1.4l-1.2,2.4l0.5,1l1.7-0.9c0.4-0.2,1-0.2,1.4,0l1.6,0.8l0.9,0.4l2.4-1.2
				c0.4-0.2,1-0.2,1.4,0l0.9,0.4v-5.3h-9.9L257.7,114.3"/>
		</g>
	</g>
	<g>
		<defs>
			<rect id="SVGID_00000088096021842074702220000009751806626308273834_" x="256.4" y="113.1" width="10.7" height="6.6"/>
		</defs>
		<clipPath id="SVGID_00000094620024118084056820000009249586005188129193_">
			<use xlink:href="#SVGID_00000088096021842074702220000009751806626308273834_"  style="overflow:visible;"/>
		</clipPath>
	</g>
</g>
<g>
	<g>
		<defs>
			<rect id="SVGID_00000135666327036684001920000005569650456171939468_" x="176.6" y="115.1" width="37.7" height="20.8"/>
		</defs>
		<clipPath id="SVGID_00000083081822626807981060000007004203917835057310_">
			<use xlink:href="#SVGID_00000135666327036684001920000005569650456171939468_"  style="overflow:visible;"/>
		</clipPath>
		<g style="clip-path:url(#SVGID_00000083081822626807981060000007004203917835057310_);">
			<g>
				<path class="st0" d="M176.8,115.2v18.4c4.4,1.3,10.7,2.3,18.5,2.3c7.8,0,14.2-0.9,18.5-2.3v-18.4c-5,1.5-11.7,2.3-18.5,2.3
					S181.8,116.6,176.8,115.2z M203.6,123.3l3.2,2.4c0.4,0.3,0.5,0.7,0.5,1.1c0,0.4-0.1,0.8-0.5,1.1l-3.2,2.4
					c-1.6,1.2-3.6,1.9-5.6,1.9c-2,0-4-0.7-5.6-1.9l-1.9-1.5c-1.2,2-3.4,3.3-5.8,3.3c-0.4,0-0.8-0.3-1.1-0.5
					c-0.3-0.4-0.3-0.8-0.1-1.2l1.2-3.6l-1.3-3.6c-0.1-0.4-0.1-0.8,0.1-1.2c0.3-0.4,0.7-0.5,1.1-0.5c2.4,0,4.6,1.3,5.8,3.3l1.9-1.5
					C195.6,120.9,200.4,120.9,203.6,123.3z"/>
			</g>
		</g>
	</g>
	<g>
		<defs>
			<rect id="SVGID_00000013885653111837435450000012761154707458013570_" x="170.2" y="104.3" width="50.4" height="28.8"/>
		</defs>
		<clipPath id="SVGID_00000168832013798173067420000011876566202282776255_">
			<use xlink:href="#SVGID_00000013885653111837435450000012761154707458013570_"  style="overflow:visible;"/>
		</clipPath>
		<g style="clip-path:url(#SVGID_00000168832013798173067420000011876566202282776255_);">
			<g>
				<path class="st0" d="M170.2,104.5v24.9c0,1.1,1.5,2.3,4,3.3v-19.2c0-0.4,0.3-0.8,0.5-1.1c0.4-0.3,0.8-0.4,1.2-0.3
					c4.9,1.7,11.9,2.6,19.5,2.6c7.4,0,14.6-0.9,19.5-2.6c0.4-0.1,0.9-0.1,1.2,0.1c0.4,0.3,0.5,0.7,0.5,1.1v19.2c2.5-1.1,4-2.3,4-3.3
					v-24.8c-4.6,3.3-15,5-25.2,5C185.1,109.5,174.8,107.8,170.2,104.5z"/>
			</g>
		</g>
	</g>
	<path class="st0" d="M194,128c2.3,1.7,5.7,1.7,7.9,0l1.7-1.3l-1.7-1.3c-2.3-1.7-5.7-1.7-7.9,0l-1.7,1.3L194,128z"/>
	<g>
		<defs>
			<rect id="SVGID_00000117666620767149129400000000567140312346578333_" x="207.1" y="59.1" width="39.9" height="8.4"/>
		</defs>
		<clipPath id="SVGID_00000023239328674320961960000006037707143061067935_">
			<use xlink:href="#SVGID_00000117666620767149129400000000567140312346578333_"  style="overflow:visible;"/>
		</clipPath>
		<g style="clip-path:url(#SVGID_00000023239328674320961960000006037707143061067935_);">
			<path class="st0" d="M227.1,67.1c12.8,0,19.9-2.8,19.9-4c0-1.2-7-4-19.9-4s-19.9,2.8-19.9,4C207.3,64.3,214.3,67.1,227.1,67.1z"
				/>
		</g>
	</g>
	<g>
		<defs>
			<rect id="SVGID_00000168104805665024486370000008271878793084215717_" x="207.1" y="76.9" width="39.9" height="35.5"/>
		</defs>
		<clipPath id="SVGID_00000125587260383700617350000008983245015306139297_">
			<use xlink:href="#SVGID_00000168104805665024486370000008271878793084215717_"  style="overflow:visible;"/>
		</clipPath>
		<g style="clip-path:url(#SVGID_00000125587260383700617350000008983245015306139297_);">
			<g>
				<path class="st0" d="M207.3,77v14.7c2.5,0.4,4.9,0.8,7,1.5c1.3-6,6.6-10.2,12.8-10.2c7.3,0,13.2,6,13.2,13.2
					c0,7.3-6,13.2-13.2,13.2c-1.3,0-2.6-0.3-4-0.7v3.2c1.3,0,2.6,0.1,4,0.1c12.8,0,19.9-2.8,19.9-4V77c-4.6,2.5-14.2,3.3-19.9,3.3
					C221.4,80.4,211.9,79.6,207.3,77z"/>
			</g>
		</g>
	</g>
	<g>
		<defs>
			<rect id="SVGID_00000060027981944520775120000008373137683396276138_" x="207.1" y="66.1" width="39.9" height="11.7"/>
		</defs>
		<clipPath id="SVGID_00000057843106409646915200000012859622153063197875_">
			<use xlink:href="#SVGID_00000060027981944520775120000008373137683396276138_"  style="overflow:visible;"/>
		</clipPath>
		<g style="clip-path:url(#SVGID_00000057843106409646915200000012859622153063197875_);">
			<g>
				<path class="st0" d="M227.1,69.8c-5.7,0-15.2-0.8-19.9-3.3v7.3c0,1.2,7,4,19.9,4s19.9-2.8,19.9-4v-7.3
					C242.4,69,232.8,69.8,227.1,69.8z"/>
			</g>
		</g>
	</g>
	<path class="st0" d="M223.2,106c1.3,0.5,2.6,0.8,4,0.8c5.4,0,9.9-4.1,10.5-9.4l-0.1,0.1c-1.3,0.9-2.8,1.3-4.4,1.3
		c-1.6,0-3-0.4-4.4-1.3l-0.7-0.4c-0.9-0.7-1.9-0.9-2.9-0.9h-1.3c-0.8,0-1.6,0.1-2.4,0.5c1.1,1.1,1.7,2.1,1.7,3.4V106z"/>
	<g>
		<defs>
			<rect id="SVGID_00000088850775533402389840000003393422203029457828_" x="222.8" y="111.1" width="24.2" height="14.4"/>
		</defs>
		<clipPath id="SVGID_00000091007849083405281030000001534573616444488352_">
			<use xlink:href="#SVGID_00000088850775533402389840000003393422203029457828_"  style="overflow:visible;"/>
		</clipPath>
		<g style="clip-path:url(#SVGID_00000091007849083405281030000001534573616444488352_);">
			<g>
				<path class="st0" d="M223.2,114.7v10.6c1.3,0,2.6,0.1,4,0.1c12.8,0,19.9-2.8,19.9-4v-9.9c-4.6,2.5-14.2,3.3-19.9,3.3
					C225.8,114.8,224.5,114.8,223.2,114.7z"/>
			</g>
		</g>
	</g>
	<g>
		<defs>
			<rect id="SVGID_00000043453713847275249010000012880500708620653748_" x="170.2" y="93.5" width="50.4" height="13.5"/>
		</defs>
		<clipPath id="SVGID_00000054232883865891698810000008468446703362752394_">
			<use xlink:href="#SVGID_00000043453713847275249010000012880500708620653748_"  style="overflow:visible;"/>
		</clipPath>
		<g style="clip-path:url(#SVGID_00000054232883865891698810000008468446703362752394_);">
			<g>
				<path class="st0" d="M195.3,93.6c-15.6,0-25.2,3.8-25.2,6.6c0,2.8,9.5,6.6,25.2,6.6s25.2-3.8,25.2-6.6
					C220.5,97.4,211,93.6,195.3,93.6z M183.4,104.2c-3.8,0-6.6-1.7-6.6-4s2.8-4,6.6-4c3.7,0,6.6,1.7,6.6,4S187.1,104.2,183.4,104.2z
					"/>
			</g>
		</g>
	</g>
	<path class="st0" d="M223.8,93.6h1.3c1.6,0,3,0.4,4.4,1.3l0.7,0.4c1.7,1.2,4.1,1.2,5.8,0l1.6-1.1c-0.9-4.9-5.3-8.6-10.5-8.6
		c-5,0-9.4,3.6-10.3,8.5c0.8,0.3,1.6,0.7,2.4,1.1l0.4-0.3C220.8,94,222.2,93.6,223.8,93.6z"/>
</g>
<g>
	<defs>
		<rect id="SVGID_00000178172747730839991010000006392461234035155354_" x="151.2" y="-46" width="79.5" height="79.9"/>
	</defs>
	<clipPath id="SVGID_00000109000525714052561150000017004289973279947191_">
		<use xlink:href="#SVGID_00000178172747730839991010000006392461234035155354_"  style="overflow:visible;"/>
	</clipPath>
	<g style="clip-path:url(#SVGID_00000109000525714052561150000017004289973279947191_);">
		<path class="st0" d="M164.3,14.1c-3.9,0-6.8-0.5-6.8-0.5v10.6c0,2,1.6,3.6,3.6,3.6h21.5c2,0,3.6-1.6,3.6-3.6V13.7
			c0,0-2.9,0.5-6.8,0.5c-2.3,0-4.9-0.7-7.5-0.7C169.1,13.4,166.5,14.1,164.3,14.1z M208.7-35.3l1.1-4.2l4.2-1.2l-4.2-1.2l-1.1-4.2
			l-1.2,4.2l-4.3,1.2l4.3,1.2L208.7-35.3z M205.1-18.1l1.6-6.1l6.1-1.7l-6.1-1.7l-1.6-6.1l-1.7,6.1l-6.2,1.7l6.2,1.7L205.1-18.1z
			 M216.6,19.7c-2.3,0-5.8-1.1-8.1-1.1c-2.5,0-4.8,1.1-6.8,1.1c-3.6,0-5.6-1.1-5.6-1.1s0,8.2,0,12.5c0,1.9,1,2.5,2.4,2.5h30.2
			c1.1,0,1.8-0.6,1.8-2.1c0-3.9,0-11.8,0-11.8s-1.2-1.1-6.1-1.1C222.6,18.7,218.7,19.7,216.6,19.7z M224.5,12.4
			c-1.9,0-5.7,1.1-7.9,1.1c-2.3,0-5.8-1.1-8.1-1.1c-2.5,0-4.8,1.1-6.8,1.1c-3.6,0-5.6-1.1-5.6-1.1v3.7c0,0,2,1.1,5.6,1.1
			c2,0,4.3-1.1,6.8-1.1c2.2,0,5.8,1.1,8.1,1.1c2.1,0,6-1.1,7.9-1.1c4.9,0,6.1,1.1,6.1,1.1v-3.7C230.6,13.5,229.4,12.4,224.5,12.4z
			 M188.1,24.5c0,2.9-2.4,5.3-5.3,5.3h-22.1c-2.9,0-5.3-2.4-5.3-5.3v-9.8c0-5.7,7-10.8,9-15.9c1.9-4.7,1.8-11.8,1.8-11.8
			c0-1.1,0.9-2.3,1.9-2.3h7.1c1.1,0,1.9,0.9,1.9,1.9c0,0,0.5,8.8,1.8,12.5c2,5.3,9,9.2,9,15.6V24.5z M181.3-13.4
			c0-3.1-2.3-5.6-5.3-6c0.3-1.6,1-2.8,1.9-4.1c1,1.4,2.8,4.2,7.7,3.8c0,0,0.7,0,0.7-0.7c0-0.7-0.7-0.7-0.7-0.7s-3.5-0.3-4.8-5.1
			c1.3-0.8,3.4-1.4,5-1.6v-7.5h-18.6c-8.4,0-9.7,10.8-9.7,10.8s2.6,0,5.2,0c2.4,0,4.8,0,4.8,0v5.2c-3,0.4-5.3,2.9-5.3,6
			c0,0,0.5,5-1.2,9.6c-1.5,4.3-9.7,11-9.7,18.5v9.8c0,5.2,4.2,9.4,9.4,9.4h22.1c5.2,0,9.4-4.2,9.4-9.4v-9.8c0-7.6-8.3-13.8-9.7-18.5
			C181.2-8.5,181.3-13.4,181.3-13.4z M206.3,5.8c-1.6,0-2.9-1.3-2.9-2.9c0-1.6,1.3-2.9,2.9-2.9s2.9,1.3,2.9,2.9
			C209.2,4.5,207.9,5.8,206.3,5.8z M206.3-1.8c-2.6,0-4.7,2.1-4.7,4.7c0,2.6,2.1,4.7,4.7,4.7s4.7-2.1,4.7-4.7
			C211.1,0.3,209-1.8,206.3-1.8z M191.8-34.7c-1.6,0-4.4,0-4.4,0v6.2c0,0,2.9,0,4.4,0c0.6,0,1.1-0.4,1.1-1.2v-3.8
			C192.9-34.2,192.2-34.7,191.8-34.7z M217-31.3l1.2,4.2l1.2-4.2l4.2-1.2l-4.2-1.2l-1.2-4.2l-1.2,4.2l-4.3,1.2L217-31.3z
			 M210.5-13.8c-0.2,0-1,0.3-1.3,0.5c-0.2,0.2-0.5,0.5-0.5,0.7c-0.1,0.2-0.1,0.5-0.1,0.6c0.1,0.1,0.3,0.3,0.5,0.2
			c0.2-0.1,0.3-0.2,0.4-0.4c0-0.1,0-0.3,0.4-0.5c0.3-0.2,0.6-0.2,0.8-0.3c0.2,0,0.3-0.3,0.3-0.5C210.9-13.6,210.8-13.8,210.5-13.8z
			 M226.8-2.3c0,2.8-2.2,5-5,5c-2.8,0-5-2.2-5-5c0-2.7,2.2-5,5-5C224.5-7.3,226.8-5.1,226.8-2.3z M214.9-2.3c0,3.8,3.1,6.9,6.9,6.9
			c3.8,0,6.9-3.1,6.9-6.9c0-3.8-3.1-6.9-6.9-6.9C218-9.2,214.9-6.1,214.9-2.3z M221.3-5.5c-0.4,0-1.5,0.4-1.8,0.7
			c-0.3,0.3-0.7,0.7-0.8,1c-0.1,0.3-0.2,0.7-0.1,0.9c0.1,0.2,0.4,0.4,0.7,0.3c0.3-0.1,0.5-0.3,0.5-0.5c0.1-0.2,0.1-0.4,0.5-0.7
			c0.5-0.3,0.8-0.3,1.2-0.4c0.3-0.1,0.5-0.4,0.4-0.7C221.9-5.3,221.7-5.5,221.3-5.5z M206.4,1.1c-0.2,0-1,0.3-1.3,0.5
			c-0.2,0.2-0.5,0.5-0.6,0.7c-0.1,0.2-0.1,0.5-0.1,0.6c0.1,0.1,0.3,0.3,0.5,0.2c0.2,0,0.3-0.2,0.4-0.4c0-0.1,0.1-0.3,0.4-0.5
			C206,2,206.3,2,206.5,2c0.2,0,0.3-0.3,0.3-0.5C206.8,1.3,206.6,1.1,206.4,1.1z M210.6-9c-1.6,0-2.9-1.3-2.9-2.9s1.3-2.9,2.9-2.9
			c1.6,0,2.9,1.3,2.9,2.9S212.2-9,210.6-9z M215.3-11.8c0-2.6-2.1-4.7-4.7-4.7s-4.7,2.1-4.7,4.7c0,2.6,2.1,4.7,4.7,4.7
			S215.3-9.2,215.3-11.8"/>
	</g>
</g>
<path class="st0" d="M23.8,54.8h19.8V43.5H23.8V54.8"/>
<path class="st0" d="M28.5,9.6c-0.7,0-1.1,0.2-1.4,0.5c-1.3,1.4,0,5.8,3.8,9.7c2.6,2.7,5.7,4.4,7.9,4.4c0.6,0,1.1-0.2,1.4-0.5
	c1.3-1.4,0-5.8-3.8-9.7C33.8,11.3,30.7,9.6,28.5,9.6"/>
<path class="st0" d="M28.9,21.7c-0.9-0.9-1.6-1.8-2.2-2.7v21.6h14.1V26.6c-0.6,0.2-1.3,0.4-2,0.4C35.8,27,32.1,25,28.9,21.7"/>
<g>
	<defs>
		<rect id="SVGID_00000099659382861823194130000007736093094518527901_" x="21" y="57.6" width="25.5" height="31.2"/>
	</defs>
	<use xlink:href="#SVGID_00000099659382861823194130000007736093094518527901_"  style="overflow:visible;fill:#F48156;"/>
	<clipPath id="SVGID_00000060007828629224466060000010202330428139459765_">
		<use xlink:href="#SVGID_00000099659382861823194130000007736093094518527901_"  style="overflow:visible;"/>
	</clipPath>
	<g style="clip-path:url(#SVGID_00000060007828629224466060000010202330428139459765_);">
		<path class="st0" d="M21,88.7h25.4V57.7H21V88.7"/>
	</g>
</g>
<g>
	<defs>
		<rect id="SVGID_00000161628018066092256550000014570012985959763626_" x="57.3" y="57.6" width="11.7" height="31.2"/>
	</defs>
	<use xlink:href="#SVGID_00000161628018066092256550000014570012985959763626_"  style="overflow:visible;fill:#F48156;"/>
	<clipPath id="SVGID_00000122685425026914504290000005827303858383667861_">
		<use xlink:href="#SVGID_00000161628018066092256550000014570012985959763626_"  style="overflow:visible;"/>
	</clipPath>
	<g style="clip-path:url(#SVGID_00000122685425026914504290000005827303858383667861_);">
		<path class="st0" d="M57.7,88.7H69V57.7H57.7V88.7"/>
	</g>
</g>
<g>
	<defs>
		<rect id="SVGID_00000016784105271320522960000009651627776974358972_" x="57.3" y="6.7" width="11.7" height="48.6"/>
	</defs>
	<clipPath id="SVGID_00000032612070941559205970000004142103473480715960_">
		<use xlink:href="#SVGID_00000016784105271320522960000009651627776974358972_"  style="overflow:visible;"/>
	</clipPath>
	<g style="clip-path:url(#SVGID_00000032612070941559205970000004142103473480715960_);">
		<path class="st0" d="M57.7,32.2V35H62v19.8h2.8V35H69v-2.8h-4.2v-2.8H69v-2.8h-4.2v-2.8H69v-2.8h-4.2v-2.8H69v-2.8h-4.2v-2.8h2.8
			V9.6h-2.8V6.8H62v2.8h-2.8v2.8H62v2.8h-4.2v2.8H62v2.8h-4.2v2.8H62v2.8h-4.2v2.8H62v2.8H57.7"/>
	</g>
</g>
</svg>
