<?xml version="1.0" encoding="utf-8"?>
<!-- Generator: Adobe Illustrator 26.0.1, SVG Export Plug-In . SVG Version: 6.00 Build 0)  -->
<svg version="1.1" id="Capa_1" xmlns="http://www.w3.org/2000/svg" xmlns:xlink="http://www.w3.org/1999/xlink" x="0px" y="0px"
	 viewBox="0 0 100 100" style="enable-background:new 0 0 100 100;" xml:space="preserve">
<style type="text/css">
	.st0{fill:#F48156;}
	.st1{clip-path:url(#SVGID_00000147221720073473490090000016760390430923017880_);}
	.st2{clip-path:url(#SVGID_00000019644862091643457070000003318663848431899286_);}
	.st3{clip-path:url(#SVGID_00000140006765438516956940000017130905461269242251_);}
	.st4{clip-path:url(#SVGID_00000127043270714424759210000015245523910541316243_);}
	.st5{clip-path:url(#SVGID_00000154383414684098486540000001317915521725383092_);}
	.st6{fill:none;stroke:#FFFFFF;stroke-width:2.4167;stroke-linecap:round;stroke-linejoin:round;stroke-miterlimit:10;}
	.st7{clip-path:url(#SVGID_00000183233934057189618570000015830000509527714233_);}
	.st8{clip-path:url(#SVGID_00000114039048668384834300000011797592254146460825_);}
	.st9{fill:none;stroke:#FFFFFF;stroke-width:2.8808;stroke-linecap:round;stroke-linejoin:round;stroke-miterlimit:10;}
	.st10{fill:none;stroke:#F48156;stroke-miterlimit:10;}
	.st11{clip-path:url(#SVGID_00000008127418617512141040000003126998193177413009_);}
	.st12{fill:none;stroke:#FFFFFF;stroke-width:2.0613;stroke-linecap:round;stroke-linejoin:round;stroke-miterlimit:10;}
	.st13{clip-path:url(#SVGID_00000150785505251526882670000000347165349229413013_);}
	.st14{clip-path:url(#SVGID_00000066512932943896880480000017362959207786430633_);}
	.st15{fill:none;stroke:#FFFFFF;stroke-width:2.4572;stroke-linecap:round;stroke-linejoin:round;stroke-miterlimit:10;}
</style>
<g>
	<path class="st0" d="M125-31.4c0.9,0,1.6-0.7,1.6-1.6v-9.4c0-2.6,2.1-4.7,4.7-4.7c2.6,0,4.7,2.1,4.7,4.7v17.2
		c0,0.9,0.7,1.6,1.6,1.6c0.9,0,1.6-0.7,1.6-1.6v-25c0-2.6,2.1-4.7,4.7-4.7c2.6,0,4.7,2.1,4.7,4.7v10.9c0,0.9,0.7,1.6,1.6,1.6
		c0.9,0,1.6-0.7,1.6-1.6v-14c0-3-2-5.6-4.9-6.3l-0.8-0.2l-0.3-0.8c-0.8-2.2-2.9-3.7-5.2-3.7h-5.6c-2.3,0-4.4,1.5-5.2,3.7l-0.3,0.8
		l-0.8,0.2c-2.9,0.7-4.9,3.4-4.9,6.3v20.3C123.4-32.1,124.1-31.4,125-31.4"/>
	<path class="st0" d="M131.2-43.9c-0.9,0-1.6,0.7-1.6,1.6v9.4c0,1.6-0.8,3-2,3.8l-1,11.8h21.6l-1.5-18.5c-0.9-0.9-1.4-2.1-1.4-3.4
		v-10.9c0-0.9-0.7-1.6-1.6-1.6c-0.9,0-1.6,0.7-1.6,1.6v25c0,2.6-2.1,4.7-4.7,4.7c-2.6,0-4.7-2.1-4.7-4.7v-17.2
		C132.8-43.2,132.1-43.9,131.2-43.9"/>
	<path class="st0" d="M137.5-67.3c1.7,0,3.1-1.4,3.1-3.1s-1.4-3.1-3.1-3.1c-1.7,0-3.1,1.4-3.1,3.1S135.7-67.3,137.5-67.3"/>
	<path class="st0" d="M151.4-17.3h13.4l-4.4-27.5c-0.4-3.2-2.7-5.7-5.7-6.6v12.2c0,2.6-2.1,4.7-4.7,4.7L151.4-17.3"/>
	<path class="st0" d="M124.5-28.3c-2.3-0.3-4.2-2.2-4.2-4.6v-18.5c-3,0.8-5.3,3.4-5.7,6.6l-3.4,27.5h12.4L124.5-28.3"/>
	<g>
		<g>
			<defs>
				<rect id="SVGID_1_" x="118.8" y="13.5" width="37.3" height="3.5"/>
			</defs>
			<clipPath id="SVGID_00000072278676548075554300000011675503290025349265_">
				<use xlink:href="#SVGID_1_"  style="overflow:visible;"/>
			</clipPath>
		</g>
		<g>
			<defs>
				<rect id="SVGID_00000178927880861863136120000014868608803519287448_" x="118.8" y="13.5" width="37.3" height="3.5"/>
			</defs>
			<use xlink:href="#SVGID_00000178927880861863136120000014868608803519287448_"  style="overflow:visible;fill:#F48156;"/>
			<clipPath id="SVGID_00000022545158081233621780000008030788025715992714_">
				<use xlink:href="#SVGID_00000178927880861863136120000014868608803519287448_"  style="overflow:visible;"/>
			</clipPath>
			<g style="clip-path:url(#SVGID_00000022545158081233621780000008030788025715992714_);">
				<path class="st0" d="M151.5,13.9h-28.1c-2,0-3.8,1.3-4.4,3.1h36.9C155.3,15.2,153.5,13.9,151.5,13.9"/>
			</g>
		</g>
		<g>
			<defs>
				<rect id="SVGID_00000000199684742627574550000003625784529890195605_" x="118.8" y="13.5" width="37.3" height="3.5"/>
			</defs>
			<clipPath id="SVGID_00000137840829142797529540000017869833744784427660_">
				<use xlink:href="#SVGID_00000000199684742627574550000003625784529890195605_"  style="overflow:visible;"/>
			</clipPath>
		</g>
	</g>
	<g>
		<g>
			<defs>
				<rect id="SVGID_00000058566936388752850260000004476843857808641466_" x="107.9" y="-14.2" width="60.1" height="9.4"/>
			</defs>
			<clipPath id="SVGID_00000065036127313301924300000008768736687371082395_">
				<use xlink:href="#SVGID_00000058566936388752850260000004476843857808641466_"  style="overflow:visible;"/>
			</clipPath>
		</g>
		<g>
			<defs>
				<rect id="SVGID_00000175308653473617570960000011171018733380645771_" x="107.9" y="-14.2" width="60.1" height="9.4"/>
			</defs>
			<use xlink:href="#SVGID_00000175308653473617570960000011171018733380645771_"  style="overflow:visible;fill:#F48156;"/>
			<clipPath id="SVGID_00000155117464834006222080000009128211066551713438_">
				<use xlink:href="#SVGID_00000175308653473617570960000011171018733380645771_"  style="overflow:visible;"/>
			</clipPath>
			<g style="clip-path:url(#SVGID_00000155117464834006222080000009128211066551713438_);">
				<path class="st0" d="M167-11.1c0.5-1,0.8-2,1-3.1h-60.1c0.2,1.1,0.5,2.2,1,3.1h11.4v3.1h-9.2c2,1.9,4.7,3.1,7.6,3.1h37.4
					c3,0,6.7-1.2,8.6-3.1h-41.4v-3.1H167"/>
			</g>
		</g>
		<g>
			<defs>
				<rect id="SVGID_00000131357798846979738340000002796687657837461180_" x="107.9" y="-14.2" width="60.1" height="9.4"/>
			</defs>
			<clipPath id="SVGID_00000152232376489044555950000001092937628463128250_">
				<use xlink:href="#SVGID_00000131357798846979738340000002796687657837461180_"  style="overflow:visible;"/>
			</clipPath>
		</g>
	</g>
	<path class="st0" d="M134.3-1.7v12.5h6.2V-1.7H134.3"/>
</g>
<g>
	<defs>
		<rect id="SVGID_00000076586569110356037810000013097997809015841963_" x="200.7" y="28.5" width="71.4" height="49.9"/>
	</defs>
	<clipPath id="SVGID_00000151523719195054029710000012463420768445386165_">
		<use xlink:href="#SVGID_00000076586569110356037810000013097997809015841963_"  style="overflow:visible;"/>
	</clipPath>
	<g style="clip-path:url(#SVGID_00000151523719195054029710000012463420768445386165_);">
		<path class="st0" d="M271.6,29.3c-0.3-0.5-0.9-0.7-1.4-0.7h-17.8c-1,0-1.8,0.8-1.8,1.8c0,6.9-5.6,12.5-12.5,12.5h-3.6
			c-6.9,0-12.5-5.6-12.5-12.5c0-1-0.8-1.8-1.8-1.8h-17.8c-0.6,0-1.1,0.3-1.4,0.7c-0.3,0.5-0.4,1-0.3,1.6l12.7,41.2
			c1.2,3.8,4.6,6.3,8.5,6.3h28.6c3.9,0,7.3-2.5,8.5-6.3l12.7-41.2C272.1,30.4,272,29.8,271.6,29.3z"/>
	</g>
</g>
<path class="st0" d="M261.3,32.2c-0.1,0-0.2,0-0.3,0c-1-0.1-1.6-1-1.5-2l1.6-10.9l-3.6-0.9L256,30.6c-0.1,1-1,1.6-2,1.5
	c-1-0.1-1.7-1-1.5-2l1.8-14.2c0.1-0.5,0.3-1,0.8-1.2c0.4-0.3,0.9-0.4,1.4-0.3l7.1,1.8c0.9,0.2,1.5,1.1,1.3,2l-1.8,12.5
	C262.9,31.5,262.2,32.2,261.3,32.2z"/>
<path class="st0" d="M239.9,44.6C239.9,44.6,239.9,44.6,239.9,44.6c-1.1-0.1-1.8-0.9-1.8-1.9l1.8-33.8c0.1-0.9,0.8-1.7,1.8-1.7h7.1
	c0.5,0,1,0.2,1.3,0.6c0.3,0.4,0.5,0.8,0.5,1.3l-1.8,32c-0.1,1-0.9,1.7-1.9,1.7c-1-0.1-1.7-0.9-1.7-1.9l1.7-30.2h-3.5l-1.7,32.1
	C241.7,43.9,240.9,44.6,239.9,44.6z"/>
<path class="st0" d="M204.3,32.2c-0.9,0-1.6-0.6-1.8-1.5L199,9.3c-0.2-0.9,0.5-1.8,1.4-2l8.9-1.8c0.5-0.1,1,0,1.4,0.3
	c0.4,0.3,0.7,0.7,0.7,1.2l1.8,10.7c0.2,1-0.5,1.9-1.5,2c-1,0.2-1.9-0.5-2-1.5l-1.5-8.9l-5.4,1.1l3.3,19.7c0.2,1-0.5,1.9-1.5,2
	C204.5,32.1,204.4,32.2,204.3,32.2z"/>
<path class="st0" d="M213.2,32.2c-0.9,0-1.6-0.6-1.8-1.5l-1.8-12.5c-0.1-0.9,0.4-1.8,1.3-2l5.7-1.4l-1.5-12.4l-3.8,1v3.9
	c0,1-0.8,1.8-1.8,1.8c-1,0-1.8-0.8-1.8-1.8V1.9c0-0.8,0.6-1.5,1.3-1.7l7.1-1.8c0.5-0.1,1,0,1.4,0.3c0.4,0.3,0.7,0.7,0.8,1.3
	l3.6,30.3c0.1,1-0.6,1.9-1.6,2c-1,0.1-1.9-0.6-2-1.5l-1.5-12.2l-3.6,0.9l1.6,10.9c0.1,1-0.5,1.9-1.5,2
	C213.4,32.2,213.3,32.2,213.2,32.2z"/>
<path class="st0" d="M227.5,10.8c-0.8,0-1.5-0.5-1.7-1.3l-3-10.4l-5.2,2.6c-0.9,0.4-1.9,0.1-2.4-0.8c1.3-3.5,0.8-3.3,0.8-2.4
	l7.1-3.6c0.5-0.2,1-0.3,1.5,0c0.5,0.2,0.9,0.6,1,1.1l3.6,12.5c0.3,0.9-0.3,1.9-1.2,2.2C227.8,10.8,227.6,10.8,227.5,10.8z"/>
<g>
	<defs>
		<rect id="SVGID_00000036955166882792151680000008429483122363915961_" x="223.7" y="-7" width="16.5" height="53.5"/>
	</defs>
	<clipPath id="SVGID_00000036209050031019648110000000007122165395882893_">
		<use xlink:href="#SVGID_00000036955166882792151680000008429483122363915961_"  style="overflow:visible;"/>
	</clipPath>
	<g style="clip-path:url(#SVGID_00000036209050031019648110000000007122165395882893_);">
		<g>
			<path class="st0" d="M234.6,46.4C234.6,46.4,234.6,46.4,234.6,46.4c-1,0-1.7-0.8-1.8-1.7l-1.7-33.9h-1.8c0,0,0,0-0.1,0h-1.7
				l1.7,31.9c0.1,1-0.7,1.8-1.7,1.9c-1,0-1.8-0.7-1.9-1.7l-1.8-33.8c0-0.5,0.2-1,0.5-1.3c0.3-0.4,0.8-0.6,1.3-0.6h2l1.6-12.7
				c0.1-0.9,0.9-1.6,1.8-1.6h7.1c0.5,0,1,0.2,1.3,0.6c0.3,0.4,0.5,0.8,0.5,1.3l-3.6,49.8C236.3,45.7,235.5,46.4,234.6,46.4z
				 M231.3,7.2h1.5c1,0,1.7,0.7,1.8,1.7l0.3,6.3l1.3-18.7h-3.6L231.3,7.2z"/>
		</g>
	</g>
</g>
<path class="st0" d="M245.3,10.8c-1,0-1.8-0.8-1.8-1.8V0.1h-5.3c-1,0-1.8-0.8-1.8-1.8c0-1,0.8-1.8,1.8-1.8h7.1c1,0,1.8,0.8,1.8,1.8
	V9C247.1,10,246.3,10.8,245.3,10.8z"/>
<path class="st0" d="M252.4,32.2c-0.1,0-0.2,0-0.3,0c-1-0.1-1.6-1-1.5-2L254,6.9l-9-1.5c-1-0.2-1.6-1.1-1.5-2s1.1-1.6,2-1.5
	l10.7,1.8c1,0.2,1.6,1,1.5,2l-3.6,24.9C254,31.5,253.3,32.2,252.4,32.2z"/>
<path class="st0" d="M266.6,32.2c-0.2,0-0.4,0-0.6-0.1c-0.9-0.3-1.4-1.3-1.1-2.2l6.6-19.9l-4.1-2.1l-4.5,9.1
	c-0.4,0.9-1.5,1.2-2.4,0.8c-0.9-0.4-1.2-1.5-0.8-2.4l5.3-10.7c0.4-0.9,1.5-1.2,2.4-0.8l7.1,3.6c0.8,0.4,1.2,1.3,0.9,2.2l-7.1,21.4
	C268.1,31.7,267.4,32.2,266.6,32.2z"/>
<path class="st0" d="M263.1,14.4c-1,0-1.8-0.8-1.8-1.8V0.1h-3.6v5.3c0,1-0.8,1.8-1.8,1.8c-1,0-1.8-0.8-1.8-1.8v-7.1
	c0-1,0.8-1.8,1.8-1.8h7.1c1,0,1.8,0.8,1.8,1.8v14.2C264.9,13.6,264.1,14.4,263.1,14.4z"/>
<path class="st0" d="M75.2,82.5V31.8H46.9v51h0c0,0,0,0.1,0,0.1c0,1.6,6.4,2.9,14.2,2.9c7.9,0,14.2-1.3,14.2-2.9
	C75.3,82.8,75.3,82.7,75.2,82.5"/>
<g>
	<defs>
		<rect id="SVGID_00000147925946443753710770000013100251805075689634_" x="46.1" y="30.7" width="29.9" height="55.8"/>
	</defs>
	<clipPath id="SVGID_00000139276733389638212210000013343030923108270728_">
		<use xlink:href="#SVGID_00000147925946443753710770000013100251805075689634_"  style="overflow:visible;"/>
	</clipPath>
	<g style="clip-path:url(#SVGID_00000139276733389638212210000013343030923108270728_);">
		<path class="st6" d="M75.2,82.5V31.8H46.9v51h0c0,0,0,0.1,0,0.1c0,1.6,6.4,2.9,14.2,2.9c7.9,0,14.2-1.3,14.2-2.9
			C75.3,82.8,75.3,82.7,75.2,82.5z"/>
	</g>
</g>
<path class="st0" d="M57.4,40.6c0.2,0,0.4,0,0.6,0c0.6,0,1.2,0.1,1.7,0.4c0.4,0.3,0.6,0.7,0.8,1.2c0.5,1.3,0.6,2.8,1.5,4
	c0.8,1.2,2.7,1.8,3.6,0.7c0.4-0.5,0.6-1.2,0.7-1.8c0.3-1.2,0.6-2.4,1.1-3.5c0.4-0.9,1.4-2,2.2-1.4c0.3,0.2,0.4,0.6,0.6,0.9
	c0.8,1.2,2.9,1.3,4.1,0.5c1.1-0.8,1-2,1-3.2c0-0.5,0-6.6,0-6.6H46.9c0,2.1-0.4,4.7,0,6.8C47.5,41.7,54.4,40.7,57.4,40.6"/>
<path class="st6" d="M57.4,40.6c0.2,0,0.4,0,0.6,0c0.6,0,1.2,0.1,1.7,0.4c0.4,0.3,0.6,0.7,0.8,1.2c0.5,1.3,0.6,2.8,1.5,4
	c0.8,1.2,2.7,1.8,3.6,0.7c0.4-0.5,0.6-1.2,0.7-1.8c0.3-1.2,0.6-2.4,1.1-3.5c0.4-0.9,1.4-2,2.2-1.4c0.3,0.2,0.4,0.6,0.6,0.9
	c0.8,1.2,2.9,1.3,4.1,0.5c1.1-0.8,1-2,1-3.2c0-0.5,0-6.6,0-6.6H46.9c0,2.1-0.4,4.7,0,6.8C47.5,41.7,54.4,40.7,57.4,40.6z"/>
<path class="st0" d="M75.3,31.8c0,1.6-6.4,2.9-14.2,2.9c-7.9,0-14.2-1.3-14.2-2.9c0-1.6,6.4-2.9,14.2-2.9
	C69,28.9,75.3,30.2,75.3,31.8"/>
<g>
	<defs>
		<rect id="SVGID_00000049198761768001014210000010701013575551541425_" x="46.1" y="28" width="29.9" height="7.6"/>
	</defs>
	<clipPath id="SVGID_00000178173461492974632140000013112290485789496195_">
		<use xlink:href="#SVGID_00000049198761768001014210000010701013575551541425_"  style="overflow:visible;"/>
	</clipPath>
	<g style="clip-path:url(#SVGID_00000178173461492974632140000013112290485789496195_);">
		<path class="st6" d="M75.3,31.8c0,1.6-6.4,2.9-14.2,2.9c-7.9,0-14.2-1.3-14.2-2.9c0-1.6,6.4-2.9,14.2-2.9
			C69,28.9,75.3,30.2,75.3,31.8z"/>
	</g>
</g>
<path class="st0" d="M67.6,21.4c0,3.6-2.9,6.6-6.6,6.6c-3.6,0-6.6-2.9-6.6-6.6S61,6.2,61,6.2S67.6,17.8,67.6,21.4"/>
<g>
	<defs>
		<rect id="SVGID_00000082327554559466045060000000194791287095752087_" x="53.2" y="5.4" width="15.2" height="23.7"/>
	</defs>
	<clipPath id="SVGID_00000034782415075074376670000001563292350106437512_">
		<use xlink:href="#SVGID_00000082327554559466045060000000194791287095752087_"  style="overflow:visible;"/>
	</clipPath>
	<g style="clip-path:url(#SVGID_00000034782415075074376670000001563292350106437512_);">
		<path class="st9" d="M67.6,21.4c0,3.6-2.9,6.6-6.6,6.6c-3.6,0-6.6-2.9-6.6-6.6S61,6.2,61,6.2S67.6,17.8,67.6,21.4z"/>
	</g>
</g>
<path class="st10" d="M64.3,23c0,1.8-1.5,3.3-3.3,3.3c-1.8,0-3.3-1.5-3.3-3.3s3.3-7.6,3.3-7.6S64.3,21.2,64.3,23"/>
<path class="st10" d="M61.1,31.6V20.8"/>
<path class="st0" d="M46.7,82.2V38.9H22.5v43.5h0c0,0,0,0.1,0,0.1c0,1.4,5.4,2.5,12.1,2.5c6.7,0,12.1-1.1,12.1-2.5
	C46.8,82.4,46.8,82.3,46.7,82.2"/>
<g>
	<defs>
		<rect id="SVGID_00000034048485669787170950000014372677714931609023_" x="21.8" y="38.4" width="25.9" height="47.3"/>
	</defs>
	<clipPath id="SVGID_00000160185790710674521120000014749868449347886759_">
		<use xlink:href="#SVGID_00000034048485669787170950000014372677714931609023_"  style="overflow:visible;"/>
	</clipPath>
	<g style="clip-path:url(#SVGID_00000160185790710674521120000014749868449347886759_);">
		<path class="st12" d="M46.7,82.2V38.9H22.5v43.5h0c0,0,0,0.1,0,0.1c0,1.4,5.4,2.5,12.1,2.5c6.7,0,12.1-1.1,12.1-2.5
			C46.8,82.4,46.8,82.3,46.7,82.2z"/>
	</g>
</g>
<path class="st0" d="M31.5,46.4c0.2,0,0.4,0,0.5,0c0.5,0,1,0.1,1.4,0.4c0.3,0.3,0.5,0.6,0.6,1c0.4,1.1,0.6,2.4,1.2,3.4
	c0.7,1,2.3,1.5,3.1,0.6c0.4-0.4,0.5-1,0.6-1.5c0.2-1,0.5-2,0.9-3c0.3-0.8,1.2-1.7,1.9-1.2c0.3,0.2,0.4,0.5,0.6,0.8
	c0.7,1,2.5,1.1,3.5,0.4c0.9-0.6,0.8-1.7,0.8-2.7c0-0.4,0-5.7,0-5.7H22.5c0,1.8-0.4,4,0,5.8C23.1,47.3,28.9,46.5,31.5,46.4"/>
<g>
	<defs>
		<rect id="SVGID_00000052094019263574723490000012313307758124826758_" x="21.8" y="38.4" width="25.9" height="14.7"/>
	</defs>
	<clipPath id="SVGID_00000069374769291222262120000014857655543469229752_">
		<use xlink:href="#SVGID_00000052094019263574723490000012313307758124826758_"  style="overflow:visible;"/>
	</clipPath>
	<g style="clip-path:url(#SVGID_00000069374769291222262120000014857655543469229752_);">
		<path class="st12" d="M31.5,46.4c0.2,0,0.4,0,0.5,0c0.5,0,1,0.1,1.4,0.4c0.3,0.3,0.5,0.6,0.6,1c0.4,1.1,0.6,2.4,1.2,3.4
			c0.7,1,2.3,1.5,3.1,0.6c0.4-0.4,0.5-1,0.6-1.5c0.2-1,0.5-2,0.9-3c0.3-0.8,1.2-1.7,1.9-1.2c0.3,0.2,0.4,0.5,0.6,0.8
			c0.7,1,2.5,1.1,3.5,0.4c0.9-0.6,0.8-1.7,0.8-2.7c0-0.4,0-5.7,0-5.7H22.5c0,1.8-0.4,4,0,5.8C23.1,47.3,28.9,46.5,31.5,46.4z"/>
	</g>
</g>
<path class="st0" d="M46.8,38.9c0,1.4-5.4,2.5-12.1,2.5c-6.7,0-12.1-1.1-12.1-2.5c0-1.4,5.4-2.5,12.1-2.5
	C41.4,36.4,46.8,37.5,46.8,38.9"/>
<g>
	<defs>
		<rect id="SVGID_00000101783780992426447110000009468225042673752233_" x="21.8" y="35.6" width="25.9" height="6.5"/>
	</defs>
	<clipPath id="SVGID_00000180357627207051822140000016303845086527770261_">
		<use xlink:href="#SVGID_00000101783780992426447110000009468225042673752233_"  style="overflow:visible;"/>
	</clipPath>
	<g style="clip-path:url(#SVGID_00000180357627207051822140000016303845086527770261_);">
		<path class="st12" d="M46.8,38.9c0,1.4-5.4,2.5-12.1,2.5c-6.7,0-12.1-1.1-12.1-2.5c0-1.4,5.4-2.5,12.1-2.5
			C41.4,36.4,46.8,37.5,46.8,38.9z"/>
	</g>
</g>
<path class="st0" d="M40.2,30.1c0,3.1-2.5,5.6-5.6,5.6c-3.1,0-5.6-2.5-5.6-5.6c0-3.1,5.6-12.9,5.6-12.9S40.2,27,40.2,30.1"/>
<path class="st15" d="M40.2,30.1c0,3.1-2.5,5.6-5.6,5.6c-3.1,0-5.6-2.5-5.6-5.6c0-3.1,5.6-13,5.6-13S40.2,27,40.2,30.1z"/>
<path class="st0" d="M37.4,31.5c0,1.5-1.3,2.8-2.8,2.8c-1.5,0-2.8-1.3-2.8-2.8c0-1.5,2.8-6.5,2.8-6.5S37.4,29.9,37.4,31.5"/>
<path class="st10" d="M34.7,38.7v-9.2"/>
</svg>
