<?xml version="1.0" encoding="utf-8"?>
<!-- Generator: Adobe Illustrator 26.0.1, SVG Export Plug-In . SVG Version: 6.00 Build 0)  -->
<svg version="1.1" id="Capa_1" xmlns="http://www.w3.org/2000/svg" xmlns:xlink="http://www.w3.org/1999/xlink" x="0px" y="0px"
	 viewBox="0 0 100 100" style="enable-background:new 0 0 100 100;" xml:space="preserve">
<style type="text/css">
	.st0{fill:#F48156;}
	.st1{clip-path:url(#SVGID_00000016787730823165507020000006803325397244777351_);}
	.st2{clip-path:url(#SVGID_00000107548403686650589170000012599630102561887889_);}
	.st3{clip-path:url(#SVGID_00000181787279450829225270000010915112950071478670_);}
	.st4{clip-path:url(#SVGID_00000085241439270213270140000000729555187350971565_);}
	.st5{clip-path:url(#SVGID_00000155854338081985861520000009950903422330800778_);}
	.st6{fill:none;stroke:#FFFFFF;stroke-width:2.4167;stroke-linecap:round;stroke-linejoin:round;stroke-miterlimit:10;}
	.st7{clip-path:url(#SVGID_00000117638895821275058850000007671248905582556549_);}
	.st8{clip-path:url(#SVGID_00000036210891082991953090000013620156707685697959_);}
	.st9{fill:none;stroke:#FFFFFF;stroke-width:2.8808;stroke-linecap:round;stroke-linejoin:round;stroke-miterlimit:10;}
	.st10{fill:none;stroke:#F48156;stroke-miterlimit:10;}
	.st11{clip-path:url(#SVGID_00000023982780602465331260000014849656390627046800_);}
	.st12{fill:none;stroke:#FFFFFF;stroke-width:2.0613;stroke-linecap:round;stroke-linejoin:round;stroke-miterlimit:10;}
	.st13{clip-path:url(#SVGID_00000000930299024387634810000002186691738477590157_);}
	.st14{clip-path:url(#SVGID_00000050636825797093315020000005859185853291099018_);}
	.st15{fill:none;stroke:#FFFFFF;stroke-width:2.4572;stroke-linecap:round;stroke-linejoin:round;stroke-miterlimit:10;}
	.st16{clip-path:url(#SVGID_00000141434963484976115140000003855934423263223479_);}
	.st17{clip-path:url(#SVGID_00000176032251468042350760000003012422744565756591_);}
	.st18{clip-path:url(#SVGID_00000158736891709745716780000006432171460114435465_);}
	.st19{clip-path:url(#SVGID_00000130634257889862783630000010317257498368674719_);}
	.st20{clip-path:url(#SVGID_00000099639526835768885720000000334201990857534854_);}
	.st21{clip-path:url(#SVGID_00000045617942128583345480000006800312534442440602_);}
	.st22{clip-path:url(#SVGID_00000112629358998919670990000010971168245485349024_);}
	.st23{clip-path:url(#SVGID_00000170960967335521119490000015088975999238067374_);}
	.st24{clip-path:url(#SVGID_00000008145148158797778170000016459120958595921030_);}
	.st25{clip-path:url(#SVGID_00000024713549713052281540000001193260807554029987_);}
	.st26{clip-path:url(#SVGID_00000082360021345191822620000017857021180115402669_);}
	.st27{clip-path:url(#SVGID_00000166654328008844082250000006982575138900092069_);}
	.st28{clip-path:url(#SVGID_00000155825359016330943890000013997680470615623601_);}
	.st29{clip-path:url(#SVGID_00000057115739473143463440000001794082334648481971_);}
</style>
<g>
	<path class="st0" d="M108-74.4c0.9,0,1.6-0.7,1.6-1.6v-9.4c0-2.6,2.1-4.7,4.7-4.7c2.6,0,4.7,2.1,4.7,4.7v17.2
		c0,0.9,0.7,1.6,1.6,1.6c0.9,0,1.6-0.7,1.6-1.6v-25c0-2.6,2.1-4.7,4.7-4.7c2.6,0,4.7,2.1,4.7,4.7v10.9c0,0.9,0.7,1.6,1.6,1.6
		c0.9,0,1.6-0.7,1.6-1.6v-14c0-3-2-5.6-4.9-6.3l-0.8-0.2l-0.3-0.8c-0.8-2.2-2.9-3.7-5.2-3.7h-5.6c-2.3,0-4.4,1.5-5.2,3.7l-0.3,0.8
		l-0.8,0.2c-2.9,0.7-4.9,3.4-4.9,6.3v20.3C106.4-75.1,107.1-74.4,108-74.4"/>
	<path class="st0" d="M114.2-86.9c-0.9,0-1.6,0.7-1.6,1.6v9.4c0,1.6-0.8,3-2,3.8l-1,11.8h21.6l-1.5-18.5c-0.9-0.9-1.4-2.1-1.4-3.4
		v-10.9c0-0.9-0.7-1.6-1.6-1.6c-0.9,0-1.6,0.7-1.6,1.6v25c0,2.6-2.1,4.7-4.7,4.7c-2.6,0-4.7-2.1-4.7-4.7v-17.2
		C115.8-86.2,115.1-86.9,114.2-86.9"/>
	<path class="st0" d="M120.5-110.3c1.7,0,3.1-1.4,3.1-3.1s-1.4-3.1-3.1-3.1c-1.7,0-3.1,1.4-3.1,3.1S118.7-110.3,120.5-110.3"/>
	<path class="st0" d="M134.4-60.3h13.4l-4.4-27.5c-0.4-3.2-2.7-5.7-5.7-6.6v12.2c0,2.6-2.1,4.7-4.7,4.7L134.4-60.3"/>
	<path class="st0" d="M107.5-71.3c-2.3-0.3-4.2-2.2-4.2-4.6v-18.5c-3,0.8-5.3,3.4-5.7,6.6l-3.4,27.5h12.4L107.5-71.3"/>
	<g>
		<g>
			<defs>
				<rect id="SVGID_1_" x="101.8" y="-29.5" width="37.3" height="3.5"/>
			</defs>
			<clipPath id="SVGID_00000049914835199772300430000016486953863751116704_">
				<use xlink:href="#SVGID_1_"  style="overflow:visible;"/>
			</clipPath>
		</g>
		<g>
			<defs>
				<rect id="SVGID_00000178927880861863136120000014868608803519287448_" x="101.8" y="-29.5" width="37.3" height="3.5"/>
			</defs>
			<use xlink:href="#SVGID_00000178927880861863136120000014868608803519287448_"  style="overflow:visible;fill:#F48156;"/>
			<clipPath id="SVGID_00000043419491083186134060000010729493655221645702_">
				<use xlink:href="#SVGID_00000178927880861863136120000014868608803519287448_"  style="overflow:visible;"/>
			</clipPath>
			<g style="clip-path:url(#SVGID_00000043419491083186134060000010729493655221645702_);">
				<path class="st0" d="M134.5-29.1h-28.1c-2,0-3.8,1.3-4.4,3.1h36.9C138.3-27.8,136.5-29.1,134.5-29.1"/>
			</g>
		</g>
		<g>
			<defs>
				<rect id="SVGID_00000000199684742627574550000003625784529890195605_" x="101.8" y="-29.5" width="37.3" height="3.5"/>
			</defs>
			<clipPath id="SVGID_00000109734394267791584140000000274200929457984696_">
				<use xlink:href="#SVGID_00000000199684742627574550000003625784529890195605_"  style="overflow:visible;"/>
			</clipPath>
		</g>
	</g>
	<g>
		<g>
			<defs>
				<rect id="SVGID_00000058566936388752850260000004476843857808641466_" x="90.9" y="-57.2" width="60.1" height="9.4"/>
			</defs>
			<clipPath id="SVGID_00000153672029195870509710000003918901789818446755_">
				<use xlink:href="#SVGID_00000058566936388752850260000004476843857808641466_"  style="overflow:visible;"/>
			</clipPath>
		</g>
		<g>
			<defs>
				<rect id="SVGID_00000175308653473617570960000011171018733380645771_" x="90.9" y="-57.2" width="60.1" height="9.4"/>
			</defs>
			<use xlink:href="#SVGID_00000175308653473617570960000011171018733380645771_"  style="overflow:visible;fill:#F48156;"/>
			<clipPath id="SVGID_00000096740072376320916340000011601565004354560440_">
				<use xlink:href="#SVGID_00000175308653473617570960000011171018733380645771_"  style="overflow:visible;"/>
			</clipPath>
			<g style="clip-path:url(#SVGID_00000096740072376320916340000011601565004354560440_);">
				<path class="st0" d="M150-54.1c0.5-1,0.8-2,1-3.1H90.9c0.2,1.1,0.5,2.2,1,3.1h11.4v3.1h-9.2c2,1.9,4.7,3.1,7.6,3.1h37.4
					c3,0,6.7-1.2,8.6-3.1h-41.4v-3.1H150"/>
			</g>
		</g>
		<g>
			<defs>
				<rect id="SVGID_00000131357798846979738340000002796687657837461180_" x="90.9" y="-57.2" width="60.1" height="9.4"/>
			</defs>
			<clipPath id="SVGID_00000121973464665807538070000007919046567802576817_">
				<use xlink:href="#SVGID_00000131357798846979738340000002796687657837461180_"  style="overflow:visible;"/>
			</clipPath>
		</g>
	</g>
	<path class="st0" d="M117.3-44.7v12.5h6.2v-12.5H117.3"/>
</g>
<g>
	<defs>
		<rect id="SVGID_00000114785979497057720560000015357580179367884969_" x="188.7" y="-12.5" width="71.4" height="49.9"/>
	</defs>
	<clipPath id="SVGID_00000053534446141245426010000009568251946138028694_">
		<use xlink:href="#SVGID_00000114785979497057720560000015357580179367884969_"  style="overflow:visible;"/>
	</clipPath>
	<g style="clip-path:url(#SVGID_00000053534446141245426010000009568251946138028694_);">
		<path class="st0" d="M259.6-11.7c-0.3-0.5-0.9-0.7-1.4-0.7h-17.8c-1,0-1.8,0.8-1.8,1.8c0,6.9-5.6,12.5-12.5,12.5h-3.6
			c-6.9,0-12.5-5.6-12.5-12.5c0-1-0.8-1.8-1.8-1.8h-17.8c-0.6,0-1.1,0.3-1.4,0.7c-0.3,0.5-0.4,1-0.3,1.6l12.7,41.2
			c1.2,3.8,4.6,6.3,8.5,6.3h28.6c3.9,0,7.3-2.5,8.5-6.3l12.7-41.2C260.1-10.6,260-11.2,259.6-11.7z"/>
	</g>
</g>
<path class="st0" d="M249.3-8.8c-0.1,0-0.2,0-0.3,0c-1-0.1-1.6-1-1.5-2l1.6-10.9l-3.6-0.9L244-10.4c-0.1,1-1,1.6-2,1.5
	c-1-0.1-1.7-1-1.5-2l1.8-14.2c0.1-0.5,0.3-1,0.8-1.2c0.4-0.3,0.9-0.4,1.4-0.3l7.1,1.8c0.9,0.2,1.5,1.1,1.3,2l-1.8,12.5
	C250.9-9.5,250.2-8.8,249.3-8.8z"/>
<path class="st0" d="M227.9,3.6C227.9,3.6,227.9,3.6,227.9,3.6c-1.1-0.1-1.8-0.9-1.8-1.9l1.8-33.8c0.1-0.9,0.8-1.7,1.8-1.7h7.1
	c0.5,0,1,0.2,1.3,0.6c0.3,0.4,0.5,0.8,0.5,1.3l-1.8,32c-0.1,1-0.9,1.7-1.9,1.7c-1-0.1-1.7-0.9-1.7-1.9l1.7-30.2h-3.5l-1.7,32.1
	C229.7,2.9,228.9,3.6,227.9,3.6z"/>
<path class="st0" d="M192.3-8.8c-0.9,0-1.6-0.6-1.8-1.5L187-31.7c-0.2-0.9,0.5-1.8,1.4-2l8.9-1.8c0.5-0.1,1,0,1.4,0.3
	c0.4,0.3,0.7,0.7,0.7,1.2l1.8,10.7c0.2,1-0.5,1.9-1.5,2c-1,0.2-1.9-0.5-2-1.5l-1.5-8.9l-5.4,1.1l3.3,19.7c0.2,1-0.5,1.9-1.5,2
	C192.5-8.9,192.4-8.8,192.3-8.8z"/>
<path class="st0" d="M201.2-8.8c-0.9,0-1.6-0.6-1.8-1.5l-1.8-12.5c-0.1-0.9,0.4-1.8,1.3-2l5.7-1.4l-1.5-12.4l-3.8,1v3.9
	c0,1-0.8,1.8-1.8,1.8c-1,0-1.8-0.8-1.8-1.8v-5.3c0-0.8,0.6-1.5,1.3-1.7l7.1-1.8c0.5-0.1,1,0,1.4,0.3c0.4,0.3,0.7,0.7,0.8,1.3
	l3.6,30.3c0.1,1-0.6,1.9-1.6,2c-1,0.1-1.9-0.6-2-1.5l-1.5-12.2l-3.6,0.9l1.6,10.9c0.1,1-0.5,1.9-1.5,2
	C201.4-8.8,201.3-8.8,201.2-8.8z"/>
<path class="st0" d="M215.5-30.2c-0.8,0-1.5-0.5-1.7-1.3l-3-10.4l-5.2,2.6c-0.9,0.4-1.9,0.1-2.4-0.8c1.3-3.5,0.8-3.3,0.8-2.4
	l7.1-3.6c0.5-0.2,1-0.3,1.5,0c0.5,0.2,0.9,0.6,1,1.1l3.6,12.5c0.3,0.9-0.3,1.9-1.2,2.2C215.8-30.2,215.6-30.2,215.5-30.2z"/>
<g>
	<defs>
		<rect id="SVGID_00000119834833941814191960000015633187498645822349_" x="211.7" y="-48" width="16.5" height="53.5"/>
	</defs>
	<clipPath id="SVGID_00000053519222471045257370000006518424059883521976_">
		<use xlink:href="#SVGID_00000119834833941814191960000015633187498645822349_"  style="overflow:visible;"/>
	</clipPath>
	<g style="clip-path:url(#SVGID_00000053519222471045257370000006518424059883521976_);">
		<g>
			<path class="st0" d="M222.6,5.4C222.6,5.4,222.6,5.4,222.6,5.4c-1,0-1.7-0.8-1.8-1.7l-1.7-33.9h-1.8c0,0,0,0-0.1,0h-1.7l1.7,31.9
				c0.1,1-0.7,1.8-1.7,1.9c-1,0-1.8-0.7-1.9-1.7l-1.8-33.8c0-0.5,0.2-1,0.5-1.3c0.3-0.4,0.8-0.6,1.3-0.6h2l1.6-12.7
				c0.1-0.9,0.9-1.6,1.8-1.6h7.1c0.5,0,1,0.2,1.3,0.6c0.3,0.4,0.5,0.8,0.5,1.3l-3.6,49.8C224.3,4.7,223.5,5.4,222.6,5.4z
				 M219.3-33.8h1.5c1,0,1.7,0.7,1.8,1.7l0.3,6.3l1.3-18.7h-3.6L219.3-33.8z"/>
		</g>
	</g>
</g>
<path class="st0" d="M233.3-30.2c-1,0-1.8-0.8-1.8-1.8v-8.9h-5.3c-1,0-1.8-0.8-1.8-1.8c0-1,0.8-1.8,1.8-1.8h7.1c1,0,1.8,0.8,1.8,1.8
	V-32C235.1-31,234.3-30.2,233.3-30.2z"/>
<path class="st0" d="M240.4-8.8c-0.1,0-0.2,0-0.3,0c-1-0.1-1.6-1-1.5-2l3.3-23.2l-9-1.5c-1-0.2-1.6-1.1-1.5-2s1.1-1.6,2-1.5
	l10.7,1.8c1,0.2,1.6,1,1.5,2l-3.6,24.9C242-9.5,241.3-8.8,240.4-8.8z"/>
<path class="st0" d="M254.6-8.8c-0.2,0-0.4,0-0.6-0.1c-0.9-0.3-1.4-1.3-1.1-2.2l6.6-19.9l-4.1-2.1l-4.5,9.1
	c-0.4,0.9-1.5,1.2-2.4,0.8c-0.9-0.4-1.2-1.5-0.8-2.4l5.3-10.7c0.4-0.9,1.5-1.2,2.4-0.8l7.1,3.6c0.8,0.4,1.2,1.3,0.9,2.2l-7.1,21.4
	C256.1-9.3,255.4-8.8,254.6-8.8z"/>
<path class="st0" d="M251.1-26.6c-1,0-1.8-0.8-1.8-1.8v-12.5h-3.6v5.3c0,1-0.8,1.8-1.8,1.8s-1.8-0.8-1.8-1.8v-7.1
	c0-1,0.8-1.8,1.8-1.8h7.1c1,0,1.8,0.8,1.8,1.8v14.2C252.9-27.4,252.1-26.6,251.1-26.6z"/>
<path class="st0" d="M194.2,98.5V47.8h-28.3v51h0c0,0,0,0.1,0,0.1c0,1.6,6.4,2.9,14.2,2.9c7.9,0,14.2-1.3,14.2-2.9
	C194.3,98.8,194.3,98.7,194.2,98.5"/>
<g>
	<defs>
		<rect id="SVGID_00000026146724372521476140000004018854225659425442_" x="165.1" y="46.7" width="29.9" height="55.8"/>
	</defs>
	<clipPath id="SVGID_00000158712176471536055780000002777860903020958637_">
		<use xlink:href="#SVGID_00000026146724372521476140000004018854225659425442_"  style="overflow:visible;"/>
	</clipPath>
	<g style="clip-path:url(#SVGID_00000158712176471536055780000002777860903020958637_);">
		<path class="st6" d="M194.2,98.5V47.8h-28.3v51h0c0,0,0,0.1,0,0.1c0,1.6,6.4,2.9,14.2,2.9c7.9,0,14.2-1.3,14.2-2.9
			C194.3,98.8,194.3,98.7,194.2,98.5z"/>
	</g>
</g>
<path class="st0" d="M176.4,56.6c0.2,0,0.4,0,0.6,0c0.6,0,1.2,0.1,1.7,0.4c0.4,0.3,0.6,0.7,0.8,1.2c0.5,1.3,0.6,2.8,1.5,4
	c0.8,1.2,2.7,1.8,3.6,0.7c0.4-0.5,0.6-1.2,0.7-1.8c0.3-1.2,0.6-2.4,1.1-3.5c0.4-0.9,1.4-2,2.2-1.4c0.3,0.2,0.4,0.6,0.6,0.9
	c0.8,1.2,2.9,1.3,4.1,0.5c1.1-0.8,1-2,1-3.2c0-0.5,0-6.6,0-6.6h-28.3c0,2.1-0.4,4.7,0,6.8C166.5,57.7,173.4,56.7,176.4,56.6"/>
<path class="st6" d="M176.4,56.6c0.2,0,0.4,0,0.6,0c0.6,0,1.2,0.1,1.7,0.4c0.4,0.3,0.6,0.7,0.8,1.2c0.5,1.3,0.6,2.8,1.5,4
	c0.8,1.2,2.7,1.8,3.6,0.7c0.4-0.5,0.6-1.2,0.7-1.8c0.3-1.2,0.6-2.4,1.1-3.5c0.4-0.9,1.4-2,2.2-1.4c0.3,0.2,0.4,0.6,0.6,0.9
	c0.8,1.2,2.9,1.3,4.1,0.5c1.1-0.8,1-2,1-3.2c0-0.5,0-6.6,0-6.6h-28.3c0,2.1-0.4,4.7,0,6.8C166.5,57.7,173.4,56.7,176.4,56.6z"/>
<path class="st0" d="M194.3,47.8c0,1.6-6.4,2.9-14.2,2.9c-7.9,0-14.2-1.3-14.2-2.9c0-1.6,6.4-2.9,14.2-2.9
	C188,44.9,194.3,46.2,194.3,47.8"/>
<g>
	<defs>
		<rect id="SVGID_00000036253178903000710370000009133932568723617409_" x="165.1" y="44" width="29.9" height="7.6"/>
	</defs>
	<clipPath id="SVGID_00000159465029871832063380000014713463921951282352_">
		<use xlink:href="#SVGID_00000036253178903000710370000009133932568723617409_"  style="overflow:visible;"/>
	</clipPath>
	<g style="clip-path:url(#SVGID_00000159465029871832063380000014713463921951282352_);">
		<path class="st6" d="M194.3,47.8c0,1.6-6.4,2.9-14.2,2.9c-7.9,0-14.2-1.3-14.2-2.9c0-1.6,6.4-2.9,14.2-2.9
			C188,44.9,194.3,46.2,194.3,47.8z"/>
	</g>
</g>
<path class="st0" d="M186.6,37.4c0,3.6-2.9,6.6-6.6,6.6c-3.6,0-6.6-2.9-6.6-6.6s6.6-15.2,6.6-15.2S186.6,33.8,186.6,37.4"/>
<g>
	<defs>
		<rect id="SVGID_00000097484152830903009220000009733193396569461138_" x="172.2" y="21.4" width="15.2" height="23.7"/>
	</defs>
	<clipPath id="SVGID_00000151502882785363240920000015348520808738065831_">
		<use xlink:href="#SVGID_00000097484152830903009220000009733193396569461138_"  style="overflow:visible;"/>
	</clipPath>
	<g style="clip-path:url(#SVGID_00000151502882785363240920000015348520808738065831_);">
		<path class="st9" d="M186.6,37.4c0,3.6-2.9,6.6-6.6,6.6s-6.6-2.9-6.6-6.6s6.6-15.2,6.6-15.2S186.6,33.8,186.6,37.4z"/>
	</g>
</g>
<path class="st10" d="M183.3,39c0,1.8-1.5,3.3-3.3,3.3s-3.3-1.5-3.3-3.3c0-1.8,3.3-7.6,3.3-7.6S183.3,37.2,183.3,39"/>
<path class="st10" d="M180.1,47.6V36.8"/>
<path class="st0" d="M165.7,98.2V54.9h-24.1v43.5h0c0,0,0,0.1,0,0.1c0,1.4,5.4,2.5,12.1,2.5c6.7,0,12.1-1.1,12.1-2.5
	C165.8,98.4,165.8,98.3,165.7,98.2"/>
<g>
	<defs>
		<rect id="SVGID_00000033349441006501633380000000519026961472464270_" x="140.8" y="54.4" width="25.9" height="47.3"/>
	</defs>
	<clipPath id="SVGID_00000056412198939355588700000007257225244679796916_">
		<use xlink:href="#SVGID_00000033349441006501633380000000519026961472464270_"  style="overflow:visible;"/>
	</clipPath>
	<g style="clip-path:url(#SVGID_00000056412198939355588700000007257225244679796916_);">
		<path class="st12" d="M165.7,98.2V54.9h-24.1v43.5h0c0,0,0,0.1,0,0.1c0,1.4,5.4,2.5,12.1,2.5c6.7,0,12.1-1.1,12.1-2.5
			C165.8,98.4,165.8,98.3,165.7,98.2z"/>
	</g>
</g>
<path class="st0" d="M150.5,62.4c0.2,0,0.4,0,0.5,0c0.5,0,1,0.1,1.4,0.4c0.3,0.3,0.5,0.6,0.6,1c0.4,1.1,0.6,2.4,1.2,3.4
	c0.7,1,2.3,1.5,3.1,0.6c0.4-0.4,0.5-1,0.6-1.5c0.2-1,0.5-2,0.9-3c0.3-0.8,1.2-1.7,1.9-1.2c0.3,0.2,0.4,0.5,0.6,0.8
	c0.7,1,2.5,1.1,3.5,0.4c0.9-0.6,0.8-1.7,0.8-2.7c0-0.4,0-5.7,0-5.7h-24.1c0,1.8-0.4,4,0,5.8C142.1,63.3,147.9,62.5,150.5,62.4"/>
<g>
	<defs>
		<rect id="SVGID_00000111184075551473372480000010101653852421226391_" x="140.8" y="54.4" width="25.9" height="14.7"/>
	</defs>
	<clipPath id="SVGID_00000077324958834847089630000000504011917028348861_">
		<use xlink:href="#SVGID_00000111184075551473372480000010101653852421226391_"  style="overflow:visible;"/>
	</clipPath>
	<g style="clip-path:url(#SVGID_00000077324958834847089630000000504011917028348861_);">
		<path class="st12" d="M150.5,62.4c0.2,0,0.4,0,0.5,0c0.5,0,1,0.1,1.4,0.4c0.3,0.3,0.5,0.6,0.6,1c0.4,1.1,0.6,2.4,1.2,3.4
			c0.7,1,2.3,1.5,3.1,0.6c0.4-0.4,0.5-1,0.6-1.5c0.2-1,0.5-2,0.9-3c0.3-0.8,1.2-1.7,1.9-1.2c0.3,0.2,0.4,0.5,0.6,0.8
			c0.7,1,2.5,1.1,3.5,0.4c0.9-0.6,0.8-1.7,0.8-2.7c0-0.4,0-5.7,0-5.7h-24.1c0,1.8-0.4,4,0,5.8C142.1,63.3,147.9,62.5,150.5,62.4z"/>
	</g>
</g>
<path class="st0" d="M165.8,54.9c0,1.4-5.4,2.5-12.1,2.5c-6.7,0-12.1-1.1-12.1-2.5c0-1.4,5.4-2.5,12.1-2.5
	C160.4,52.4,165.8,53.5,165.8,54.9"/>
<g>
	<defs>
		<rect id="SVGID_00000101796906716972779310000016500469971100135055_" x="140.8" y="51.6" width="25.9" height="6.5"/>
	</defs>
	<clipPath id="SVGID_00000090265687392498432620000000324486657119276474_">
		<use xlink:href="#SVGID_00000101796906716972779310000016500469971100135055_"  style="overflow:visible;"/>
	</clipPath>
	<g style="clip-path:url(#SVGID_00000090265687392498432620000000324486657119276474_);">
		<path class="st12" d="M165.8,54.9c0,1.4-5.4,2.5-12.1,2.5c-6.7,0-12.1-1.1-12.1-2.5c0-1.4,5.4-2.5,12.1-2.5
			C160.4,52.4,165.8,53.5,165.8,54.9z"/>
	</g>
</g>
<path class="st0" d="M159.2,46.1c0,3.1-2.5,5.6-5.6,5.6c-3.1,0-5.6-2.5-5.6-5.6s5.6-12.9,5.6-12.9S159.2,43,159.2,46.1"/>
<path class="st15" d="M159.2,46.1c0,3.1-2.5,5.6-5.6,5.6c-3.1,0-5.6-2.5-5.6-5.6c0-3.1,5.6-13,5.6-13S159.2,43,159.2,46.1z"/>
<path class="st0" d="M156.4,47.5c0,1.5-1.3,2.8-2.8,2.8c-1.5,0-2.8-1.3-2.8-2.8c0-1.5,2.8-6.5,2.8-6.5S156.4,45.9,156.4,47.5"/>
<path class="st10" d="M153.7,54.7v-9.2"/>
<g>
	<defs>
		<rect id="SVGID_00000173882789364108465160000014453028872764203953_" x="248.3" y="103.9" width="6.6" height="22"/>
	</defs>
	<clipPath id="SVGID_00000028325949401198664570000002185488516674055089_">
		<use xlink:href="#SVGID_00000173882789364108465160000014453028872764203953_"  style="overflow:visible;"/>
	</clipPath>
	<g style="clip-path:url(#SVGID_00000028325949401198664570000002185488516674055089_);">
		<g>
			<path class="st0" d="M254.5,108.8l-1.2-2.4c-0.2-0.4-0.2-1,0-1.4l0.4-0.9h-5.3v21.8h5.3l-0.4-0.9c-0.2-0.4-0.2-1,0-1.4l1.2-2.4
				l-1.2-2.4c-0.2-0.4-0.2-1,0-1.4l1.2-2.4l-1.2-2.4c-0.2-0.4-0.2-1,0-1.4L254.5,108.8"/>
		</g>
	</g>
</g>
<path class="st0" d="M248.5,66.8h-21.8c-6,0-10.9,4.9-10.9,10.9v16.1l4-2c0.2-0.1,0.5-0.2,0.7-0.2h21.8c6,0,10.9-4.9,10.9-10.9V64.7
	l-4,2C249,66.8,248.7,66.8,248.5,66.8"/>
<path class="st0" d="M237.6,118.1c0,0.9-0.7,1.6-1.6,1.6h-37.3c-0.9,0-1.6-0.7-1.6-1.6v-6.2c0-0.9,0.7-1.6,1.6-1.6h37.3
	c0.9,0,1.6,0.7,1.6,1.6V118.1z M240.7,107.3h-46.6c-0.2,0-0.5-0.1-0.7-0.2l-4-2V125l4-2c0.2-0.1,0.5-0.2,0.7-0.2h46.6
	c0.2,0,0.5,0.1,0.7,0.2l4,2v-19.8l-4,2C241.2,107.2,241,107.3,240.7,107.3"/>
<path class="st0" d="M256.3,80.8c0,7.7-6.3,14-14,14h-21.4l-5.9,2.9c-0.2,0.1-0.5,0.2-0.7,0.2c-0.3,0-0.6-0.1-0.8-0.2
	c-0.5-0.3-0.7-0.8-0.7-1.3V77.7c0-7.7,6.3-14,14-14h21.4l5.9-2.9c0.5-0.2,1.1-0.2,1.5,0.1c0.5,0.3,0.7,0.8,0.7,1.3V80.8z
	 M257.6,101.8c0.3,0.5,0.3,1,0.1,1.5l-1.2,2.4l1.2,2.4c0.2,0.4,0.2,1,0,1.4l-0.4,0.9h9.1l-5.2-11.8c-0.1-0.2-0.1-0.4-0.1-0.6V57.5
	c0-0.3,0.1-0.5,0.2-0.8l4.9-8.6H203l4.9,8.6c0.1,0.2,0.2,0.5,0.2,0.8v40.4c0,0.2,0,0.4-0.1,0.6l-2.5,5.6h34.9l5.9-2.9c0,0,0,0,0.1,0
	c0,0,0.1,0,0.1,0c0.2-0.1,0.3-0.1,0.5-0.1c0,0,0,0,0.1,0h9.3C256.8,101,257.3,101.3,257.6,101.8"/>
<g>
	<g>
		<defs>
			<rect id="SVGID_00000052086857665941163550000004168155205453395878_" x="201.5" y="39" width="65.6" height="6.5"/>
		</defs>
		<clipPath id="SVGID_00000168832304561714078720000010006107306609405625_">
			<use xlink:href="#SVGID_00000052086857665941163550000004168155205453395878_"  style="overflow:visible;"/>
		</clipPath>
	</g>
	<g>
		<defs>
			<rect id="SVGID_00000030462640453891002220000013843183142595410327_" x="201.5" y="39" width="65.6" height="6.5"/>
		</defs>
		<use xlink:href="#SVGID_00000030462640453891002220000013843183142595410327_"  style="overflow:visible;fill:#F48156;"/>
		<clipPath id="SVGID_00000168109996072778160230000005638391531718789271_">
			<use xlink:href="#SVGID_00000030462640453891002220000013843183142595410327_"  style="overflow:visible;"/>
		</clipPath>
		<g style="clip-path:url(#SVGID_00000168109996072778160230000005638391531718789271_);">
			<path class="st0" d="M266.3,40.2c-0.4,0.2-1,0.2-1.4,0l-2.4-1.2l-2.4,1.2c-0.4,0.2-1,0.2-1.4,0l-2.4-1.2l-2.4,1.2
				c-0.4,0.2-1,0.2-1.4,0L250,39l-2.4,1.2c-0.4,0.2-1,0.2-1.4,0l-2.4-1.2l-2.4,1.2c-0.4,0.2-1,0.2-1.4,0l-2.4-1.2l-2.4,1.2
				c-0.4,0.2-1,0.2-1.4,0l-2.4-1.2l-2.4,1.2c-0.4,0.2-1,0.2-1.4,0l-2.4-1.2l-2.4,1.2c-0.4,0.2-1,0.2-1.4,0l-2.4-1.2l-2.4,1.2
				c-0.4,0.2-1,0.2-1.4,0l-2.4-1.2l-2.4,1.2c-0.4,0.2-1,0.2-1.4,0l-2.4-1.2l-2.4,1.2c-0.4,0.2-1,0.2-1.4,0l-0.9-0.4v5.3h65.3v-5.3
				L266.3,40.2"/>
		</g>
	</g>
	<g>
		<defs>
			<rect id="SVGID_00000136393847334654794480000008551242102416664455_" x="201.5" y="39" width="65.6" height="6.5"/>
		</defs>
		<clipPath id="SVGID_00000118354851062010507480000005118664933787589304_">
			<use xlink:href="#SVGID_00000136393847334654794480000008551242102416664455_"  style="overflow:visible;"/>
		</clipPath>
	</g>
</g>
<path class="st0" d="M200.3,116.6h34.2v-3.1h-34.2V116.6"/>
<g>
	<g>
		<defs>
			<rect id="SVGID_00000142150016196736204400000013556723030501772717_" x="256.4" y="113.1" width="10.7" height="6.6"/>
		</defs>
		<clipPath id="SVGID_00000015353637368376106890000000559838664204893824_">
			<use xlink:href="#SVGID_00000142150016196736204400000013556723030501772717_"  style="overflow:visible;"/>
		</clipPath>
	</g>
	<g>
		<defs>
			<rect id="SVGID_00000175286453925067877740000017713255646465771906_" x="256.4" y="113.1" width="10.7" height="6.6"/>
		</defs>
		<use xlink:href="#SVGID_00000175286453925067877740000017713255646465771906_"  style="overflow:visible;fill:#F48156;"/>
		<clipPath id="SVGID_00000032612935116357681490000010390697495332496279_">
			<use xlink:href="#SVGID_00000175286453925067877740000017713255646465771906_"  style="overflow:visible;"/>
		</clipPath>
		<g style="clip-path:url(#SVGID_00000032612935116357681490000010390697495332496279_);">
			<path class="st0" d="M257.7,114.3c0.2,0.4,0.2,1,0,1.4l-1.2,2.4l0.5,1l1.7-0.9c0.4-0.2,1-0.2,1.4,0l1.6,0.8l0.9,0.4l2.4-1.2
				c0.4-0.2,1-0.2,1.4,0l0.9,0.4v-5.3h-9.9L257.7,114.3"/>
		</g>
	</g>
	<g>
		<defs>
			<rect id="SVGID_00000088096021842074702220000009751806626308273834_" x="256.4" y="113.1" width="10.7" height="6.6"/>
		</defs>
		<clipPath id="SVGID_00000035532256196092648080000003253337273059273600_">
			<use xlink:href="#SVGID_00000088096021842074702220000009751806626308273834_"  style="overflow:visible;"/>
		</clipPath>
	</g>
</g>
<g>
	<g>
		<defs>
			<rect id="SVGID_00000173153919603403947030000006388582859787951263_" x="17.6" y="67.1" width="37.7" height="20.8"/>
		</defs>
		<clipPath id="SVGID_00000067939025150293686340000013786078333850449069_">
			<use xlink:href="#SVGID_00000173153919603403947030000006388582859787951263_"  style="overflow:visible;"/>
		</clipPath>
		<g style="clip-path:url(#SVGID_00000067939025150293686340000013786078333850449069_);">
			<g>
				<path class="st0" d="M17.8,67.2v18.4c4.4,1.3,10.7,2.3,18.5,2.3s14.2-0.9,18.5-2.3V67.2c-5,1.5-11.7,2.3-18.5,2.3
					S22.8,68.6,17.8,67.2z M44.6,75.3l3.2,2.4c0.4,0.3,0.5,0.7,0.5,1.1c0,0.4-0.1,0.8-0.5,1.1l-3.2,2.4C43,83.3,41,84,39,84
					c-2,0-4-0.7-5.6-1.9l-1.9-1.5c-1.2,2-3.4,3.3-5.8,3.3c-0.4,0-0.8-0.3-1.1-0.5c-0.3-0.4-0.3-0.8-0.1-1.2l1.2-3.6l-1.3-3.6
					c-0.1-0.4-0.1-0.8,0.1-1.2c0.3-0.4,0.7-0.5,1.1-0.5c2.4,0,4.6,1.3,5.8,3.3l1.9-1.5C36.6,72.9,41.4,72.9,44.6,75.3z"/>
			</g>
		</g>
	</g>
	<g>
		<defs>
			<rect id="SVGID_00000127024014588035511850000004447120651085781654_" x="11.2" y="56.3" width="50.4" height="28.8"/>
		</defs>
		<clipPath id="SVGID_00000044867328590788358290000013185719123365732505_">
			<use xlink:href="#SVGID_00000127024014588035511850000004447120651085781654_"  style="overflow:visible;"/>
		</clipPath>
		<g style="clip-path:url(#SVGID_00000044867328590788358290000013185719123365732505_);">
			<g>
				<path class="st0" d="M11.2,56.5v24.9c0,1.1,1.5,2.3,4,3.3V65.5c0-0.4,0.3-0.8,0.5-1.1c0.4-0.3,0.8-0.4,1.2-0.3
					c4.9,1.7,11.9,2.6,19.5,2.6c7.4,0,14.6-0.9,19.5-2.6c0.4-0.1,0.9-0.1,1.2,0.1c0.4,0.3,0.5,0.7,0.5,1.1v19.2c2.5-1.1,4-2.3,4-3.3
					V56.5c-4.6,3.3-15,5-25.2,5S15.8,59.8,11.2,56.5z"/>
			</g>
		</g>
	</g>
	<path class="st0" d="M35,80c2.3,1.7,5.7,1.7,7.9,0l1.7-1.3L43,77.4c-2.3-1.7-5.7-1.7-7.9,0l-1.7,1.3L35,80z"/>
	<g>
		<defs>
			<rect id="SVGID_00000181047005500505986900000008444004459731628456_" x="48.1" y="11.1" width="39.9" height="8.4"/>
		</defs>
		<clipPath id="SVGID_00000152976799110286954900000007026763894502143406_">
			<use xlink:href="#SVGID_00000181047005500505986900000008444004459731628456_"  style="overflow:visible;"/>
		</clipPath>
		<g style="clip-path:url(#SVGID_00000152976799110286954900000007026763894502143406_);">
			<path class="st0" d="M68.1,19.1c12.8,0,19.9-2.8,19.9-4c0-1.2-7-4-19.9-4s-19.9,2.8-19.9,4C48.3,16.3,55.3,19.1,68.1,19.1z"/>
		</g>
	</g>
	<g>
		<defs>
			<rect id="SVGID_00000030449044551703231470000015075379053012583075_" x="48.1" y="28.9" width="39.9" height="35.5"/>
		</defs>
		<clipPath id="SVGID_00000129917998307225409800000003456064404142885807_">
			<use xlink:href="#SVGID_00000030449044551703231470000015075379053012583075_"  style="overflow:visible;"/>
		</clipPath>
		<g style="clip-path:url(#SVGID_00000129917998307225409800000003456064404142885807_);">
			<g>
				<path class="st0" d="M48.3,29v14.7c2.5,0.4,4.9,0.8,7,1.5c1.3-6,6.6-10.2,12.8-10.2c7.3,0,13.2,6,13.2,13.2s-6,13.2-13.2,13.2
					c-1.3,0-2.6-0.3-4-0.7V64c1.3,0,2.6,0.1,4,0.1c12.8,0,19.9-2.8,19.9-4V29c-4.6,2.5-14.2,3.3-19.9,3.3
					C62.4,32.4,52.9,31.6,48.3,29z"/>
			</g>
		</g>
	</g>
	<g>
		<defs>
			<rect id="SVGID_00000004529927259458935700000014371314202210573243_" x="48.1" y="18.1" width="39.9" height="11.7"/>
		</defs>
		<clipPath id="SVGID_00000127045663122020166940000007104468050545675181_">
			<use xlink:href="#SVGID_00000004529927259458935700000014371314202210573243_"  style="overflow:visible;"/>
		</clipPath>
		<g style="clip-path:url(#SVGID_00000127045663122020166940000007104468050545675181_);">
			<g>
				<path class="st0" d="M68.1,21.8c-5.7,0-15.2-0.8-19.9-3.3v7.3c0,1.2,7,4,19.9,4s19.9-2.8,19.9-4v-7.3
					C83.4,21,73.8,21.8,68.1,21.8z"/>
			</g>
		</g>
	</g>
	<path class="st0" d="M64.2,58c1.3,0.5,2.6,0.8,4,0.8c5.4,0,9.9-4.1,10.5-9.4l-0.1,0.1c-1.3,0.9-2.8,1.3-4.4,1.3
		c-1.6,0-3-0.4-4.4-1.3l-0.7-0.4c-0.9-0.7-1.9-0.9-2.9-0.9h-1.3c-0.8,0-1.6,0.1-2.4,0.5c1.1,1.1,1.7,2.1,1.7,3.4V58z"/>
	<g>
		<defs>
			<rect id="SVGID_00000172412075206437047020000003856622366225919909_" x="63.8" y="63.1" width="24.2" height="14.4"/>
		</defs>
		<clipPath id="SVGID_00000089567548873388102440000018133689577540334215_">
			<use xlink:href="#SVGID_00000172412075206437047020000003856622366225919909_"  style="overflow:visible;"/>
		</clipPath>
		<g style="clip-path:url(#SVGID_00000089567548873388102440000018133689577540334215_);">
			<g>
				<path class="st0" d="M64.2,66.7v10.6c1.3,0,2.6,0.1,4,0.1c12.8,0,19.9-2.8,19.9-4v-9.9c-4.6,2.5-14.2,3.3-19.9,3.3
					C66.8,66.8,65.5,66.8,64.2,66.7z"/>
			</g>
		</g>
	</g>
	<g>
		<defs>
			<rect id="SVGID_00000134214639319650932840000003079021352246591924_" x="11.2" y="45.5" width="50.4" height="13.5"/>
		</defs>
		<clipPath id="SVGID_00000039814009611511171090000003129694860774623408_">
			<use xlink:href="#SVGID_00000134214639319650932840000003079021352246591924_"  style="overflow:visible;"/>
		</clipPath>
		<g style="clip-path:url(#SVGID_00000039814009611511171090000003129694860774623408_);">
			<g>
				<path class="st0" d="M36.3,45.6c-15.6,0-25.2,3.8-25.2,6.6s9.5,6.6,25.2,6.6s25.2-3.8,25.2-6.6S52,45.6,36.3,45.6z M24.4,56.2
					c-3.8,0-6.6-1.7-6.6-4c0-2.3,2.8-4,6.6-4c3.7,0,6.6,1.7,6.6,4C31,54.5,28.1,56.2,24.4,56.2z"/>
			</g>
		</g>
	</g>
	<path class="st0" d="M64.8,45.6h1.3c1.6,0,3,0.4,4.4,1.3l0.7,0.4c1.7,1.2,4.1,1.2,5.8,0l1.6-1.1c-0.9-4.9-5.3-8.6-10.5-8.6
		c-5,0-9.4,3.6-10.3,8.5c0.8,0.3,1.6,0.7,2.4,1.1l0.4-0.3C61.8,46,63.2,45.6,64.8,45.6z"/>
</g>
<g>
	<defs>
		<rect id="SVGID_00000118370809575750314150000001947361533854211236_" x="151.2" y="-46" width="79.5" height="79.9"/>
	</defs>
	<clipPath id="SVGID_00000113346088302769717910000001509802112877447064_">
		<use xlink:href="#SVGID_00000118370809575750314150000001947361533854211236_"  style="overflow:visible;"/>
	</clipPath>
	<g style="clip-path:url(#SVGID_00000113346088302769717910000001509802112877447064_);">
		<path class="st0" d="M164.3,14.1c-3.9,0-6.8-0.5-6.8-0.5v10.6c0,2,1.6,3.6,3.6,3.6h21.5c2,0,3.6-1.6,3.6-3.6V13.7
			c0,0-2.9,0.5-6.8,0.5c-2.3,0-4.9-0.7-7.5-0.7C169.1,13.4,166.5,14.1,164.3,14.1z M208.7-35.3l1.1-4.2l4.2-1.2l-4.2-1.2l-1.1-4.2
			l-1.2,4.2l-4.3,1.2l4.3,1.2L208.7-35.3z M205.1-18.1l1.6-6.1l6.1-1.7l-6.1-1.7l-1.6-6.1l-1.7,6.1l-6.2,1.7l6.2,1.7L205.1-18.1z
			 M216.6,19.7c-2.3,0-5.8-1.1-8.1-1.1c-2.5,0-4.8,1.1-6.8,1.1c-3.6,0-5.6-1.1-5.6-1.1s0,8.2,0,12.5c0,1.9,1,2.5,2.4,2.5h30.2
			c1.1,0,1.8-0.6,1.8-2.1c0-3.9,0-11.8,0-11.8s-1.2-1.1-6.1-1.1C222.6,18.7,218.7,19.7,216.6,19.7z M224.5,12.4
			c-1.9,0-5.7,1.1-7.9,1.1c-2.3,0-5.8-1.1-8.1-1.1c-2.5,0-4.8,1.1-6.8,1.1c-3.6,0-5.6-1.1-5.6-1.1v3.7c0,0,2,1.1,5.6,1.1
			c2,0,4.3-1.1,6.8-1.1c2.2,0,5.8,1.1,8.1,1.1c2.1,0,6-1.1,7.9-1.1c4.9,0,6.1,1.1,6.1,1.1v-3.7C230.6,13.5,229.4,12.4,224.5,12.4z
			 M188.1,24.5c0,2.9-2.4,5.3-5.3,5.3h-22.1c-2.9,0-5.3-2.4-5.3-5.3v-9.8c0-5.7,7-10.8,9-15.9c1.9-4.7,1.8-11.8,1.8-11.8
			c0-1.1,0.9-2.3,1.9-2.3h7.1c1.1,0,1.9,0.9,1.9,1.9c0,0,0.5,8.8,1.8,12.5c2,5.3,9,9.2,9,15.6V24.5z M181.3-13.4
			c0-3.1-2.3-5.6-5.3-6c0.3-1.6,1-2.8,1.9-4.1c1,1.4,2.8,4.2,7.7,3.8c0,0,0.7,0,0.7-0.7c0-0.7-0.7-0.7-0.7-0.7s-3.5-0.3-4.8-5.1
			c1.3-0.8,3.4-1.4,5-1.6v-7.5h-18.6c-8.4,0-9.7,10.8-9.7,10.8s2.6,0,5.2,0c2.4,0,4.8,0,4.8,0v5.2c-3,0.4-5.3,2.9-5.3,6
			c0,0,0.5,5-1.2,9.6c-1.5,4.3-9.7,11-9.7,18.5v9.8c0,5.2,4.2,9.4,9.4,9.4h22.1c5.2,0,9.4-4.2,9.4-9.4v-9.8c0-7.6-8.3-13.8-9.7-18.5
			C181.2-8.5,181.3-13.4,181.3-13.4z M206.3,5.8c-1.6,0-2.9-1.3-2.9-2.9c0-1.6,1.3-2.9,2.9-2.9s2.9,1.3,2.9,2.9
			C209.2,4.5,207.9,5.8,206.3,5.8z M206.3-1.8c-2.6,0-4.7,2.1-4.7,4.7c0,2.6,2.1,4.7,4.7,4.7s4.7-2.1,4.7-4.7
			C211.1,0.3,209-1.8,206.3-1.8z M191.8-34.7c-1.6,0-4.4,0-4.4,0v6.2c0,0,2.9,0,4.4,0c0.6,0,1.1-0.4,1.1-1.2v-3.8
			C192.9-34.2,192.2-34.7,191.8-34.7z M217-31.3l1.2,4.2l1.2-4.2l4.2-1.2l-4.2-1.2l-1.2-4.2l-1.2,4.2l-4.3,1.2L217-31.3z
			 M210.5-13.8c-0.2,0-1,0.3-1.3,0.5c-0.2,0.2-0.5,0.5-0.5,0.7c-0.1,0.2-0.1,0.5-0.1,0.6c0.1,0.1,0.3,0.3,0.5,0.2
			c0.2-0.1,0.3-0.2,0.4-0.4c0-0.1,0-0.3,0.4-0.5c0.3-0.2,0.6-0.2,0.8-0.3c0.2,0,0.3-0.3,0.3-0.5C210.9-13.6,210.8-13.8,210.5-13.8z
			 M226.8-2.3c0,2.8-2.2,5-5,5c-2.8,0-5-2.2-5-5c0-2.7,2.2-5,5-5C224.5-7.3,226.8-5.1,226.8-2.3z M214.9-2.3c0,3.8,3.1,6.9,6.9,6.9
			c3.8,0,6.9-3.1,6.9-6.9c0-3.8-3.1-6.9-6.9-6.9C218-9.2,214.9-6.1,214.9-2.3z M221.3-5.5c-0.4,0-1.5,0.4-1.8,0.7
			c-0.3,0.3-0.7,0.7-0.8,1c-0.1,0.3-0.2,0.7-0.1,0.9c0.1,0.2,0.4,0.4,0.7,0.3c0.3-0.1,0.5-0.3,0.5-0.5c0.1-0.2,0.1-0.4,0.5-0.7
			c0.5-0.3,0.8-0.3,1.2-0.4c0.3-0.1,0.5-0.4,0.4-0.7C221.9-5.3,221.7-5.5,221.3-5.5z M206.4,1.1c-0.2,0-1,0.3-1.3,0.5
			c-0.2,0.2-0.5,0.5-0.6,0.7c-0.1,0.2-0.1,0.5-0.1,0.6c0.1,0.1,0.3,0.3,0.5,0.2c0.2,0,0.3-0.2,0.4-0.4c0-0.1,0.1-0.3,0.4-0.5
			C206,2,206.3,2,206.5,2c0.2,0,0.3-0.3,0.3-0.5C206.8,1.3,206.6,1.1,206.4,1.1z M210.6-9c-1.6,0-2.9-1.3-2.9-2.9s1.3-2.9,2.9-2.9
			c1.6,0,2.9,1.3,2.9,2.9S212.2-9,210.6-9z M215.3-11.8c0-2.6-2.1-4.7-4.7-4.7s-4.7,2.1-4.7,4.7c0,2.6,2.1,4.7,4.7,4.7
			S215.3-9.2,215.3-11.8"/>
	</g>
</g>
<path class="st0" d="M233.8,61.8h19.8V50.5h-19.8V61.8"/>
<path class="st0" d="M238.5,16.6c-0.7,0-1.1,0.2-1.4,0.5c-1.3,1.4,0,5.8,3.8,9.7c2.6,2.7,5.7,4.4,7.9,4.4c0.6,0,1.1-0.2,1.4-0.5
	c1.3-1.4,0-5.8-3.8-9.7C243.8,18.3,240.7,16.6,238.5,16.6"/>
<path class="st0" d="M238.9,28.7c-0.9-0.9-1.6-1.8-2.2-2.7v21.6h14.1V33.6c-0.6,0.2-1.3,0.4-2,0.4C245.8,34,242.1,32,238.9,28.7"/>
<g>
	<defs>
		<rect id="SVGID_00000082355627203151097570000009293505206965480087_" x="231" y="64.6" width="25.5" height="31.2"/>
	</defs>
	<use xlink:href="#SVGID_00000082355627203151097570000009293505206965480087_"  style="overflow:visible;fill:#F48156;"/>
	<clipPath id="SVGID_00000088096006034921495880000010257905082344395963_">
		<use xlink:href="#SVGID_00000082355627203151097570000009293505206965480087_"  style="overflow:visible;"/>
	</clipPath>
	<g style="clip-path:url(#SVGID_00000088096006034921495880000010257905082344395963_);">
		<path class="st0" d="M231,95.7h25.4V64.7H231V95.7"/>
	</g>
</g>
<g>
	<defs>
		<rect id="SVGID_00000128460296955041316130000001817509540015854478_" x="267.3" y="64.6" width="11.7" height="31.2"/>
	</defs>
	<use xlink:href="#SVGID_00000128460296955041316130000001817509540015854478_"  style="overflow:visible;fill:#F48156;"/>
	<clipPath id="SVGID_00000159452931091113421640000005766177479936174738_">
		<use xlink:href="#SVGID_00000128460296955041316130000001817509540015854478_"  style="overflow:visible;"/>
	</clipPath>
	<g style="clip-path:url(#SVGID_00000159452931091113421640000005766177479936174738_);">
		<path class="st0" d="M267.7,95.7H279V64.7h-11.3V95.7"/>
	</g>
</g>
<g>
	<defs>
		<rect id="SVGID_00000155837488288970636410000001367167976580852390_" x="267.3" y="13.7" width="11.7" height="48.6"/>
	</defs>
	<clipPath id="SVGID_00000005250341976363238260000015181049097038845609_">
		<use xlink:href="#SVGID_00000155837488288970636410000001367167976580852390_"  style="overflow:visible;"/>
	</clipPath>
	<g style="clip-path:url(#SVGID_00000005250341976363238260000015181049097038845609_);">
		<path class="st0" d="M267.7,39.2V42h4.2v19.8h2.8V42h4.2v-2.8h-4.2v-2.8h4.2v-2.8h-4.2v-2.8h4.2v-2.8h-4.2v-2.8h4.2v-2.8h-4.2
			v-2.8h2.8v-2.8h-2.8v-2.8H272v2.8h-2.8v2.8h2.8v2.8h-4.2v2.8h4.2v2.8h-4.2v2.8h4.2v2.8h-4.2v2.8h4.2v2.8H267.7"/>
	</g>
</g>
</svg>
