<?xml version="1.0" encoding="utf-8"?>
<!-- Generator: Adobe Illustrator 26.0.1, SVG Export Plug-In . SVG Version: 6.00 Build 0)  -->
<svg version="1.1" id="Capa_1" xmlns="http://www.w3.org/2000/svg" xmlns:xlink="http://www.w3.org/1999/xlink" x="0px" y="0px"
	 viewBox="0 0 100 100" style="enable-background:new 0 0 100 100;" xml:space="preserve">
<style type="text/css">
	.st0{fill:#F48156;}
	.st1{clip-path:url(#SVGID_00000009549967054715773340000002183073586310355636_);}
	.st2{clip-path:url(#SVGID_00000040538243388387482780000003108383649008803220_);}
	.st3{clip-path:url(#SVGID_00000139288395489733964710000007725607424331849866_);}
	.st4{clip-path:url(#SVGID_00000145032269046057585830000009003303735234421404_);}
	.st5{clip-path:url(#SVGID_00000129919176907563636720000008182650861752106931_);}
	.st6{fill:none;stroke:#FFFFFF;stroke-width:2.4167;stroke-linecap:round;stroke-linejoin:round;stroke-miterlimit:10;}
	.st7{clip-path:url(#SVGID_00000178191358677628431170000005880662841231567012_);}
	.st8{clip-path:url(#SVGID_00000047765214066270689590000010883652112601313204_);}
	.st9{fill:none;stroke:#FFFFFF;stroke-width:2.8808;stroke-linecap:round;stroke-linejoin:round;stroke-miterlimit:10;}
	.st10{fill:none;stroke:#F48156;stroke-miterlimit:10;}
	.st11{clip-path:url(#SVGID_00000115476180484419013710000016834606168056191655_);}
	.st12{fill:none;stroke:#FFFFFF;stroke-width:2.0613;stroke-linecap:round;stroke-linejoin:round;stroke-miterlimit:10;}
	.st13{clip-path:url(#SVGID_00000070814173219130451580000002714137302271615140_);}
	.st14{clip-path:url(#SVGID_00000028304856376625867500000001125079500351337380_);}
	.st15{fill:none;stroke:#FFFFFF;stroke-width:2.4572;stroke-linecap:round;stroke-linejoin:round;stroke-miterlimit:10;}
	.st16{clip-path:url(#SVGID_00000014633428524276629050000003215442997015900591_);}
	.st17{clip-path:url(#SVGID_00000088855703692636203930000010170431039796602505_);}
	.st18{clip-path:url(#SVGID_00000152243290489362176090000012571791242065616004_);}
	.st19{clip-path:url(#SVGID_00000027585576022029010070000004908141478671020976_);}
	.st20{clip-path:url(#SVGID_00000094603202415647326490000008255737258874850958_);}
	.st21{clip-path:url(#SVGID_00000107547576846414093850000008356169216819507097_);}
	.st22{clip-path:url(#SVGID_00000088828791061239541800000010517107107257363587_);}
	.st23{clip-path:url(#SVGID_00000097473701326420515590000002930317786624182689_);}
	.st24{clip-path:url(#SVGID_00000089546520775306005770000011554089502446730902_);}
	.st25{clip-path:url(#SVGID_00000018921755628470695070000005993538579728786571_);}
	.st26{clip-path:url(#SVGID_00000007399724526882537140000014748592422769351844_);}
	.st27{clip-path:url(#SVGID_00000115493181087559571030000003145865074510800553_);}
	.st28{clip-path:url(#SVGID_00000170243920524992355250000008561725784829134215_);}
	.st29{clip-path:url(#SVGID_00000036231550595575053850000018028241856480183685_);}
</style>
<g>
	<path class="st0" d="M35,46.6c0.9,0,1.6-0.7,1.6-1.6v-9.4c0-2.6,2.1-4.7,4.7-4.7c2.6,0,4.7,2.1,4.7,4.7v17.2c0,0.9,0.7,1.6,1.6,1.6
		c0.9,0,1.6-0.7,1.6-1.6v-25c0-2.6,2.1-4.7,4.7-4.7c2.6,0,4.7,2.1,4.7,4.7v10.9c0,0.9,0.7,1.6,1.6,1.6c0.9,0,1.6-0.7,1.6-1.6v-14
		c0-3-2-5.6-4.9-6.3l-0.8-0.2l-0.3-0.8c-0.8-2.2-2.9-3.7-5.2-3.7h-5.6c-2.3,0-4.4,1.5-5.2,3.7l-0.3,0.8l-0.8,0.2
		c-2.9,0.7-4.9,3.4-4.9,6.3v20.3C33.4,45.9,34.1,46.6,35,46.6"/>
	<path class="st0" d="M41.2,34.1c-0.9,0-1.6,0.7-1.6,1.6v9.4c0,1.6-0.8,3-2,3.8l-1,11.8h21.6l-1.5-18.5c-0.9-0.9-1.4-2.1-1.4-3.4
		V27.9c0-0.9-0.7-1.6-1.6-1.6c-0.9,0-1.6,0.7-1.6,1.6v25c0,2.6-2.1,4.7-4.7,4.7c-2.6,0-4.7-2.1-4.7-4.7V35.7
		C42.8,34.8,42.1,34.1,41.2,34.1"/>
	<path class="st0" d="M47.5,10.7c1.7,0,3.1-1.4,3.1-3.1s-1.4-3.1-3.1-3.1c-1.7,0-3.1,1.4-3.1,3.1S45.7,10.7,47.5,10.7"/>
	<path class="st0" d="M61.4,60.7h13.4l-4.4-27.5c-0.4-3.2-2.7-5.7-5.7-6.6v12.2c0,2.6-2.1,4.7-4.7,4.7L61.4,60.7"/>
	<path class="st0" d="M34.5,49.7c-2.3-0.3-4.2-2.2-4.2-4.6V26.6c-3,0.8-5.3,3.4-5.7,6.6l-3.4,27.5h12.4L34.5,49.7"/>
	<g>
		<g>
			<defs>
				<rect id="SVGID_1_" x="28.8" y="91.5" width="37.3" height="3.5"/>
			</defs>
			<clipPath id="SVGID_00000132772790437881988920000014664185431490516643_">
				<use xlink:href="#SVGID_1_"  style="overflow:visible;"/>
			</clipPath>
		</g>
		<g>
			<defs>
				<rect id="SVGID_00000178927880861863136120000014868608803519287448_" x="28.8" y="91.5" width="37.3" height="3.5"/>
			</defs>
			<use xlink:href="#SVGID_00000178927880861863136120000014868608803519287448_"  style="overflow:visible;fill:#F48156;"/>
			<clipPath id="SVGID_00000070840616756624836020000001928910806689577876_">
				<use xlink:href="#SVGID_00000178927880861863136120000014868608803519287448_"  style="overflow:visible;"/>
			</clipPath>
			<g style="clip-path:url(#SVGID_00000070840616756624836020000001928910806689577876_);">
				<path class="st0" d="M61.5,91.9H33.4c-2,0-3.8,1.3-4.4,3.1h36.9C65.3,93.2,63.5,91.9,61.5,91.9"/>
			</g>
		</g>
		<g>
			<defs>
				<rect id="SVGID_00000000199684742627574550000003625784529890195605_" x="28.8" y="91.5" width="37.3" height="3.5"/>
			</defs>
			<clipPath id="SVGID_00000050655856321573285670000013014805547176778113_">
				<use xlink:href="#SVGID_00000000199684742627574550000003625784529890195605_"  style="overflow:visible;"/>
			</clipPath>
		</g>
	</g>
	<g>
		<g>
			<defs>
				<rect id="SVGID_00000058566936388752850260000004476843857808641466_" x="17.9" y="63.8" width="60.1" height="9.4"/>
			</defs>
			<clipPath id="SVGID_00000132796212306721047680000010865823844037102997_">
				<use xlink:href="#SVGID_00000058566936388752850260000004476843857808641466_"  style="overflow:visible;"/>
			</clipPath>
		</g>
		<g>
			<defs>
				<rect id="SVGID_00000175308653473617570960000011171018733380645771_" x="17.9" y="63.8" width="60.1" height="9.4"/>
			</defs>
			<use xlink:href="#SVGID_00000175308653473617570960000011171018733380645771_"  style="overflow:visible;fill:#F48156;"/>
			<clipPath id="SVGID_00000078039526458613336050000003126640593461231256_">
				<use xlink:href="#SVGID_00000175308653473617570960000011171018733380645771_"  style="overflow:visible;"/>
			</clipPath>
			<g style="clip-path:url(#SVGID_00000078039526458613336050000003126640593461231256_);">
				<path class="st0" d="M77,66.9c0.5-1,0.8-2,1-3.1H17.9c0.2,1.1,0.5,2.2,1,3.1h11.4v3.1h-9.2c2,1.9,4.7,3.1,7.6,3.1h37.4
					c3,0,6.7-1.2,8.6-3.1H33.4v-3.1H77"/>
			</g>
		</g>
		<g>
			<defs>
				<rect id="SVGID_00000131357798846979738340000002796687657837461180_" x="17.9" y="63.8" width="60.1" height="9.4"/>
			</defs>
			<clipPath id="SVGID_00000096031991087758511300000002127319750534253746_">
				<use xlink:href="#SVGID_00000131357798846979738340000002796687657837461180_"  style="overflow:visible;"/>
			</clipPath>
		</g>
	</g>
	<path class="st0" d="M44.3,76.3v12.5h6.2V76.3H44.3"/>
</g>
<g>
	<defs>
		<rect id="SVGID_00000004516471152562990450000010792496903814804119_" x="188.7" y="-12.5" width="71.4" height="49.9"/>
	</defs>
	<clipPath id="SVGID_00000092419053871749071730000017842494137105889174_">
		<use xlink:href="#SVGID_00000004516471152562990450000010792496903814804119_"  style="overflow:visible;"/>
	</clipPath>
	<g style="clip-path:url(#SVGID_00000092419053871749071730000017842494137105889174_);">
		<path class="st0" d="M259.6-11.7c-0.3-0.5-0.9-0.7-1.4-0.7h-17.8c-1,0-1.8,0.8-1.8,1.8c0,6.9-5.6,12.5-12.5,12.5h-3.6
			c-6.9,0-12.5-5.6-12.5-12.5c0-1-0.8-1.8-1.8-1.8h-17.8c-0.6,0-1.1,0.3-1.4,0.7c-0.3,0.5-0.4,1-0.3,1.6l12.7,41.2
			c1.2,3.8,4.6,6.3,8.5,6.3h28.6c3.9,0,7.3-2.5,8.5-6.3l12.7-41.2C260.1-10.6,260-11.2,259.6-11.7z"/>
	</g>
</g>
<path class="st0" d="M249.3-8.8c-0.1,0-0.2,0-0.3,0c-1-0.1-1.6-1-1.5-2l1.6-10.9l-3.6-0.9L244-10.4c-0.1,1-1,1.6-2,1.5
	c-1-0.1-1.7-1-1.5-2l1.8-14.2c0.1-0.5,0.3-1,0.8-1.2c0.4-0.3,0.9-0.4,1.4-0.3l7.1,1.8c0.9,0.2,1.5,1.1,1.3,2l-1.8,12.5
	C250.9-9.5,250.2-8.8,249.3-8.8z"/>
<path class="st0" d="M227.9,3.6C227.9,3.6,227.9,3.6,227.9,3.6c-1.1-0.1-1.8-0.9-1.8-1.9l1.8-33.8c0.1-0.9,0.8-1.7,1.8-1.7h7.1
	c0.5,0,1,0.2,1.3,0.6c0.3,0.4,0.5,0.8,0.5,1.3l-1.8,32c-0.1,1-0.9,1.7-1.9,1.7c-1-0.1-1.7-0.9-1.7-1.9l1.7-30.2h-3.5l-1.7,32.1
	C229.7,2.9,228.9,3.6,227.9,3.6z"/>
<path class="st0" d="M192.3-8.8c-0.9,0-1.6-0.6-1.8-1.5L187-31.7c-0.2-0.9,0.5-1.8,1.4-2l8.9-1.8c0.5-0.1,1,0,1.4,0.3
	c0.4,0.3,0.7,0.7,0.7,1.2l1.8,10.7c0.2,1-0.5,1.9-1.5,2c-1,0.2-1.9-0.5-2-1.5l-1.5-8.9l-5.4,1.1l3.3,19.7c0.2,1-0.5,1.9-1.5,2
	C192.5-8.9,192.4-8.8,192.3-8.8z"/>
<path class="st0" d="M201.2-8.8c-0.9,0-1.6-0.6-1.8-1.5l-1.8-12.5c-0.1-0.9,0.4-1.8,1.3-2l5.7-1.4l-1.5-12.4l-3.8,1v3.9
	c0,1-0.8,1.8-1.8,1.8c-1,0-1.8-0.8-1.8-1.8v-5.3c0-0.8,0.6-1.5,1.3-1.7l7.1-1.8c0.5-0.1,1,0,1.4,0.3c0.4,0.3,0.7,0.7,0.8,1.3
	l3.6,30.3c0.1,1-0.6,1.9-1.6,2c-1,0.1-1.9-0.6-2-1.5l-1.5-12.2l-3.6,0.9l1.6,10.9c0.1,1-0.5,1.9-1.5,2
	C201.4-8.8,201.3-8.8,201.2-8.8z"/>
<path class="st0" d="M215.5-30.2c-0.8,0-1.5-0.5-1.7-1.3l-3-10.4l-5.2,2.6c-0.9,0.4-1.9,0.1-2.4-0.8c1.3-3.5,0.8-3.3,0.8-2.4
	l7.1-3.6c0.5-0.2,1-0.3,1.5,0c0.5,0.2,0.9,0.6,1,1.1l3.6,12.5c0.3,0.9-0.3,1.9-1.2,2.2C215.8-30.2,215.6-30.2,215.5-30.2z"/>
<g>
	<defs>
		<rect id="SVGID_00000066497711884501966190000013404891517624156038_" x="211.7" y="-48" width="16.5" height="53.5"/>
	</defs>
	<clipPath id="SVGID_00000034061065807877376190000003801613662237971130_">
		<use xlink:href="#SVGID_00000066497711884501966190000013404891517624156038_"  style="overflow:visible;"/>
	</clipPath>
	<g style="clip-path:url(#SVGID_00000034061065807877376190000003801613662237971130_);">
		<g>
			<path class="st0" d="M222.6,5.4C222.6,5.4,222.6,5.4,222.6,5.4c-1,0-1.7-0.8-1.8-1.7l-1.7-33.9h-1.8c0,0,0,0-0.1,0h-1.7l1.7,31.9
				c0.1,1-0.7,1.8-1.7,1.9c-1,0-1.8-0.7-1.9-1.7l-1.8-33.8c0-0.5,0.2-1,0.5-1.3c0.3-0.4,0.8-0.6,1.3-0.6h2l1.6-12.7
				c0.1-0.9,0.9-1.6,1.8-1.6h7.1c0.5,0,1,0.2,1.3,0.6c0.3,0.4,0.5,0.8,0.5,1.3l-3.6,49.8C224.3,4.7,223.5,5.4,222.6,5.4z
				 M219.3-33.8h1.5c1,0,1.7,0.7,1.8,1.7l0.3,6.3l1.3-18.7h-3.6L219.3-33.8z"/>
		</g>
	</g>
</g>
<path class="st0" d="M233.3-30.2c-1,0-1.8-0.8-1.8-1.8v-8.9h-5.3c-1,0-1.8-0.8-1.8-1.8c0-1,0.8-1.8,1.8-1.8h7.1c1,0,1.8,0.8,1.8,1.8
	V-32C235.1-31,234.3-30.2,233.3-30.2z"/>
<path class="st0" d="M240.4-8.8c-0.1,0-0.2,0-0.3,0c-1-0.1-1.6-1-1.5-2l3.3-23.2l-9-1.5c-1-0.2-1.6-1.1-1.5-2s1.1-1.6,2-1.5
	l10.7,1.8c1,0.2,1.6,1,1.5,2l-3.6,24.9C242-9.5,241.3-8.8,240.4-8.8z"/>
<path class="st0" d="M254.6-8.8c-0.2,0-0.4,0-0.6-0.1c-0.9-0.3-1.4-1.3-1.1-2.2l6.6-19.9l-4.1-2.1l-4.5,9.1
	c-0.4,0.9-1.5,1.2-2.4,0.8c-0.9-0.4-1.2-1.5-0.8-2.4l5.3-10.7c0.4-0.9,1.5-1.2,2.4-0.8l7.1,3.6c0.8,0.4,1.2,1.3,0.9,2.2l-7.1,21.4
	C256.1-9.3,255.4-8.8,254.6-8.8z"/>
<path class="st0" d="M251.1-26.6c-1,0-1.8-0.8-1.8-1.8v-12.5h-3.6v5.3c0,1-0.8,1.8-1.8,1.8s-1.8-0.8-1.8-1.8v-7.1
	c0-1,0.8-1.8,1.8-1.8h7.1c1,0,1.8,0.8,1.8,1.8v14.2C252.9-27.4,252.1-26.6,251.1-26.6z"/>
<path class="st0" d="M194.2,98.5V47.8h-28.3v51h0c0,0,0,0.1,0,0.1c0,1.6,6.4,2.9,14.2,2.9c7.9,0,14.2-1.3,14.2-2.9
	C194.3,98.8,194.3,98.7,194.2,98.5"/>
<g>
	<defs>
		<rect id="SVGID_00000118376103805590319370000004835482158871060923_" x="165.1" y="46.7" width="29.9" height="55.8"/>
	</defs>
	<clipPath id="SVGID_00000132061219642135289660000002621941454511197588_">
		<use xlink:href="#SVGID_00000118376103805590319370000004835482158871060923_"  style="overflow:visible;"/>
	</clipPath>
	<g style="clip-path:url(#SVGID_00000132061219642135289660000002621941454511197588_);">
		<path class="st6" d="M194.2,98.5V47.8h-28.3v51h0c0,0,0,0.1,0,0.1c0,1.6,6.4,2.9,14.2,2.9c7.9,0,14.2-1.3,14.2-2.9
			C194.3,98.8,194.3,98.7,194.2,98.5z"/>
	</g>
</g>
<path class="st0" d="M176.4,56.6c0.2,0,0.4,0,0.6,0c0.6,0,1.2,0.1,1.7,0.4c0.4,0.3,0.6,0.7,0.8,1.2c0.5,1.3,0.6,2.8,1.5,4
	c0.8,1.2,2.7,1.8,3.6,0.7c0.4-0.5,0.6-1.2,0.7-1.8c0.3-1.2,0.6-2.4,1.1-3.5c0.4-0.9,1.4-2,2.2-1.4c0.3,0.2,0.4,0.6,0.6,0.9
	c0.8,1.2,2.9,1.3,4.1,0.5c1.1-0.8,1-2,1-3.2c0-0.5,0-6.6,0-6.6h-28.3c0,2.1-0.4,4.7,0,6.8C166.5,57.7,173.4,56.7,176.4,56.6"/>
<path class="st6" d="M176.4,56.6c0.2,0,0.4,0,0.6,0c0.6,0,1.2,0.1,1.7,0.4c0.4,0.3,0.6,0.7,0.8,1.2c0.5,1.3,0.6,2.8,1.5,4
	c0.8,1.2,2.7,1.8,3.6,0.7c0.4-0.5,0.6-1.2,0.7-1.8c0.3-1.2,0.6-2.4,1.1-3.5c0.4-0.9,1.4-2,2.2-1.4c0.3,0.2,0.4,0.6,0.6,0.9
	c0.8,1.2,2.9,1.3,4.1,0.5c1.1-0.8,1-2,1-3.2c0-0.5,0-6.6,0-6.6h-28.3c0,2.1-0.4,4.7,0,6.8C166.5,57.7,173.4,56.7,176.4,56.6z"/>
<path class="st0" d="M194.3,47.8c0,1.6-6.4,2.9-14.2,2.9c-7.9,0-14.2-1.3-14.2-2.9c0-1.6,6.4-2.9,14.2-2.9
	C188,44.9,194.3,46.2,194.3,47.8"/>
<g>
	<defs>
		<rect id="SVGID_00000065045233067841567790000008351645126815746432_" x="165.1" y="44" width="29.9" height="7.6"/>
	</defs>
	<clipPath id="SVGID_00000103259051641018974300000011584778723894230440_">
		<use xlink:href="#SVGID_00000065045233067841567790000008351645126815746432_"  style="overflow:visible;"/>
	</clipPath>
	<g style="clip-path:url(#SVGID_00000103259051641018974300000011584778723894230440_);">
		<path class="st6" d="M194.3,47.8c0,1.6-6.4,2.9-14.2,2.9c-7.9,0-14.2-1.3-14.2-2.9c0-1.6,6.4-2.9,14.2-2.9
			C188,44.9,194.3,46.2,194.3,47.8z"/>
	</g>
</g>
<path class="st0" d="M186.6,37.4c0,3.6-2.9,6.6-6.6,6.6c-3.6,0-6.6-2.9-6.6-6.6s6.6-15.2,6.6-15.2S186.6,33.8,186.6,37.4"/>
<g>
	<defs>
		<rect id="SVGID_00000162314181012527243410000003051554869207661719_" x="172.2" y="21.4" width="15.2" height="23.7"/>
	</defs>
	<clipPath id="SVGID_00000155854392110021196760000016626159889670372777_">
		<use xlink:href="#SVGID_00000162314181012527243410000003051554869207661719_"  style="overflow:visible;"/>
	</clipPath>
	<g style="clip-path:url(#SVGID_00000155854392110021196760000016626159889670372777_);">
		<path class="st9" d="M186.6,37.4c0,3.6-2.9,6.6-6.6,6.6s-6.6-2.9-6.6-6.6s6.6-15.2,6.6-15.2S186.6,33.8,186.6,37.4z"/>
	</g>
</g>
<path class="st10" d="M183.3,39c0,1.8-1.5,3.3-3.3,3.3s-3.3-1.5-3.3-3.3c0-1.8,3.3-7.6,3.3-7.6S183.3,37.2,183.3,39"/>
<path class="st10" d="M180.1,47.6V36.8"/>
<path class="st0" d="M165.7,98.2V54.9h-24.1v43.5h0c0,0,0,0.1,0,0.1c0,1.4,5.4,2.5,12.1,2.5c6.7,0,12.1-1.1,12.1-2.5
	C165.8,98.4,165.8,98.3,165.7,98.2"/>
<g>
	<defs>
		<rect id="SVGID_00000052815531762970211800000016778971893449864332_" x="140.8" y="54.4" width="25.9" height="47.3"/>
	</defs>
	<clipPath id="SVGID_00000109029756086881792330000016932563698976923779_">
		<use xlink:href="#SVGID_00000052815531762970211800000016778971893449864332_"  style="overflow:visible;"/>
	</clipPath>
	<g style="clip-path:url(#SVGID_00000109029756086881792330000016932563698976923779_);">
		<path class="st12" d="M165.7,98.2V54.9h-24.1v43.5h0c0,0,0,0.1,0,0.1c0,1.4,5.4,2.5,12.1,2.5c6.7,0,12.1-1.1,12.1-2.5
			C165.8,98.4,165.8,98.3,165.7,98.2z"/>
	</g>
</g>
<path class="st0" d="M150.5,62.4c0.2,0,0.4,0,0.5,0c0.5,0,1,0.1,1.4,0.4c0.3,0.3,0.5,0.6,0.6,1c0.4,1.1,0.6,2.4,1.2,3.4
	c0.7,1,2.3,1.5,3.1,0.6c0.4-0.4,0.5-1,0.6-1.5c0.2-1,0.5-2,0.9-3c0.3-0.8,1.2-1.7,1.9-1.2c0.3,0.2,0.4,0.5,0.6,0.8
	c0.7,1,2.5,1.1,3.5,0.4c0.9-0.6,0.8-1.7,0.8-2.7c0-0.4,0-5.7,0-5.7h-24.1c0,1.8-0.4,4,0,5.8C142.1,63.3,147.9,62.5,150.5,62.4"/>
<g>
	<defs>
		<rect id="SVGID_00000140707381197916498940000009726239891690008507_" x="140.8" y="54.4" width="25.9" height="14.7"/>
	</defs>
	<clipPath id="SVGID_00000096767143208122504380000002434002545164170407_">
		<use xlink:href="#SVGID_00000140707381197916498940000009726239891690008507_"  style="overflow:visible;"/>
	</clipPath>
	<g style="clip-path:url(#SVGID_00000096767143208122504380000002434002545164170407_);">
		<path class="st12" d="M150.5,62.4c0.2,0,0.4,0,0.5,0c0.5,0,1,0.1,1.4,0.4c0.3,0.3,0.5,0.6,0.6,1c0.4,1.1,0.6,2.4,1.2,3.4
			c0.7,1,2.3,1.5,3.1,0.6c0.4-0.4,0.5-1,0.6-1.5c0.2-1,0.5-2,0.9-3c0.3-0.8,1.2-1.7,1.9-1.2c0.3,0.2,0.4,0.5,0.6,0.8
			c0.7,1,2.5,1.1,3.5,0.4c0.9-0.6,0.8-1.7,0.8-2.7c0-0.4,0-5.7,0-5.7h-24.1c0,1.8-0.4,4,0,5.8C142.1,63.3,147.9,62.5,150.5,62.4z"/>
	</g>
</g>
<path class="st0" d="M165.8,54.9c0,1.4-5.4,2.5-12.1,2.5c-6.7,0-12.1-1.1-12.1-2.5c0-1.4,5.4-2.5,12.1-2.5
	C160.4,52.4,165.8,53.5,165.8,54.9"/>
<g>
	<defs>
		<rect id="SVGID_00000155118199936280567290000006876835063869500316_" x="140.8" y="51.6" width="25.9" height="6.5"/>
	</defs>
	<clipPath id="SVGID_00000036209291137457553980000005558346528876560027_">
		<use xlink:href="#SVGID_00000155118199936280567290000006876835063869500316_"  style="overflow:visible;"/>
	</clipPath>
	<g style="clip-path:url(#SVGID_00000036209291137457553980000005558346528876560027_);">
		<path class="st12" d="M165.8,54.9c0,1.4-5.4,2.5-12.1,2.5c-6.7,0-12.1-1.1-12.1-2.5c0-1.4,5.4-2.5,12.1-2.5
			C160.4,52.4,165.8,53.5,165.8,54.9z"/>
	</g>
</g>
<path class="st0" d="M159.2,46.1c0,3.1-2.5,5.6-5.6,5.6c-3.1,0-5.6-2.5-5.6-5.6s5.6-12.9,5.6-12.9S159.2,43,159.2,46.1"/>
<path class="st15" d="M159.2,46.1c0,3.1-2.5,5.6-5.6,5.6c-3.1,0-5.6-2.5-5.6-5.6c0-3.1,5.6-13,5.6-13S159.2,43,159.2,46.1z"/>
<path class="st0" d="M156.4,47.5c0,1.5-1.3,2.8-2.8,2.8c-1.5,0-2.8-1.3-2.8-2.8c0-1.5,2.8-6.5,2.8-6.5S156.4,45.9,156.4,47.5"/>
<path class="st10" d="M153.7,54.7v-9.2"/>
<g>
	<defs>
		<rect id="SVGID_00000019635863699171848150000007393895081210883727_" x="248.3" y="103.9" width="6.6" height="22"/>
	</defs>
	<clipPath id="SVGID_00000150093076635189012780000013308282807971450245_">
		<use xlink:href="#SVGID_00000019635863699171848150000007393895081210883727_"  style="overflow:visible;"/>
	</clipPath>
	<g style="clip-path:url(#SVGID_00000150093076635189012780000013308282807971450245_);">
		<g>
			<path class="st0" d="M254.5,108.8l-1.2-2.4c-0.2-0.4-0.2-1,0-1.4l0.4-0.9h-5.3v21.8h5.3l-0.4-0.9c-0.2-0.4-0.2-1,0-1.4l1.2-2.4
				l-1.2-2.4c-0.2-0.4-0.2-1,0-1.4l1.2-2.4l-1.2-2.4c-0.2-0.4-0.2-1,0-1.4L254.5,108.8"/>
		</g>
	</g>
</g>
<path class="st0" d="M248.5,66.8h-21.8c-6,0-10.9,4.9-10.9,10.9v16.1l4-2c0.2-0.1,0.5-0.2,0.7-0.2h21.8c6,0,10.9-4.9,10.9-10.9V64.7
	l-4,2C249,66.8,248.7,66.8,248.5,66.8"/>
<path class="st0" d="M237.6,118.1c0,0.9-0.7,1.6-1.6,1.6h-37.3c-0.9,0-1.6-0.7-1.6-1.6v-6.2c0-0.9,0.7-1.6,1.6-1.6h37.3
	c0.9,0,1.6,0.7,1.6,1.6V118.1z M240.7,107.3h-46.6c-0.2,0-0.5-0.1-0.7-0.2l-4-2V125l4-2c0.2-0.1,0.5-0.2,0.7-0.2h46.6
	c0.2,0,0.5,0.1,0.7,0.2l4,2v-19.8l-4,2C241.2,107.2,241,107.3,240.7,107.3"/>
<path class="st0" d="M256.3,80.8c0,7.7-6.3,14-14,14h-21.4l-5.9,2.9c-0.2,0.1-0.5,0.2-0.7,0.2c-0.3,0-0.6-0.1-0.8-0.2
	c-0.5-0.3-0.7-0.8-0.7-1.3V77.7c0-7.7,6.3-14,14-14h21.4l5.9-2.9c0.5-0.2,1.1-0.2,1.5,0.1c0.5,0.3,0.7,0.8,0.7,1.3V80.8z
	 M257.6,101.8c0.3,0.5,0.3,1,0.1,1.5l-1.2,2.4l1.2,2.4c0.2,0.4,0.2,1,0,1.4l-0.4,0.9h9.1l-5.2-11.8c-0.1-0.2-0.1-0.4-0.1-0.6V57.5
	c0-0.3,0.1-0.5,0.2-0.8l4.9-8.6H203l4.9,8.6c0.1,0.2,0.2,0.5,0.2,0.8v40.4c0,0.2,0,0.4-0.1,0.6l-2.5,5.6h34.9l5.9-2.9c0,0,0,0,0.1,0
	c0,0,0.1,0,0.1,0c0.2-0.1,0.3-0.1,0.5-0.1c0,0,0,0,0.1,0h9.3C256.8,101,257.3,101.3,257.6,101.8"/>
<g>
	<g>
		<defs>
			<rect id="SVGID_00000052086857665941163550000004168155205453395878_" x="201.5" y="39" width="65.6" height="6.5"/>
		</defs>
		<clipPath id="SVGID_00000039129523236106410800000016328285660411358366_">
			<use xlink:href="#SVGID_00000052086857665941163550000004168155205453395878_"  style="overflow:visible;"/>
		</clipPath>
	</g>
	<g>
		<defs>
			<rect id="SVGID_00000030462640453891002220000013843183142595410327_" x="201.5" y="39" width="65.6" height="6.5"/>
		</defs>
		<use xlink:href="#SVGID_00000030462640453891002220000013843183142595410327_"  style="overflow:visible;fill:#F48156;"/>
		<clipPath id="SVGID_00000042708241387947393540000013311417604581731992_">
			<use xlink:href="#SVGID_00000030462640453891002220000013843183142595410327_"  style="overflow:visible;"/>
		</clipPath>
		<g style="clip-path:url(#SVGID_00000042708241387947393540000013311417604581731992_);">
			<path class="st0" d="M266.3,40.2c-0.4,0.2-1,0.2-1.4,0l-2.4-1.2l-2.4,1.2c-0.4,0.2-1,0.2-1.4,0l-2.4-1.2l-2.4,1.2
				c-0.4,0.2-1,0.2-1.4,0L250,39l-2.4,1.2c-0.4,0.2-1,0.2-1.4,0l-2.4-1.2l-2.4,1.2c-0.4,0.2-1,0.2-1.4,0l-2.4-1.2l-2.4,1.2
				c-0.4,0.2-1,0.2-1.4,0l-2.4-1.2l-2.4,1.2c-0.4,0.2-1,0.2-1.4,0l-2.4-1.2l-2.4,1.2c-0.4,0.2-1,0.2-1.4,0l-2.4-1.2l-2.4,1.2
				c-0.4,0.2-1,0.2-1.4,0l-2.4-1.2l-2.4,1.2c-0.4,0.2-1,0.2-1.4,0l-2.4-1.2l-2.4,1.2c-0.4,0.2-1,0.2-1.4,0l-0.9-0.4v5.3h65.3v-5.3
				L266.3,40.2"/>
		</g>
	</g>
	<g>
		<defs>
			<rect id="SVGID_00000136393847334654794480000008551242102416664455_" x="201.5" y="39" width="65.6" height="6.5"/>
		</defs>
		<clipPath id="SVGID_00000017508528070208833800000003451383922921522104_">
			<use xlink:href="#SVGID_00000136393847334654794480000008551242102416664455_"  style="overflow:visible;"/>
		</clipPath>
	</g>
</g>
<path class="st0" d="M200.3,116.6h34.2v-3.1h-34.2V116.6"/>
<g>
	<g>
		<defs>
			<rect id="SVGID_00000142150016196736204400000013556723030501772717_" x="256.4" y="113.1" width="10.7" height="6.6"/>
		</defs>
		<clipPath id="SVGID_00000070814942774083724800000000572406238755538313_">
			<use xlink:href="#SVGID_00000142150016196736204400000013556723030501772717_"  style="overflow:visible;"/>
		</clipPath>
	</g>
	<g>
		<defs>
			<rect id="SVGID_00000175286453925067877740000017713255646465771906_" x="256.4" y="113.1" width="10.7" height="6.6"/>
		</defs>
		<use xlink:href="#SVGID_00000175286453925067877740000017713255646465771906_"  style="overflow:visible;fill:#F48156;"/>
		<clipPath id="SVGID_00000109022971345253219060000016520487291727603840_">
			<use xlink:href="#SVGID_00000175286453925067877740000017713255646465771906_"  style="overflow:visible;"/>
		</clipPath>
		<g style="clip-path:url(#SVGID_00000109022971345253219060000016520487291727603840_);">
			<path class="st0" d="M257.7,114.3c0.2,0.4,0.2,1,0,1.4l-1.2,2.4l0.5,1l1.7-0.9c0.4-0.2,1-0.2,1.4,0l1.6,0.8l0.9,0.4l2.4-1.2
				c0.4-0.2,1-0.2,1.4,0l0.9,0.4v-5.3h-9.9L257.7,114.3"/>
		</g>
	</g>
	<g>
		<defs>
			<rect id="SVGID_00000088096021842074702220000009751806626308273834_" x="256.4" y="113.1" width="10.7" height="6.6"/>
		</defs>
		<clipPath id="SVGID_00000151544816285607993910000013876839898711693202_">
			<use xlink:href="#SVGID_00000088096021842074702220000009751806626308273834_"  style="overflow:visible;"/>
		</clipPath>
	</g>
</g>
<g>
	<g>
		<defs>
			<rect id="SVGID_00000069372730503366731070000003149794071595213206_" x="176.6" y="115.1" width="37.7" height="20.8"/>
		</defs>
		<clipPath id="SVGID_00000091734482910976144720000014296558051876276884_">
			<use xlink:href="#SVGID_00000069372730503366731070000003149794071595213206_"  style="overflow:visible;"/>
		</clipPath>
		<g style="clip-path:url(#SVGID_00000091734482910976144720000014296558051876276884_);">
			<g>
				<path class="st0" d="M176.8,115.2v18.4c4.4,1.3,10.7,2.3,18.5,2.3c7.8,0,14.2-0.9,18.5-2.3v-18.4c-5,1.5-11.7,2.3-18.5,2.3
					S181.8,116.6,176.8,115.2z M203.6,123.3l3.2,2.4c0.4,0.3,0.5,0.7,0.5,1.1c0,0.4-0.1,0.8-0.5,1.1l-3.2,2.4
					c-1.6,1.2-3.6,1.9-5.6,1.9c-2,0-4-0.7-5.6-1.9l-1.9-1.5c-1.2,2-3.4,3.3-5.8,3.3c-0.4,0-0.8-0.3-1.1-0.5
					c-0.3-0.4-0.3-0.8-0.1-1.2l1.2-3.6l-1.3-3.6c-0.1-0.4-0.1-0.8,0.1-1.2c0.3-0.4,0.7-0.5,1.1-0.5c2.4,0,4.6,1.3,5.8,3.3l1.9-1.5
					C195.6,120.9,200.4,120.9,203.6,123.3z"/>
			</g>
		</g>
	</g>
	<g>
		<defs>
			<rect id="SVGID_00000176764976334326776760000006607221033916757183_" x="170.2" y="104.3" width="50.4" height="28.8"/>
		</defs>
		<clipPath id="SVGID_00000109018199342543550480000011694301065098268291_">
			<use xlink:href="#SVGID_00000176764976334326776760000006607221033916757183_"  style="overflow:visible;"/>
		</clipPath>
		<g style="clip-path:url(#SVGID_00000109018199342543550480000011694301065098268291_);">
			<g>
				<path class="st0" d="M170.2,104.5v24.9c0,1.1,1.5,2.3,4,3.3v-19.2c0-0.4,0.3-0.8,0.5-1.1c0.4-0.3,0.8-0.4,1.2-0.3
					c4.9,1.7,11.9,2.6,19.5,2.6c7.4,0,14.6-0.9,19.5-2.6c0.4-0.1,0.9-0.1,1.2,0.1c0.4,0.3,0.5,0.7,0.5,1.1v19.2c2.5-1.1,4-2.3,4-3.3
					v-24.8c-4.6,3.3-15,5-25.2,5C185.1,109.5,174.8,107.8,170.2,104.5z"/>
			</g>
		</g>
	</g>
	<path class="st0" d="M194,128c2.3,1.7,5.7,1.7,7.9,0l1.7-1.3l-1.7-1.3c-2.3-1.7-5.7-1.7-7.9,0l-1.7,1.3L194,128z"/>
	<g>
		<defs>
			<rect id="SVGID_00000083090280567522945500000008729991154436445571_" x="207.1" y="59.1" width="39.9" height="8.4"/>
		</defs>
		<clipPath id="SVGID_00000079465340635952145380000002057958649640580485_">
			<use xlink:href="#SVGID_00000083090280567522945500000008729991154436445571_"  style="overflow:visible;"/>
		</clipPath>
		<g style="clip-path:url(#SVGID_00000079465340635952145380000002057958649640580485_);">
			<path class="st0" d="M227.1,67.1c12.8,0,19.9-2.8,19.9-4c0-1.2-7-4-19.9-4s-19.9,2.8-19.9,4C207.3,64.3,214.3,67.1,227.1,67.1z"
				/>
		</g>
	</g>
	<g>
		<defs>
			<rect id="SVGID_00000072266884512521103060000003361746026261603736_" x="207.1" y="76.9" width="39.9" height="35.5"/>
		</defs>
		<clipPath id="SVGID_00000047765298094156191880000001451976955288862372_">
			<use xlink:href="#SVGID_00000072266884512521103060000003361746026261603736_"  style="overflow:visible;"/>
		</clipPath>
		<g style="clip-path:url(#SVGID_00000047765298094156191880000001451976955288862372_);">
			<g>
				<path class="st0" d="M207.3,77v14.7c2.5,0.4,4.9,0.8,7,1.5c1.3-6,6.6-10.2,12.8-10.2c7.3,0,13.2,6,13.2,13.2
					c0,7.3-6,13.2-13.2,13.2c-1.3,0-2.6-0.3-4-0.7v3.2c1.3,0,2.6,0.1,4,0.1c12.8,0,19.9-2.8,19.9-4V77c-4.6,2.5-14.2,3.3-19.9,3.3
					C221.4,80.4,211.9,79.6,207.3,77z"/>
			</g>
		</g>
	</g>
	<g>
		<defs>
			<rect id="SVGID_00000158728533431317406010000006619301435596578984_" x="207.1" y="66.1" width="39.9" height="11.7"/>
		</defs>
		<clipPath id="SVGID_00000039848815642440345510000000103653201402571159_">
			<use xlink:href="#SVGID_00000158728533431317406010000006619301435596578984_"  style="overflow:visible;"/>
		</clipPath>
		<g style="clip-path:url(#SVGID_00000039848815642440345510000000103653201402571159_);">
			<g>
				<path class="st0" d="M227.1,69.8c-5.7,0-15.2-0.8-19.9-3.3v7.3c0,1.2,7,4,19.9,4s19.9-2.8,19.9-4v-7.3
					C242.4,69,232.8,69.8,227.1,69.8z"/>
			</g>
		</g>
	</g>
	<path class="st0" d="M223.2,106c1.3,0.5,2.6,0.8,4,0.8c5.4,0,9.9-4.1,10.5-9.4l-0.1,0.1c-1.3,0.9-2.8,1.3-4.4,1.3
		c-1.6,0-3-0.4-4.4-1.3l-0.7-0.4c-0.9-0.7-1.9-0.9-2.9-0.9h-1.3c-0.8,0-1.6,0.1-2.4,0.5c1.1,1.1,1.7,2.1,1.7,3.4V106z"/>
	<g>
		<defs>
			<rect id="SVGID_00000178910556810120124390000015217650652340217766_" x="222.8" y="111.1" width="24.2" height="14.4"/>
		</defs>
		<clipPath id="SVGID_00000071545115686090732420000009609868513387119513_">
			<use xlink:href="#SVGID_00000178910556810120124390000015217650652340217766_"  style="overflow:visible;"/>
		</clipPath>
		<g style="clip-path:url(#SVGID_00000071545115686090732420000009609868513387119513_);">
			<g>
				<path class="st0" d="M223.2,114.7v10.6c1.3,0,2.6,0.1,4,0.1c12.8,0,19.9-2.8,19.9-4v-9.9c-4.6,2.5-14.2,3.3-19.9,3.3
					C225.8,114.8,224.5,114.8,223.2,114.7z"/>
			</g>
		</g>
	</g>
	<g>
		<defs>
			<rect id="SVGID_00000093866313846218876070000012707013726352841659_" x="170.2" y="93.5" width="50.4" height="13.5"/>
		</defs>
		<clipPath id="SVGID_00000155863099354769532910000016472869749246371754_">
			<use xlink:href="#SVGID_00000093866313846218876070000012707013726352841659_"  style="overflow:visible;"/>
		</clipPath>
		<g style="clip-path:url(#SVGID_00000155863099354769532910000016472869749246371754_);">
			<g>
				<path class="st0" d="M195.3,93.6c-15.6,0-25.2,3.8-25.2,6.6c0,2.8,9.5,6.6,25.2,6.6s25.2-3.8,25.2-6.6
					C220.5,97.4,211,93.6,195.3,93.6z M183.4,104.2c-3.8,0-6.6-1.7-6.6-4s2.8-4,6.6-4c3.7,0,6.6,1.7,6.6,4S187.1,104.2,183.4,104.2z
					"/>
			</g>
		</g>
	</g>
	<path class="st0" d="M223.8,93.6h1.3c1.6,0,3,0.4,4.4,1.3l0.7,0.4c1.7,1.2,4.1,1.2,5.8,0l1.6-1.1c-0.9-4.9-5.3-8.6-10.5-8.6
		c-5,0-9.4,3.6-10.3,8.5c0.8,0.3,1.6,0.7,2.4,1.1l0.4-0.3C220.8,94,222.2,93.6,223.8,93.6z"/>
</g>
<g>
	<defs>
		<rect id="SVGID_00000178915269158217929580000003344399376957410198_" x="151.2" y="-46" width="79.5" height="79.9"/>
	</defs>
	<clipPath id="SVGID_00000182487608928694560240000017982313419584886955_">
		<use xlink:href="#SVGID_00000178915269158217929580000003344399376957410198_"  style="overflow:visible;"/>
	</clipPath>
	<g style="clip-path:url(#SVGID_00000182487608928694560240000017982313419584886955_);">
		<path class="st0" d="M164.3,14.1c-3.9,0-6.8-0.5-6.8-0.5v10.6c0,2,1.6,3.6,3.6,3.6h21.5c2,0,3.6-1.6,3.6-3.6V13.7
			c0,0-2.9,0.5-6.8,0.5c-2.3,0-4.9-0.7-7.5-0.7C169.1,13.4,166.5,14.1,164.3,14.1z M208.7-35.3l1.1-4.2l4.2-1.2l-4.2-1.2l-1.1-4.2
			l-1.2,4.2l-4.3,1.2l4.3,1.2L208.7-35.3z M205.1-18.1l1.6-6.1l6.1-1.7l-6.1-1.7l-1.6-6.1l-1.7,6.1l-6.2,1.7l6.2,1.7L205.1-18.1z
			 M216.6,19.7c-2.3,0-5.8-1.1-8.1-1.1c-2.5,0-4.8,1.1-6.8,1.1c-3.6,0-5.6-1.1-5.6-1.1s0,8.2,0,12.5c0,1.9,1,2.5,2.4,2.5h30.2
			c1.1,0,1.8-0.6,1.8-2.1c0-3.9,0-11.8,0-11.8s-1.2-1.1-6.1-1.1C222.6,18.7,218.7,19.7,216.6,19.7z M224.5,12.4
			c-1.9,0-5.7,1.1-7.9,1.1c-2.3,0-5.8-1.1-8.1-1.1c-2.5,0-4.8,1.1-6.8,1.1c-3.6,0-5.6-1.1-5.6-1.1v3.7c0,0,2,1.1,5.6,1.1
			c2,0,4.3-1.1,6.8-1.1c2.2,0,5.8,1.1,8.1,1.1c2.1,0,6-1.1,7.9-1.1c4.9,0,6.1,1.1,6.1,1.1v-3.7C230.6,13.5,229.4,12.4,224.5,12.4z
			 M188.1,24.5c0,2.9-2.4,5.3-5.3,5.3h-22.1c-2.9,0-5.3-2.4-5.3-5.3v-9.8c0-5.7,7-10.8,9-15.9c1.9-4.7,1.8-11.8,1.8-11.8
			c0-1.1,0.9-2.3,1.9-2.3h7.1c1.1,0,1.9,0.9,1.9,1.9c0,0,0.5,8.8,1.8,12.5c2,5.3,9,9.2,9,15.6V24.5z M181.3-13.4
			c0-3.1-2.3-5.6-5.3-6c0.3-1.6,1-2.8,1.9-4.1c1,1.4,2.8,4.2,7.7,3.8c0,0,0.7,0,0.7-0.7c0-0.7-0.7-0.7-0.7-0.7s-3.5-0.3-4.8-5.1
			c1.3-0.8,3.4-1.4,5-1.6v-7.5h-18.6c-8.4,0-9.7,10.8-9.7,10.8s2.6,0,5.2,0c2.4,0,4.8,0,4.8,0v5.2c-3,0.4-5.3,2.9-5.3,6
			c0,0,0.5,5-1.2,9.6c-1.5,4.3-9.7,11-9.7,18.5v9.8c0,5.2,4.2,9.4,9.4,9.4h22.1c5.2,0,9.4-4.2,9.4-9.4v-9.8c0-7.6-8.3-13.8-9.7-18.5
			C181.2-8.5,181.3-13.4,181.3-13.4z M206.3,5.8c-1.6,0-2.9-1.3-2.9-2.9c0-1.6,1.3-2.9,2.9-2.9s2.9,1.3,2.9,2.9
			C209.2,4.5,207.9,5.8,206.3,5.8z M206.3-1.8c-2.6,0-4.7,2.1-4.7,4.7c0,2.6,2.1,4.7,4.7,4.7s4.7-2.1,4.7-4.7
			C211.1,0.3,209-1.8,206.3-1.8z M191.8-34.7c-1.6,0-4.4,0-4.4,0v6.2c0,0,2.9,0,4.4,0c0.6,0,1.1-0.4,1.1-1.2v-3.8
			C192.9-34.2,192.2-34.7,191.8-34.7z M217-31.3l1.2,4.2l1.2-4.2l4.2-1.2l-4.2-1.2l-1.2-4.2l-1.2,4.2l-4.3,1.2L217-31.3z
			 M210.5-13.8c-0.2,0-1,0.3-1.3,0.5c-0.2,0.2-0.5,0.5-0.5,0.7c-0.1,0.2-0.1,0.5-0.1,0.6c0.1,0.1,0.3,0.3,0.5,0.2
			c0.2-0.1,0.3-0.2,0.4-0.4c0-0.1,0-0.3,0.4-0.5c0.3-0.2,0.6-0.2,0.8-0.3c0.2,0,0.3-0.3,0.3-0.5C210.9-13.6,210.8-13.8,210.5-13.8z
			 M226.8-2.3c0,2.8-2.2,5-5,5c-2.8,0-5-2.2-5-5c0-2.7,2.2-5,5-5C224.5-7.3,226.8-5.1,226.8-2.3z M214.9-2.3c0,3.8,3.1,6.9,6.9,6.9
			c3.8,0,6.9-3.1,6.9-6.9c0-3.8-3.1-6.9-6.9-6.9C218-9.2,214.9-6.1,214.9-2.3z M221.3-5.5c-0.4,0-1.5,0.4-1.8,0.7
			c-0.3,0.3-0.7,0.7-0.8,1c-0.1,0.3-0.2,0.7-0.1,0.9c0.1,0.2,0.4,0.4,0.7,0.3c0.3-0.1,0.5-0.3,0.5-0.5c0.1-0.2,0.1-0.4,0.5-0.7
			c0.5-0.3,0.8-0.3,1.2-0.4c0.3-0.1,0.5-0.4,0.4-0.7C221.9-5.3,221.7-5.5,221.3-5.5z M206.4,1.1c-0.2,0-1,0.3-1.3,0.5
			c-0.2,0.2-0.5,0.5-0.6,0.7c-0.1,0.2-0.1,0.5-0.1,0.6c0.1,0.1,0.3,0.3,0.5,0.2c0.2,0,0.3-0.2,0.4-0.4c0-0.1,0.1-0.3,0.4-0.5
			C206,2,206.3,2,206.5,2c0.2,0,0.3-0.3,0.3-0.5C206.8,1.3,206.6,1.1,206.4,1.1z M210.6-9c-1.6,0-2.9-1.3-2.9-2.9s1.3-2.9,2.9-2.9
			c1.6,0,2.9,1.3,2.9,2.9S212.2-9,210.6-9z M215.3-11.8c0-2.6-2.1-4.7-4.7-4.7s-4.7,2.1-4.7,4.7c0,2.6,2.1,4.7,4.7,4.7
			S215.3-9.2,215.3-11.8"/>
	</g>
</g>
<path class="st0" d="M233.8,61.8h19.8V50.5h-19.8V61.8"/>
<path class="st0" d="M238.5,16.6c-0.7,0-1.1,0.2-1.4,0.5c-1.3,1.4,0,5.8,3.8,9.7c2.6,2.7,5.7,4.4,7.9,4.4c0.6,0,1.1-0.2,1.4-0.5
	c1.3-1.4,0-5.8-3.8-9.7C243.8,18.3,240.7,16.6,238.5,16.6"/>
<path class="st0" d="M238.9,28.7c-0.9-0.9-1.6-1.8-2.2-2.7v21.6h14.1V33.6c-0.6,0.2-1.3,0.4-2,0.4C245.8,34,242.1,32,238.9,28.7"/>
<g>
	<defs>
		<rect id="SVGID_00000168810953147803735320000002825941351889626791_" x="231" y="64.6" width="25.5" height="31.2"/>
	</defs>
	<use xlink:href="#SVGID_00000168810953147803735320000002825941351889626791_"  style="overflow:visible;fill:#F48156;"/>
	<clipPath id="SVGID_00000041290443619622960820000005770931556890764197_">
		<use xlink:href="#SVGID_00000168810953147803735320000002825941351889626791_"  style="overflow:visible;"/>
	</clipPath>
	<g style="clip-path:url(#SVGID_00000041290443619622960820000005770931556890764197_);">
		<path class="st0" d="M231,95.7h25.4V64.7H231V95.7"/>
	</g>
</g>
<g>
	<defs>
		<rect id="SVGID_00000047777377212874094830000010590231888530541704_" x="267.3" y="64.6" width="11.7" height="31.2"/>
	</defs>
	<use xlink:href="#SVGID_00000047777377212874094830000010590231888530541704_"  style="overflow:visible;fill:#F48156;"/>
	<clipPath id="SVGID_00000177475478723820594350000003646565393859120533_">
		<use xlink:href="#SVGID_00000047777377212874094830000010590231888530541704_"  style="overflow:visible;"/>
	</clipPath>
	<g style="clip-path:url(#SVGID_00000177475478723820594350000003646565393859120533_);">
		<path class="st0" d="M267.7,95.7H279V64.7h-11.3V95.7"/>
	</g>
</g>
<g>
	<defs>
		<rect id="SVGID_00000115502274685199736930000015726832284013426304_" x="267.3" y="13.7" width="11.7" height="48.6"/>
	</defs>
	<clipPath id="SVGID_00000075874378761042368890000002531669473143742351_">
		<use xlink:href="#SVGID_00000115502274685199736930000015726832284013426304_"  style="overflow:visible;"/>
	</clipPath>
	<g style="clip-path:url(#SVGID_00000075874378761042368890000002531669473143742351_);">
		<path class="st0" d="M267.7,39.2V42h4.2v19.8h2.8V42h4.2v-2.8h-4.2v-2.8h4.2v-2.8h-4.2v-2.8h4.2v-2.8h-4.2v-2.8h4.2v-2.8h-4.2
			v-2.8h2.8v-2.8h-2.8v-2.8H272v2.8h-2.8v2.8h2.8v2.8h-4.2v2.8h4.2v2.8h-4.2v2.8h4.2v2.8h-4.2v2.8h4.2v2.8H267.7"/>
	</g>
</g>
</svg>
