<?xml version="1.0" encoding="utf-8"?>
<!-- Generator: Adobe Illustrator 26.0.1, SVG Export Plug-In . SVG Version: 6.00 Build 0)  -->
<svg version="1.1" xmlns="http://www.w3.org/2000/svg" xmlns:xlink="http://www.w3.org/1999/xlink" x="0px" y="0px"
	 viewBox="0 0 1920 1080" style="enable-background:new 0 0 1920 1080;" xml:space="preserve">
<style type="text/css">
	.st0{fill:#918F8F;}
	.st1{font-family:'Roboto-Black';}
	.st2{font-size:56.7382px;}
	.st3{font-family:'Roboto-Regular';}
	.st4{font-size:42.5537px;}
	.st5{font-family:'BarlowSemiCondensed-SemiBold';}
	.st6{fill:#918F8F;stroke:#918F8F;stroke-linecap:round;stroke-linejoin:round;stroke-miterlimit:10;}
	.st7{fill:#FFFFFF;}
</style>
<g id="Mapa_x5F_raster">

		<image style="overflow:visible;" width="1920" height="1080" xlink:href="mapa_svg_001.jpg" >
	</image>
</g>
<g id="textos">
	<g>
		<text transform="matrix(1 0 0 1 877.6673 480.054)" class="st0 st1 st2">Borneo</text>
	</g>
	<g>
		<text transform="matrix(1 0 0 1 1297.7465 945.1858)" class="st0 st3 st4">Indonesia</text>
	</g>
	<g>
		<text transform="matrix(1 0 0 1 101.5973 804.1461)" class="st0 st3 st4">Sumatra</text>
	</g>
	<g>
		<text transform="matrix(1 0 0 1 90.0276 956.7593)" class="st0 st3 st4">Océano Índico</text>
	</g>
	<g>
		<text transform="matrix(1 0 0 1 935.4196 118.355)" class="st0 st3 st4">Sudeste asiático</text>
	</g>
	<g>
		<g>
			<text transform="matrix(1 0 0 1 290.6006 166.5765)" class="st0 st5 st4">N</text>
		</g>
		<g>
			<polygon class="st6" points="303.0497,70.1336 322.2272,129.1558 303.0497,115.2226 283.8722,129.1558 			"/>
			<polygon class="st7" points="303.0497,70.1336 303.0497,115.2226 283.8722,129.1558 			"/>
		</g>
	</g>
	<g>
		<rect x="912.7481" y="989.7021" class="st0" width="245.1295" height="10.1426"/>
		<g>
			<text transform="matrix(1 0 0 1 760.718 1003.0027)" class="st0 st3 st4">500 km </text>
		</g>
	</g>
</g>
</svg>
