<?xml version="1.0" encoding="utf-8"?>
<!-- Generator: Adobe Illustrator 26.0.1, SVG Export Plug-In . SVG Version: 6.00 Build 0)  -->
<svg version="1.1" xmlns="http://www.w3.org/2000/svg" xmlns:xlink="http://www.w3.org/1999/xlink" x="0px" y="0px"
	 viewBox="0 0 1920 1080" style="enable-background:new 0 0 1920 1080;" xml:space="preserve">
<style type="text/css">
	.st0{fill:none;stroke:#11150F;stroke-width:2;stroke-miterlimit:10;}
	.st1{fill:#11150F;}
	.st2{fill:#918F8F;}
	.st3{font-family:'Roboto-Medium';}
	.st4{font-size:42.5537px;}
	.st5{font-size:32.9513px;}
	.st6{font-family:'Roboto-Italic';}
	.st7{font-size:32.9512px;}
	.st8{font-family:'BarlowSemiCondensed-SemiBold';}
	.st9{fill:#918F8F;stroke:#918F8F;stroke-linecap:round;stroke-linejoin:round;stroke-miterlimit:10;}
	.st10{fill:#FFFFFF;}
	.st11{font-family:'Roboto-Regular';}
	.st12{letter-spacing:-1;}
	.st13{fill:none;stroke:#E65100;stroke-width:7;stroke-miterlimit:10;}
	.st14{fill:none;stroke:#E65100;stroke-width:5;stroke-miterlimit:10;}
	.st15{fill:none;stroke:#11150F;stroke-width:2;stroke-linecap:round;stroke-linejoin:round;stroke-miterlimit:10;}
	.st16{fill:none;stroke:#11150F;stroke-width:2;stroke-linecap:round;stroke-linejoin:round;}
</style>
<g id="Mapa_x5F_raster">

		<image style="overflow:visible;" width="1920" height="1080" xlink:href="Digital_mapa_Borneo_002.jpg" >
	</image>
</g>
<g id="textos">
	<g>
		<g>
			<line class="st0" x1="609.7195" y1="889.4609" x2="786.3427" y2="688.6858"/>
			<g>
				<path class="st1" d="M789.1656,691.1691c1.3713-1.5588,1.2193-3.9349-0.3395-5.3063s-3.9349-1.2192-5.3063,0.3396
					s-1.2192,3.9349,0.3396,5.3062C785.4182,692.88,787.7943,692.728,789.1656,691.1691z"/>
			</g>
		</g>
	</g>
	<g>
		<text transform="matrix(1 0 0 1 887.6288 470.9822)" class="st2 st3 st4">Borneo</text>
	</g>
	<g>
		<text transform="matrix(0.9969 0 0 1 741.5 865.6885)"><tspan x="0" y="0" class="st3 st5">Orangután de</tspan><tspan x="0" y="39.9414" class="st3 st5">Borneo central</tspan><tspan x="0" y="79.8818" class="st6 st5">(wurmbii)</tspan></text>
	</g>
	<g>
		<text transform="matrix(1.0003 0 0 1 1471.5 375.6885)"><tspan x="0" y="0" class="st3 st7">Orangután de </tspan><tspan x="0" y="39.9409" class="st3 st7">Borneo del noreste </tspan><tspan x="0" y="79.8818" class="st6 st7">(morio)</tspan></text>
	</g>
	<g>
		<text transform="matrix(0.9972 0 0 1 673.0005 250.689)"><tspan x="0" y="0" class="st3 st7">Orangután de Borneo </tspan><tspan x="0" y="39.9409" class="st3 st7">del noroeste</tspan><tspan x="0" y="79.8818" class="st6 st7">(pygmaeus)</tspan></text>
	</g>
	<g>
		<text transform="matrix(1 0 0 1 1627.5535 1000.6166)" class="st2 st8 st4">N</text>
	</g>
	<g>
		<polygon class="st9" points="1642,904.4889 1661.1775,963.5111 1642,949.5779 1622.8225,963.5111 		"/>
		<polygon class="st10" points="1642,904.4889 1642,949.5779 1622.8225,963.5111 		"/>
	</g>
	<rect x="1338.4353" y="990.9287" class="st2" width="245.1295" height="10.1426"/>
	<g>
		<text transform="matrix(1 0 0 1 1188.9144 1002.4358)" class="st2 st11 st4 st12">500 km </text>
	</g>
	<circle class="st13" cx="608" cy="896" r="108"/>
	<circle class="st13" cx="543" cy="281" r="108"/>
	<circle class="st14" cx="1344" cy="406" r="108"/>
	<g>
		<g>
			<line class="st0" x1="544" y1="278" x2="837.7195" y2="528.7454"/>
			<g>
				<path class="st1" d="M835.2784,531.6049c1.5791,1.348,3.9527,1.1607,5.3007-0.4183c1.348-1.579,1.1607-3.9526-0.4184-5.3007
					c-1.579-1.348-3.9526-1.1606-5.3006,0.4184S833.6994,530.257,835.2784,531.6049z"/>
			</g>
		</g>
	</g>
	<line class="st15" x1="1344" y1="406" x2="1169.5726" y2="408.8725"/>
	<g>
		<g>
			<line class="st16" x1="1169.5726" y1="408.8725" x2="1109.5725" y2="325.9944"/>
			<g>
				<path class="st1" d="M1112.618,323.7896c-1.2175-1.6817-3.5686-2.0582-5.2502-0.8407
					c-1.6818,1.2175-2.0582,3.5685-0.8407,5.2503c1.2175,1.6817,3.5685,2.0581,5.2502,0.8406
					C1113.459,327.8223,1113.8354,325.4713,1112.618,323.7896z"/>
			</g>
		</g>
	</g>
	<g>
		<g>
			<line class="st16" x1="1169.5726" y1="408.8725" x2="1109.5725" y2="491.7507"/>
			<g>
				<path class="st1" d="M1106.5271,489.5459c-1.2175,1.6817-0.8411,4.0328,0.8407,5.2502c1.6816,1.2175,4.0327,0.841,5.2502-0.8407
					c1.2174-1.6817,0.8409-4.0327-0.8407-5.2502C1110.0956,487.4877,1107.7446,487.8642,1106.5271,489.5459z"/>
			</g>
		</g>
	</g>
</g>
<g id="caras">

		<image style="overflow:visible;" width="300" height="300" xlink:href="ppmorio.png"  transform="matrix(0.72 0 0 0.72 1236 298)">
	</image>

		<image style="overflow:visible;" width="300" height="300" xlink:href="ppwurmii.png"  transform="matrix(0.72 0 0 0.72 500 788)">
	</image>

		<image style="overflow:visible;" width="300" height="300" xlink:href="ppygmaeus.png"  transform="matrix(0.72 0 0 0.72 435 173)">
	</image>
</g>
</svg>
