<?xml version="1.0" encoding="utf-8"?>
<!-- Generator: Adobe Illustrator 26.0.1, SVG Export Plug-In . SVG Version: 6.00 Build 0)  -->
<svg version="1.1" xmlns="http://www.w3.org/2000/svg" xmlns:xlink="http://www.w3.org/1999/xlink" x="0px" y="0px"
	 viewBox="0 0 1776 1638" style="enable-background:new 0 0 1776 1638;" xml:space="preserve">
<style type="text/css">
	.st0{fill:none;}
	.st1{fill:#070508;}
	.st2{font-family:'Roboto-Regular';}
	.st3{font-size:32.7115px;}
	.st4{fill:none;stroke:#191C17;stroke-width:2;stroke-miterlimit:10;}
	.st5{fill:#191C17;}
	.st6{font-size:32.6596px;}
	.st7{font-size:32.8677px;}
	.st8{fill:#DFA781;}
</style>
<g id="imagen">
	<image style="overflow:visible;enable-background:new    ;" width="2048" height="1638" xlink:href="fisico_001.jpg" >
	</image>
</g>
<g id="Capa_2">
	<g>
		<rect x="819.5" y="321.5" class="st0" width="925" height="171"/>
		<text transform="matrix(1.0036 0 0 1 819.5 346.0337)"><tspan x="0" y="0" class="st1 st2 st3">Los orangutanes son conocidos como el mamífero arbóreo </tspan><tspan x="0" y="39.3" class="st1 st2 st3">más grande del mundo, por lo que sus cuerpos son muy </tspan><tspan x="0" y="78.5" class="st1 st2 st3">adecuados para moverse de una rama a otra. Poseen brazos </tspan><tspan x="0" y="117.8" class="st1 st2 st3">largos y fuertes para sostenerlos y conseguir alimentos.</tspan></text>
	</g>
	<g>
		<g>
			<path class="st4" d="M798,397c-132.4,0-172,110-172,110"/>
			<g>
				<path class="st5" d="M622.5,505.7c-0.7,2,0.3,4.1,2.3,4.8c2,0.7,4.1-0.3,4.8-2.3s-0.3-4.1-2.3-4.8
					C625.3,502.8,623.2,503.8,622.5,505.7z"/>
			</g>
		</g>
	</g>
	<g>
		<rect x="1062" y="643.5" class="st0" width="638" height="73"/>
		<text transform="matrix(1.0039 0 0 1 1162.4844 692.2471)" class="st1 st2 st6">2,2 metros aproximadamente.</text>
	</g>
	<path id="JasmineUPC_bracket_3_" class="st4" d="M1060.1,782.1v-35.3l0,0c0-7.5,6.1-13.6,13.6-13.6h267.5c5.6,0,10-0.3,13.2-1
		c3.3-0.7,6.2-2.3,8.8-4.8c3.3-4,5.1-7.6,5.5-10.7c0.3,3.1,2.1,6.7,5.5,10.7c2.6,2.5,5.6,4.1,8.8,4.8c3.3,0.7,7.7,1,13.2,1H1687
		c7.5,0,13.6,6.1,13.6,13.6l0,0v35.3"/>
	<g>
		<rect x="1060.1" y="1312.9" class="st0" width="640.6" height="179.6"/>
		<text transform="matrix(0.9989 0 0 1 1060.0624 1337.5215)"><tspan x="0" y="0" class="st1 st2 st7">Sus brazos son muy largos, su longitud es </tspan><tspan x="0" y="39.4" class="st1 st2 st7">1,5 veces la longitud de sus piernas. Se </tspan><tspan x="0" y="78.9" class="st1 st2 st7">pueden estirar hasta los tobillos cuando </tspan><tspan x="0" y="118.3" class="st1 st2 st7">están de pie.</tspan></text>
	</g>
	<g id="SIlueta_x5F_orangutan_00000054254689015884125610000016908916555080389024_">
		<g>
			<path class="st8" d="M1292.9,1130c-2.9-58.4,41.2-62.3,40.6-101.7c2.1-24.2-16.1-90.4-16.1-60.3c-19.7-11.6-10.1-17.1-19.5-11.7
				c-14,9.8-13.7-15.3-31,0.6c-11.1-9.6-21.5,5.1-36.2,4.4c-41.8-25.5-71.7-24.5-128.2-41.7c-24.7,5.5-18.3-1.9-34.2-3.9
				c20.1-12.7-24.4-8,12.6-17.9c-25.2,1.4,1.7-11.8,12.9-10c35.5,5.5,61.3,23.7,99.2,21.5c61.1,2.3,145.7,19.2,143.5-32.9
				c26.9-43.2,56.3-5.8,66.3,4.7c6.5,9.7,28,13.1,40.2,31.4c9.8-2.2,4.6,5.3,13.5,7.2c5.5-1.1,31.6-4.7,19.7,1.1
				c45.6,1.9,103.7,5.8,156.9-7.3c28.8-27,74.9,3.7,60.9,10.3c-16.7-1.7-4.5-0.5-1.1,8c-4.5,4.8-22.8-7.3-8.3,2.7
				c-30-1.8-68.8,11.2-84.8,13.2c-24.4,10.7-35.9,5.3-49.5,13.6c2.4-8.4-14.5,6.5-18.3,9.3c-6,1.9-10.1-3-14.8,2.5
				c-5-16.2-20.5-5.5-32.2-12.3c-4.8-2.6-18,15.6-20.2,0.8c-4.3,4.9-6,12.9-4.2,1.8c-1.6-18.1-9.1,21.9-11.3,2.5
				c-20,0.3,0.9,46.3-19.1,78.1c-14.9,8.5,25.1,41.4,25.2,54.5c4.2,43.5,18.8,107.7,3.5,121.9c-4.7,21.2-47.7,15.7-29.8-3.8
				c9.4-26.9,3.8-52.3-4.5-79.4c-3.1-5.5-12.1-13.3-17.7-10.6c-5.3-13.3-5.8-16.4-21-23.3c1.4-3.7-3.7-0.8-12.3-6.7
				c5.7,19.9-0.6,4.4-7.2-0.1c-7.1,36.8-53.5,7.7-34.2,112c-1.1,9.1-6.6-2.9-7-6.3c-32.3-18.5,14.5,28.9-7.9,28.5
				C1266.1,1219.5,1313.1,1154.3,1292.9,1130z"/>
		</g>
	</g>
	<path id="JasmineUPC_bracket_7_" class="st4" d="M1479.6,1054.4h35.2l0,0c7.5,0,13.6,6.1,13.6,13.6l0,41.1c0,5.5,0.3,9.9,1,13.2
		c0.7,3.2,2.3,6.2,4.8,8.8c4,3.3,7.6,5.1,10.7,5.4c-3.1,0.3-6.7,2.1-10.7,5.4c-2.5,2.6-4.1,5.5-4.8,8.8c-0.7,3.2-1,7.6-1,13.2v51.3
		c0,7.5-6.1,13.6-13.6,13.6l0,0h-35.2"/>
	<g>
		<g>
			<polyline class="st4" points="1543.5,1136.5 1599.8,1136.5 1600.5,1279.5 			"/>
			<g>
				<path class="st5" d="M1596.7,1279.5c0,2.1,1.7,3.8,3.8,3.7c2.1,0,3.8-1.7,3.7-3.8c0-2.1-1.7-3.8-3.8-3.7
					C1598.4,1275.8,1596.7,1277.4,1596.7,1279.5z"/>
			</g>
		</g>
	</g>
</g>
</svg>
